SplineFontDB: 3.0
FontName: Bangers-Italic
FullName: Bangers Italic
FamilyName: Bangers
Weight: Regular
Copyright: Copyright (c) 2011 by Vernon Adams. All rights reserved.
Version: 1.000
ItalicAngle: -11.3
UnderlinePosition: 0
UnderlineWidth: 0
Ascent: 819
Descent: 205
sfntRevision: 0x00010000
LayerCount: 2
Layer: 0 1 "Back"  1
Layer: 1 1 "Fore"  0
XUID: [1021 332 469972825 16725247]
FSType: 0
OS2Version: 2
OS2_WeightWidthSlopeOnly: 0
OS2_UseTypoMetrics: 1
CreationTime: 1296177180
ModificationTime: 1296312376
PfmFamily: 81
TTFWeight: 400
TTFWidth: 3
LineGap: 0
VLineGap: 0
Panose: 4 1 6 6 4 3 2 0 2 1
OS2TypoAscent: 904
OS2TypoAOffset: 0
OS2TypoDescent: -185
OS2TypoDOffset: 0
OS2TypoLinegap: 0
OS2WinAscent: 904
OS2WinAOffset: 0
OS2WinDescent: 185
OS2WinDOffset: 0
HheadAscent: 904
HheadAOffset: 0
HheadDescent: -185
HheadDOffset: 0
OS2SubXSize: 717
OS2SubYSize: 665
OS2SubXOff: 0
OS2SubYOff: 143
OS2SupXSize: 717
OS2SupYSize: 665
OS2SupXOff: 0
OS2SupYOff: 488
OS2StrikeYSize: 0
OS2StrikeYPos: 0
OS2Vendor: 'newt'
OS2CodePages: 20000111.40000000
OS2UnicodeRanges: 80000027.00000048.00000000.00000000
Lookup: 258 0 0 "kernHorizontalKerninginLatinloo"  {"kernHorizontalKerninginLatinloo subtable"  } ['kern' ('latn' <'dflt' > ) ]
MarkAttachClasses: 1
DEI: 91125
TtTable: prep
PUSHW_1
 511
SCANCTRL
PUSHB_1
 1
SCANTYPE
SVTCA[y-axis]
MPPEM
PUSHB_1
 8
LT
IF
PUSHB_2
 1
 1
INSTCTRL
EIF
PUSHB_2
 70
 6
CALL
IF
POP
PUSHB_1
 16
EIF
MPPEM
PUSHB_1
 20
GT
IF
POP
PUSHB_1
 128
EIF
SCVTCI
PUSHB_1
 6
CALL
NOT
IF
SVTCA[y-axis]
PUSHB_1
 2
DUP
RCVT
PUSHB_1
 3
CALL
WCVTP
PUSHB_1
 12
DUP
RCVT
PUSHB_3
 2
 123
 2
CALL
PUSHB_1
 3
CALL
WCVTP
PUSHB_1
 11
DUP
RCVT
PUSHB_3
 12
 66
 2
CALL
PUSHB_1
 3
CALL
WCVTP
PUSHB_1
 10
DUP
RCVT
PUSHB_3
 11
 26
 2
CALL
PUSHB_1
 3
CALL
WCVTP
PUSHB_1
 9
DUP
RCVT
PUSHB_3
 10
 20
 2
CALL
PUSHB_1
 3
CALL
WCVTP
PUSHB_1
 8
DUP
RCVT
PUSHB_3
 9
 128
 2
CALL
PUSHB_1
 3
CALL
WCVTP
PUSHB_1
 7
DUP
RCVT
PUSHB_3
 8
 15
 2
CALL
PUSHB_1
 3
CALL
WCVTP
PUSHB_1
 6
DUP
RCVT
PUSHB_3
 7
 83
 2

StartChar: P
Encoding: 80 80 4
Width: 368
Flags: W
HStem: -1 21G<-29.5 56.1429> 736 20G<260 296>
VStem: 295 142<454.379 614.902>
DStem2: 13 269 145 116 0.199898 0.979817<-205.176 30.0241 140.042 401.25>
LayerCount: 2
Fore
SplineSet
-45 -1 m 1,0,1
 -14 137 -14 137 13 269 c 0,2,3
 25 325 25 325 37 386 c 128,-1,4
 49 447 49 447 60.5 506.5 c 128,-1,5
 72 566 72 566 82 621.5 c 128,-1,6
 92 677 92 677 99 723 c 1,7,8
 129 732 129 732 160 739 c 0,9,10
 186 745 186 745 216.5 750.5 c 128,-1,11
 247 756 247 756 273 756 c 0,12,13
 319 756 319 756 350.5 740.5 c 128,-1,14
 382 725 382 725 401.5 699 c 128,-1,15
 421 673 421 673 429 638 c 128,-1,16
 437 603 437 603 437 563 c 0,17,18
 437 506 437 506 416 452.5 c 128,-1,19
 395 399 395 399 360 357.5 c 128,-1,20
 325 316 325 316 279 291.5 c 128,-1,21
 233 267 233 267 184 267 c 2,22,-1
 173 267 l 1,23,24
 165 232 165 232 158 191.5 c 128,-1,25
 151 151 151 151 145 116 c 0,26,27
 138 75 138 75 132 34 c 1,28,-1
 -45 -1 l 1,0,1
241 632 m 1,29,30
 229 564 229 564 218 503.5 c 128,-1,31
 207 443 207 443 194 375 c 1,32,33
 210 379 210 379 228 394 c 128,-1,34
 246 409 246 409 261 433 c 128,-1,35
 276 457 276 457 285.5 488.5 c 128,-1,36
 295 520 295 520 295 555 c 0,37,38
 295 593 295 593 278 612.5 c 128,-1,39
 261 632 261 632 241 632 c 1,29,30
EndSplineSet
EndChar

StartChar: G
Encoding: 71 71 5
Width: 489
Flags: W
HStem: -25 154<174.64 272.906> 638 128<287.888 393.5>
VStem: -8 160<154.843 388.103>
LayerCount: 2
Fore
SplineSet
390 562 m 1,0,1
 381 603 381 603 365.5 620.5 c 128,-1,2
 350 638 350 638 331 638 c 0,3,4
 305 638 305 638 274.5 601.5 c 128,-1,5
 244 565 244 565 217.5 508 c 128,-1,6
 191 451 191 451 172.5 382 c 128,-1,7
 154 313 154 313 152 247 c 1,8,9
 152 183 152 183 171 156 c 128,-1,10
 190 129 190 129 219 129 c 0,11,12
 240 129 240 129 262 139.5 c 128,-1,13
 284 150 284 150 301.5 168.5 c 128,-1,14
 319 187 319 187 330.5 212.5 c 128,-1,15
 342 238 342 238 343 267 c 1,16,-1
 234 251 l 1,17,-1
 253 352 l 1,18,19
 301 358 301 358 347 365 c 0,20,21
 386 370 386 370 429.5 377 c 128,-1,22
 473 384 473 384 506 390 c 1,23,24
 499 286 499 286 465 208.5 c 128,-1,25
 431 131 431 131 383.5 79 c 128,-1,26
 336 27 336 27 281 1 c 128,-1,27
 226 -25 226 -25 177 -25 c 0,28,29
 139 -25 139 -25 105 -8.5 c 128,-1,30
 71 8 71 8 46 41.5 c 128,-1,31
 21 75 21 75 6.5 125 c 128,-1,32
 -8 175 -8 175 -8 243 c 0,33,34
 -8 375 -8 375 30 473 c 128,-1,35
 68 571 68 571 125.5 636.5 c 128,-1,36
 183 702 183 702 249.5 734 c 128,-1,37
 316 766 316 766 373 766 c 0,38,39
 414 766 414 766 444 751.5 c 128,-1,40
 474 737 474 737 493.5 713 c 128,-1,41
 513 689 513 689 522 657 c 128,-1,42
 531 625 531 625 531 589 c 1,43,-1
 390 562 l 1,0,1
EndSplineSet
EndChar

StartChar: L
Encoding: 76 76 6
Width: 334
Flags: W
HStem: -2 21G<-18 -7> 33 114<161.422 268.49> 734 20G<140 276>
VStem: -21 311
DStem2: 56 457 214 422.5 0.214579 0.976707<-120.46 278.228>
LayerCount: 2
Fore
SplineSet
281 32 m 1,0,1
 273 32 273 32 265.5 32.5 c 128,-1,2
 258 33 258 33 250 33 c 0,3,4
 218 33 218 33 182.5 31 c 128,-1,5
 147 29 147 29 111.5 24.5 c 128,-1,6
 76 20 76 20 41.5 13.5 c 128,-1,7
 7 7 7 7 -21 -2 c 1,8,9
 -15 44 -15 44 -6.5 100.5 c 128,-1,10
 2 157 2 157 12.5 217 c 128,-1,11
 23 277 23 277 34 338.5 c 128,-1,12
 45 400 45 400 56 457 c 0,13,14
 82 591 82 591 110 730 c 1,15,-1
 290 754 l 1,16,17
 262 635 262 635 236 522 c 0,18,19
 225 474 225 474 214 422.5 c 128,-1,20
 203 371 203 371 192.5 321.5 c 128,-1,21
 182 272 182 272 174 226 c 128,-1,22
 166 180 166 180 161 144 c 1,23,24
 186 146 186 146 215 146.5 c 128,-1,25
 244 147 244 147 267 147 c 1,26,27
 268 128 268 128 270 109 c 128,-1,28
 272 90 272 90 274.5 74.5 c 128,-1,29
 277 59 277 59 278.5 47.5 c 128,-1,30
 280 36 280 36 281 32 c 1,0,1
EndSplineSet
EndChar

StartChar: E
Encoding: 69 69 7
Width: 369
Flags: W
HStem: -1 21G<-25.3187 100.804> 332 112<212 338.837> 735 20G<197.571 425.5>
DStem2: -29 -1 163 143 0.181025 0.983479<176.378 373.436 481.275 668.752>
LayerCount: 2
Fore
SplineSet
-29 -1 m 1,0,-1
 105 727 l 1,1,-1
 429 755 l 1,2,3
 422 732 422 732 417 709 c 0,4,5
 412 689 412 689 407 668 c 128,-1,6
 402 647 402 647 399 631 c 1,7,8
 389 630 389 630 370 629.5 c 128,-1,9
 351 629 351 629 329.5 628.5 c 128,-1,10
 308 628 308 628 286 628 c 128,-1,11
 264 628 264 628 248 628 c 1,12,-1
 212 444 l 1,13,14
 244 446 244 446 271 447 c 0,15,16
 294 448 294 448 317.5 448.5 c 128,-1,17
 341 449 341 449 352 450 c 1,18,19
 348 421 348 421 344.5 393.5 c 128,-1,20
 341 366 341 366 336 337 c 1,21,22
 325 336 325 336 302 335.5 c 128,-1,23
 279 335 279 335 256 334 c 0,24,25
 229 333 229 333 198 332 c 1,26,-1
 163 143 l 1,27,-1
 312 167 l 1,28,-1
 302 50 l 1,29,-1
 -29 -1 l 1,0,-1
EndSplineSet
EndChar

StartChar: T
Encoding: 84 84 8
Width: 365
Flags: W
HStem: -1 21G<60 174.897> 596 134<66.8126 156.25> 726 20G<424.5 440>
DStem2: 93 221 263 238 0.186318 0.98249<-163.722 233.177 322.524 377.195>
LayerCount: 2
Fore
SplineSet
66 733 m 1,0,1
 92 731 92 731 118.5 730 c 128,-1,2
 145 729 145 729 172 729 c 0,3,4
 224 729 224 729 273 731.5 c 128,-1,5
 322 734 322 734 360 737 c 0,6,7
 405 741 405 741 444 746 c 1,8,-1
 433 691 l 2,9,10
 428 668 428 668 423.5 643.5 c 128,-1,11
 419 619 419 619 415 601 c 1,12,13
 392 595 392 595 369 592.5 c 128,-1,14
 346 590 346 590 324 586 c 1,15,16
 316 551 316 551 308 508.5 c 128,-1,17
 300 466 300 466 292.5 420.5 c 128,-1,18
 285 375 285 375 277.5 328 c 128,-1,19
 270 281 270 281 263 238 c 0,20,21
 247 136 247 136 232 28 c 1,22,-1
 48 -1 l 1,23,24
 72 112 72 112 93 221 c 0,25,26
 102 267 102 267 111.5 317.5 c 128,-1,27
 121 368 121 368 129.5 416.5 c 128,-1,28
 138 465 138 465 145 510.5 c 128,-1,29
 152 556 152 556 157 594 c 1,30,31
 133 597 133 597 109 596 c 128,-1,32
 85 595 85 595 61 602 c 1,33,34
 62 618 62 618 62.5 640 c 128,-1,35
 63 662 63 662 64 683 c 0,36,37
 65 707 65 707 66 733 c 1,0,1
EndSplineSet
EndChar

StartChar: U
Encoding: 85 85 9
Width: 435
Flags: W
HStem: -18 144<123 217.574> 724 20G<255.5 258>
DStem2: 54 478 206 434 0.204904 0.978782<-129.322 262.6> 242 212 415 308 0.190191 0.981747<-84.8501 529.528>
LayerCount: 2
Fore
SplineSet
102 728 m 1,0,1
 124 730 124 730 153.5 733 c 128,-1,2
 183 736 183 736 209 738 c 0,3,4
 240 741 240 741 271 744 c 1,5,6
 245 621 245 621 224 520 c 0,7,8
 215 477 215 477 206 434 c 128,-1,9
 197 391 197 391 189.5 355 c 128,-1,10
 182 319 182 319 176.5 293 c 128,-1,11
 171 267 171 267 169 258 c 0,12,13
 164 234 164 234 159 209 c 128,-1,14
 154 184 154 184 154 164 c 0,15,16
 154 147 154 147 162.5 136.5 c 128,-1,17
 171 126 171 126 183 126 c 0,18,19
 200 126 200 126 211.5 140 c 128,-1,20
 223 154 223 154 230.5 173 c 128,-1,21
 238 192 238 192 242 212 c 128,-1,22
 246 232 246 232 249 244 c 0,23,24
 255 273 255 273 262.5 309.5 c 128,-1,25
 270 346 270 346 277.5 385.5 c 128,-1,26
 285 425 285 425 293 466 c 128,-1,27
 301 507 301 507 308 546 c 0,28,29
 325 636 325 636 342 732 c 1,30,-1
 497 742 l 1,31,32
 497 742 497 742 492 715.5 c 128,-1,33
 487 689 487 689 479 645 c 128,-1,34
 471 601 471 601 461 544.5 c 128,-1,35
 451 488 451 488 439 427.5 c 128,-1,36
 427 367 427 367 415 308 c 128,-1,37
 403 249 403 249 392 200 c 0,38,39
 378 141 378 141 351.5 100 c 128,-1,40
 325 59 325 59 290 32.5 c 128,-1,41
 255 6 255 6 215 -6 c 128,-1,42
 175 -18 175 -18 135 -18 c 0,43,44
 111 -18 111 -18 86.5 -10.5 c 128,-1,45
 62 -3 62 -3 42.5 12.5 c 128,-1,46
 23 28 23 28 10.5 51.5 c 128,-1,47
 -2 75 -2 75 -2 107 c 0,48,49
 -2 111 -2 111 -2 115 c 128,-1,50
 -2 119 -2 119 -1 123 c 0,51,52
 3 165 3 165 12 224.5 c 128,-1,53
 21 284 21 284 31.5 348.5 c 128,-1,54
 42 413 42 413 54 478 c 128,-1,55
 66 543 66 543 76 596 c 128,-1,56
 86 649 86 649 93 684.5 c 128,-1,57
 100 720 100 720 102 728 c 1,0,1
EndSplineSet
EndChar

StartChar: Q
Encoding: 81 81 10
Width: 526
Flags: W
HStem: -4 169<130.5 241.898> 551 215<284.603 404.672>
VStem: -6 152<180.544 359.09> 393 142<377.456 630>
LayerCount: 2
Fore
SplineSet
535 554 m 0,0,1
 535 454 535 454 510.5 369.5 c 128,-1,2
 486 285 486 285 447 217 c 1,3,-1
 545 102 l 1,4,5
 522 73 522 73 500 45 c 0,6,7
 481 21 481 21 460 -5 c 128,-1,8
 439 -31 439 -31 424 -49 c 1,9,10
 403 -20 403 -20 381 9.5 c 128,-1,11
 359 39 359 39 339 70 c 2,12,-1
 334 78 l 1,13,14
 287 38 287 38 239 17 c 128,-1,15
 191 -4 191 -4 147 -4 c 0,16,17
 114 -4 114 -4 86 8.5 c 128,-1,18
 58 21 58 21 37.5 46.5 c 128,-1,19
 17 72 17 72 5.5 111.5 c 128,-1,20
 -6 151 -6 151 -6 206 c 0,21,22
 -6 263 -6 263 8 326.5 c 128,-1,23
 22 390 22 390 47 452.5 c 128,-1,24
 72 515 72 515 107.5 571.5 c 128,-1,25
 143 628 143 628 186 671.5 c 128,-1,26
 229 715 229 715 278.5 740.5 c 128,-1,27
 328 766 328 766 381 766 c 0,28,29
 427 766 427 766 457 747 c 128,-1,30
 487 728 487 728 504 698 c 128,-1,31
 521 668 521 668 528 630 c 128,-1,32
 535 592 535 592 535 554 c 0,0,1
393 468 m 0,33,34
 393 480 393 480 391.5 494.5 c 128,-1,35
 390 509 390 509 385.5 521.5 c 128,-1,36
 381 534 381 534 371 542.5 c 128,-1,37
 361 551 361 551 345 551 c 0,38,39
 312 551 312 551 284.5 534.5 c 128,-1,40
 257 518 257 518 235 491 c 128,-1,41
 213 464 213 464 196.5 429.5 c 128,-1,42
 180 395 180 395 168.5 360 c 128,-1,43
 157 325 157 325 151.5 291 c 128,-1,44
 146 257 146 257 146 232 c 0,45,46
 146 221 146 221 150 209 c 128,-1,47
 154 197 154 197 161.5 187.5 c 128,-1,48
 169 178 169 178 179.5 171.5 c 128,-1,49
 190 165 190 165 203 165 c 0,50,51
 238 165 238 165 268 184 c 1,52,-1
 227 252 l 1,53,54
 270 285 270 285 293 303.5 c 128,-1,55
 316 322 316 322 327 330 c 0,56,57
 339 340 339 340 341 342 c 1,58,-1
 363 316 l 1,59,60
 377 354 377 354 385 394 c 128,-1,61
 393 434 393 434 393 468 c 0,33,34
EndSplineSet
EndChar

StartChar: R
Encoding: 82 82 11
Width: 408
Flags: W
HStem: -1 21G<-35 28.2093> 606 143<225 348.264>
VStem: 356 116<531.368 637.5>
DStem2: -49 -1 117 42 0.181774 0.98334<72.4581 355.717 480.411 649.903>
LayerCount: 2
Fore
SplineSet
259 16 m 1,0,1
 239 87 239 87 222 149 c 0,2,3
 215 175 215 175 208 202 c 128,-1,4
 201 229 201 229 195 253 c 128,-1,5
 189 277 189 277 184.5 295.5 c 128,-1,6
 180 314 180 314 179 325 c 1,7,-1
 166 321 l 1,8,9
 160 288 160 288 151.5 241 c 128,-1,10
 143 194 143 194 135 149 c 0,11,12
 126 97 126 97 117 42 c 1,13,-1
 -49 -1 l 1,14,15
 -21 135 -21 135 4 265 c 0,16,17
 14 320 14 320 25 380 c 128,-1,18
 36 440 36 440 46 499 c 128,-1,19
 56 558 56 558 64.5 613 c 128,-1,20
 73 668 73 668 78 713 c 1,21,22
 136 731 136 731 204 740 c 128,-1,23
 272 749 272 749 338 749 c 0,24,25
 378 749 378 749 404 739.5 c 128,-1,26
 430 730 430 730 445 713 c 128,-1,27
 460 696 460 696 466 673.5 c 128,-1,28
 472 651 472 651 472 624 c 0,29,30
 472 583 472 583 458 543.5 c 128,-1,31
 444 504 444 504 420 468.5 c 128,-1,32
 396 433 396 433 364.5 404 c 128,-1,33
 333 375 333 375 297 356 c 1,34,35
 316 315 316 315 337 266.5 c 128,-1,36
 358 218 358 218 376 174 c 0,37,38
 397 123 397 123 418 72 c 1,39,-1
 259 16 l 1,0,1
192 443 m 1,40,41
 211 445 211 445 239 459.5 c 128,-1,42
 267 474 267 474 293 494 c 128,-1,43
 319 514 319 514 337.5 535.5 c 128,-1,44
 356 557 356 557 356 573 c 0,45,46
 356 585 356 585 348.5 591.5 c 128,-1,47
 341 598 341 598 328.5 601.5 c 128,-1,48
 316 605 316 605 300.5 606 c 128,-1,49
 285 607 285 607 269 607 c 0,50,51
 257 607 257 607 245.5 606.5 c 128,-1,52
 234 606 234 606 225 606 c 1,53,-1
 192 443 l 1,40,41
EndSplineSet
EndChar

StartChar: I
Encoding: 73 73 12
Width: 223
Flags: W
HStem: 1 21G<-37 -32>
VStem: -38 307
DStem2: -13.5 99 148.5 121.5 0.189049 0.981968<-56.0532 630.015>
LayerCount: 2
Fore
SplineSet
269 742 m 1,0,1
 242 605 242 605 216 473 c 0,2,3
 205 417 205 417 193 356.5 c 128,-1,4
 181 296 181 296 170 236.5 c 128,-1,5
 159 177 159 177 148.5 121.5 c 128,-1,6
 138 66 138 66 130 20 c 1,7,8
 121 20 121 20 94 17.5 c 128,-1,9
 67 15 67 15 38.5 11.5 c 128,-1,10
 10 8 10 8 -13 5 c 128,-1,11
 -36 2 -36 2 -38 1 c 1,12,13
 -26 45 -26 45 -13.5 99 c 128,-1,14
 -1 153 -1 153 11.5 211.5 c 128,-1,15
 24 270 24 270 36 330.5 c 128,-1,16
 48 391 48 391 59 447 c 0,17,18
 85 579 85 579 109 717 c 1,19,-1
 269 742 l 1,0,1
EndSplineSet
EndChar

StartChar: M
Encoding: 77 77 13
Width: 643
Flags: W
HStem: 723 20G<347 374.5>
DStem2: -60 6 109 17 0.298319 0.954466<60.915 444.085> 415.5 37.5 593 42 0.089297 0.996005<20.3322 350.864>
LayerCount: 2
Fore
SplineSet
334 358 m 1,0,1
 363 436 363 436 390 509 c 0,2,3
 402 540 402 540 414.5 572.5 c 128,-1,4
 427 605 427 605 439.5 636.5 c 128,-1,5
 452 668 452 668 464 696 c 128,-1,6
 476 724 476 724 486 745 c 1,7,8
 512 748 512 748 534.5 751 c 128,-1,9
 557 754 557 754 579.5 757.5 c 128,-1,10
 602 761 602 761 625 764.5 c 128,-1,11
 648 768 648 768 675 773 c 1,12,13
 665 714 665 714 656 651.5 c 128,-1,14
 647 589 647 589 639.5 527 c 128,-1,15
 632 465 632 465 625.5 404.5 c 128,-1,16
 619 344 619 344 614 290 c 0,17,18
 602 163 602 163 593 42 c 1,19,-1
 414 10 l 1,20,21
 414 15 414 15 415.5 37.5 c 128,-1,22
 417 60 417 60 420 93 c 128,-1,23
 423 126 423 126 427.5 166 c 128,-1,24
 432 206 432 206 436.5 246 c 128,-1,25
 441 286 441 286 446 323 c 128,-1,26
 451 360 451 360 456 387 c 1,27,-1
 447 387 l 1,28,29
 433 344 433 344 415.5 296.5 c 128,-1,30
 398 249 398 249 380 200 c 128,-1,31
 362 151 362 151 344.5 103.5 c 128,-1,32
 327 56 327 56 314 13 c 1,33,34
 278 12 278 12 252.5 10.5 c 128,-1,35
 227 9 227 9 193 7 c 1,36,-1
 226 387 l 1,37,-1
 211 387 l 1,38,39
 209 374 209 374 200.5 342.5 c 128,-1,40
 192 311 192 311 181.5 270.5 c 128,-1,41
 171 230 171 230 158.5 186.5 c 128,-1,42
 146 143 146 143 135.5 106 c 128,-1,43
 125 69 125 69 117.5 44.5 c 128,-1,44
 110 20 110 20 109 17 c 1,45,-1
 -60 6 l 1,46,47
 -15 142 -15 142 26 273 c 0,48,49
 44 329 44 329 62.5 389.5 c 128,-1,50
 81 450 81 450 99 509 c 128,-1,51
 117 568 117 568 133 623.5 c 128,-1,52
 149 679 149 679 161 726 c 1,53,54
 218 726 218 726 268 732 c 128,-1,55
 318 738 318 738 376 743 c 1,56,57
 373 721 373 721 369.5 693 c 128,-1,58
 366 665 366 665 361.5 634 c 128,-1,59
 357 603 357 603 352 570.5 c 128,-1,60
 347 538 347 538 343 507 c 0,61,62
 332 435 332 435 320 358 c 1,63,-1
 334 358 l 1,0,1
EndSplineSet
EndChar

StartChar: A
Encoding: 65 65 14
Width: 408
Flags: W
HStem: 2 21G<211 221.5> 175 105.5<163 227.892> 739 20G<385 417.5>
VStem: 237 157<284.234 523.18>
DStem2: -78 6 98 28 0.285762 0.958301<71.3768 223.963 328.568 460.895> 73.5 510.5 227 535 0.285762 0.958301<-125.141 158.246>
LayerCount: 2
Fore
SplineSet
139 175 m 1,0,-1
 98 28 l 1,1,2
 75 25 75 25 44.5 21 c 128,-1,3
 14 17 14 17 -13 14 c 0,4,5
 -46 10 -46 10 -78 6 c 1,6,7
 -37 142 -37 142 3 274 c 0,8,9
 20 330 20 330 38 390.5 c 128,-1,10
 56 451 56 451 73.5 510.5 c 128,-1,11
 91 570 91 570 107.5 625.5 c 128,-1,12
 124 681 124 681 137 727 c 1,13,14
 206 732 206 732 278.5 739 c 128,-1,15
 351 746 351 746 419 759 c 1,16,17
 416 726 416 726 412.5 677.5 c 128,-1,18
 409 629 409 629 406 571.5 c 128,-1,19
 403 514 403 514 400 451.5 c 128,-1,20
 397 389 397 389 394 329 c 0,21,22
 388 187 388 187 382 29 c 1,23,24
 352 24 352 24 321 20 c 0,25,26
 295 16 295 16 264.5 11 c 128,-1,27
 234 6 234 6 209 2 c 1,28,29
 213 36 213 36 217 69 c 0,30,31
 220 97 220 97 223 126 c 128,-1,32
 226 155 226 155 228 175 c 1,33,-1
 139 175 l 1,0,-1
250 623 m 1,34,-1
 227 535 l 1,35,-1
 163 277 l 1,36,37
 167 278 167 278 178 278.5 c 128,-1,38
 189 279 189 279 200.5 279.5 c 128,-1,39
 212 280 212 280 222.5 280.5 c 128,-1,40
 233 281 233 281 237 282 c 1,41,42
 237 288 237 288 238.5 302.5 c 128,-1,43
 240 317 240 317 241.5 336 c 128,-1,44
 243 355 243 355 245 377.5 c 128,-1,45
 247 400 247 400 249 422 c 0,46,47
 253 474 253 474 259 535 c 1,48,-1
 266 624 l 1,49,-1
 250 623 l 1,34,-1
EndSplineSet
EndChar

StartChar: O
Encoding: 79 79 15
Width: 495
Flags: W
HStem: -4 169<121.5 231.927> 551 215<275.603 395.672>
VStem: -15 152<180.544 359.09> 384 142<377.688 630>
LayerCount: 2
Fore
SplineSet
384 468 m 0,0,1
 384 480 384 480 382.5 494.5 c 128,-1,2
 381 509 381 509 376.5 521.5 c 128,-1,3
 372 534 372 534 362 542.5 c 128,-1,4
 352 551 352 551 336 551 c 0,5,6
 303 551 303 551 275.5 534.5 c 128,-1,7
 248 518 248 518 226 491 c 128,-1,8
 204 464 204 464 187.5 429.5 c 128,-1,9
 171 395 171 395 159.5 360 c 128,-1,10
 148 325 148 325 142.5 291 c 128,-1,11
 137 257 137 257 137 232 c 0,12,13
 137 221 137 221 141 209 c 128,-1,14
 145 197 145 197 152.5 187.5 c 128,-1,15
 160 178 160 178 170.5 171.5 c 128,-1,16
 181 165 181 165 194 165 c 0,17,18
 240 165 240 165 275.5 196.5 c 128,-1,19
 311 228 311 228 335 274 c 128,-1,20
 359 320 359 320 371.5 372.5 c 128,-1,21
 384 425 384 425 384 468 c 0,0,1
526 554 m 0,22,23
 526 470 526 470 508.5 396 c 128,-1,24
 491 322 491 322 461 260 c 128,-1,25
 431 198 431 198 391.5 149 c 128,-1,26
 352 100 352 100 309 66 c 128,-1,27
 266 32 266 32 222 14 c 128,-1,28
 178 -4 178 -4 138 -4 c 0,29,30
 105 -4 105 -4 77 8.5 c 128,-1,31
 49 21 49 21 28.5 46.5 c 128,-1,32
 8 72 8 72 -3.5 111.5 c 128,-1,33
 -15 151 -15 151 -15 206 c 0,34,35
 -15 263 -15 263 -1 326.5 c 128,-1,36
 13 390 13 390 38 452.5 c 128,-1,37
 63 515 63 515 98.5 571.5 c 128,-1,38
 134 628 134 628 177 671.5 c 128,-1,39
 220 715 220 715 269.5 740.5 c 128,-1,40
 319 766 319 766 372 766 c 0,41,42
 418 766 418 766 448 747 c 128,-1,43
 478 728 478 728 495 698 c 128,-1,44
 512 668 512 668 519 630 c 128,-1,45
 526 592 526 592 526 554 c 0,22,23
EndSplineSet
EndChar

StartChar: B
Encoding: 66 66 16
Width: 451
Flags: W
HStem: -4 21G<18 58> 611 147<237.645 329.438>
VStem: 311 119<247.772 341.336> 344 147<527.392 639>
DStem2: 44 363 167 203 0.178461 0.983947<-132.512 33.0124 156.192 279.176>
LayerCount: 2
Fore
SplineSet
430 257 m 0,0,1
 430 215 430 215 412.5 179 c 128,-1,2
 395 143 395 143 365.5 114 c 128,-1,3
 336 85 336 85 296.5 63 c 128,-1,4
 257 41 257 41 213.5 26 c 128,-1,5
 170 11 170 11 124.5 3.5 c 128,-1,6
 79 -4 79 -4 37 -4 c 0,7,8
 -1 -4 -1 -4 -34 2 c 1,9,10
 15 181 15 181 44 363 c 128,-1,11
 73 545 73 545 100 729 c 1,12,13
 153 740 153 740 210.5 749 c 128,-1,14
 268 758 268 758 329 758 c 0,15,16
 355 758 355 758 383.5 751.5 c 128,-1,17
 412 745 412 745 436 729 c 128,-1,18
 460 713 460 713 475.5 686 c 128,-1,19
 491 659 491 659 491 619 c 0,20,21
 491 580 491 580 478.5 546 c 128,-1,22
 466 512 466 512 446 484.5 c 128,-1,23
 426 457 426 457 400.5 437 c 128,-1,24
 375 417 375 417 348 407 c 1,25,26
 361 399 361 399 375.5 386 c 128,-1,27
 390 373 390 373 402 355 c 128,-1,28
 414 337 414 337 422 312.5 c 128,-1,29
 430 288 430 288 430 257 c 0,0,1
167 203 m 1,30,31
 186 205 186 205 210.5 210 c 128,-1,32
 235 215 235 215 257.5 226 c 128,-1,33
 280 237 280 237 295.5 254.5 c 128,-1,34
 311 272 311 272 311 298 c 0,35,36
 311 316 311 316 301.5 328.5 c 128,-1,37
 292 341 292 341 277 349 c 128,-1,38
 262 357 262 357 244.5 361 c 128,-1,39
 227 365 227 365 212 365 c 0,40,41
 207 365 207 365 203 365 c 128,-1,42
 199 365 199 365 195 364 c 1,43,44
 191 339 191 339 187.5 320 c 128,-1,45
 184 301 184 301 181 283.5 c 128,-1,46
 178 266 178 266 174.5 247 c 128,-1,47
 171 228 171 228 167 203 c 1,30,31
241 611 m 1,48,49
 239 600 239 600 236.5 584.5 c 128,-1,50
 234 569 234 569 231 552.5 c 128,-1,51
 228 536 228 536 224.5 519.5 c 128,-1,52
 221 503 221 503 219 490 c 1,53,54
 241 495 241 495 263.5 502 c 128,-1,55
 286 509 286 509 304 517.5 c 128,-1,56
 322 526 322 526 333 536.5 c 128,-1,57
 344 547 344 547 344 559 c 0,58,59
 344 574 344 574 334.5 584 c 128,-1,60
 325 594 325 594 310.5 600 c 128,-1,61
 296 606 296 606 280 608.5 c 128,-1,62
 264 611 264 611 252 611 c 2,63,-1
 241 611 l 1,48,49
EndSplineSet
EndChar

StartChar: S
Encoding: 83 83 17
Width: 445
Flags: W
HStem: -2 166<113.25 236.603> 614 134<262.483 376>
VStem: 41 194<490.643 581.366> 254 167<182.271 277.55>
LayerCount: 2
Fore
SplineSet
341 523 m 1,0,1
 343 531 343 531 344.5 539.5 c 128,-1,2
 346 548 346 548 346 556 c 0,3,4
 346 587 346 587 335 600.5 c 128,-1,5
 324 614 324 614 307 614 c 0,6,7
 299 614 299 614 287 608 c 128,-1,8
 275 602 275 602 263.5 592.5 c 128,-1,9
 252 583 252 583 243.5 569.5 c 128,-1,10
 235 556 235 556 235 541 c 0,11,12
 235 516 235 516 249 499.5 c 128,-1,13
 263 483 263 483 283.5 469 c 128,-1,14
 304 455 304 455 328 440 c 128,-1,15
 352 425 352 425 372.5 401.5 c 128,-1,16
 393 378 393 378 407 342.5 c 128,-1,17
 421 307 421 307 421 253 c 0,18,19
 421 196 421 196 399 149 c 128,-1,20
 377 102 377 102 339.5 68.5 c 128,-1,21
 302 35 302 35 251 16.5 c 128,-1,22
 200 -2 200 -2 142 -2 c 0,23,24
 101 -2 101 -2 60 20 c 128,-1,25
 19 42 19 42 -19 90 c 1,26,-1
 57 239 l 1,27,28
 64 225 64 225 78.5 211.5 c 128,-1,29
 93 198 93 198 111 187.5 c 128,-1,30
 129 177 129 177 147 170.5 c 128,-1,31
 165 164 165 164 179 164 c 0,32,33
 191 164 191 164 204.5 168 c 128,-1,34
 218 172 218 172 229 180 c 128,-1,35
 240 188 240 188 247 199 c 128,-1,36
 254 210 254 210 254 224 c 0,37,38
 254 249 254 249 238 270 c 128,-1,39
 222 291 222 291 198.5 310 c 128,-1,40
 175 329 175 329 147.5 348.5 c 128,-1,41
 120 368 120 368 96.5 389.5 c 128,-1,42
 73 411 73 411 57 437.5 c 128,-1,43
 41 464 41 464 41 497 c 0,44,45
 41 550 41 550 72.5 596 c 128,-1,46
 104 642 104 642 151.5 675.5 c 128,-1,47
 199 709 199 709 255.5 728.5 c 128,-1,48
 312 748 312 748 362 748 c 0,49,50
 390 748 390 748 414.5 741 c 128,-1,51
 439 734 439 734 457 719.5 c 128,-1,52
 475 705 475 705 485.5 682 c 128,-1,53
 496 659 496 659 496 626 c 0,54,55
 496 611 496 611 493.5 597 c 128,-1,56
 491 583 491 583 489 566 c 1,57,-1
 341 523 l 1,0,1
EndSplineSet
EndChar

StartChar: Z
Encoding: 90 90 18
Width: 487
Flags: W
HStem: 37 148<221.133 422.714> 41 156<221.629 423>
DStem2: -9 159 221 185 0.592157 0.805822<157.148 491.423>
LayerCount: 2
Fore
SplineSet
527 724 m 1,0,-1
 500 583 l 1,1,-1
 221 185 l 1,2,3
 241 185 241 185 275.5 187 c 128,-1,4
 310 189 310 189 344 191 c 0,5,6
 383 194 383 194 426 197 c 1,7,-1
 423 41 l 1,8,9
 414 41 414 41 384.5 40 c 128,-1,10
 355 39 355 39 314.5 37 c 128,-1,11
 274 35 274 35 227 32 c 128,-1,12
 180 29 180 29 135 25.5 c 128,-1,13
 90 22 90 22 51.5 17.5 c 128,-1,14
 13 13 13 13 -10 9 c 1,15,-1
 -9 159 l 1,16,-1
 282 555 l 1,17,18
 265 555 265 555 233 551.5 c 128,-1,19
 201 548 201 548 169 544 c 128,-1,20
 137 540 137 540 113 536.5 c 0,21,-1
 89 533 l 1,22,-1
 108 694 l 1,23,-1
 527 724 l 1,0,-1
EndSplineSet
EndChar

StartChar: Y
Encoding: 89 89 19
Width: 387
Flags: W
HStem: 734 20G<169.812 222>
LayerCount: 2
Fore
SplineSet
222 754 m 1,0,-1
 222 629 l 2,1,2
 222 603 222 603 222 576.5 c 128,-1,3
 222 550 222 550 221.5 524.5 c 128,-1,4
 221 499 221 499 221 476.5 c 128,-1,5
 221 454 221 454 221 438 c 1,6,7
 235 473 235 473 253.5 524 c 128,-1,8
 272 575 272 575 289 624 c 0,9,10
 308 680 308 680 329 742 c 1,11,-1
 488 707 l 1,12,13
 444 618 444 618 402 531 c 0,14,15
 384 494 384 494 364.5 453.5 c 128,-1,16
 345 413 345 413 325.5 372.5 c 128,-1,17
 306 332 306 332 287.5 294 c 128,-1,18
 269 256 269 256 254 223 c 1,19,20
 249 197 249 197 241.5 165 c 128,-1,21
 234 133 234 133 226 104 c 0,22,23
 217 71 217 71 207 37 c 1,24,-1
 32 15 l 1,25,-1
 79 221 l 1,26,27
 79 265 79 265 77.5 317 c 128,-1,28
 76 369 76 369 73 421 c 128,-1,29
 70 473 70 473 67 521.5 c 128,-1,30
 64 570 64 570 61.5 607.5 c 128,-1,31
 59 645 59 645 57 667.5 c 128,-1,32
 55 690 55 690 55 690 c 1,33,-1
 222 754 l 1,0,-1
EndSplineSet
EndChar

StartChar: J
Encoding: 74 74 20
Width: 333
Flags: W
HStem: -1 186<19.0212 102.824>
DStem2: 119 253.5 278 272 0.187566 0.982252<-72.699 511.349>
LayerCount: 2
Fore
SplineSet
28 211 m 1,0,1
 33 201 33 201 48 193 c 128,-1,2
 63 185 63 185 80 185 c 0,3,4
 93 185 93 185 102.5 205.5 c 128,-1,5
 112 226 112 226 119 253.5 c 128,-1,6
 126 281 126 281 130 309.5 c 128,-1,7
 134 338 134 338 137 355 c 0,8,9
 156 455 156 455 173.5 553.5 c 128,-1,10
 191 652 191 652 214 751 c 1,11,12
 260 755 260 755 305 763.5 c 128,-1,13
 350 772 350 772 395 784 c 1,14,15
 379 732 379 732 362.5 665.5 c 128,-1,16
 346 599 346 599 331 529.5 c 128,-1,17
 316 460 316 460 302 393 c 128,-1,18
 288 326 288 326 278 272 c 0,19,20
 269 227 269 227 255.5 178.5 c 128,-1,21
 242 130 242 130 220 90.5 c 128,-1,22
 198 51 198 51 167 25 c 128,-1,23
 136 -1 136 -1 93 -1 c 0,24,25
 64 -1 64 -1 30.5 11.5 c 128,-1,26
 -3 24 -3 24 -43 53 c 1,27,-1
 28 211 l 1,0,1
EndSplineSet
EndChar

StartChar: period
Encoding: 46 46 21
Width: 294
Flags: W
HStem: -24 198<43.5938 181.389>
VStem: 8 221<20.8125 137.967>
LayerCount: 2
Fore
SplineSet
98 -24 m 0,0,1
 76 -24 76 -24 59 -15.5 c 128,-1,2
 42 -7 42 -7 31 6.5 c 128,-1,3
 20 20 20 20 14 37.5 c 128,-1,4
 8 55 8 55 8 73 c 0,5,6
 8 92 8 92 14 110 c 128,-1,7
 20 128 20 128 33 142 c 128,-1,8
 46 156 46 156 65 165 c 128,-1,9
 84 174 84 174 110 174 c 0,10,11
 170 174 170 174 199.5 146 c 128,-1,12
 229 118 229 118 229 82 c 0,13,14
 229 62 229 62 220.5 43 c 128,-1,15
 212 24 212 24 195.5 9 c 128,-1,16
 179 -6 179 -6 154.5 -15 c 128,-1,17
 130 -24 130 -24 98 -24 c 0,0,1
EndSplineSet
EndChar

StartChar: V
Encoding: 86 86 22
Width: 398
Flags: W
HStem: 730 20G<230.5 236 464 469>
VStem: 77 159<640.295 744>
DStem2: 50 272 181 195 0.0982654 0.99516<-63.7546 470.871> 200 195 291 31 0.205104 0.97874<0 187.271>
LayerCount: 2
Fore
SplineSet
314 739 m 1,0,1
 342 740 342 740 371 742 c 0,2,3
 396 744 396 744 424 745.5 c 128,-1,4
 452 747 452 747 476 750 c 1,5,6
 462 705 462 705 447 650.5 c 128,-1,7
 432 596 432 596 416 537.5 c 128,-1,8
 400 479 400 479 385 418.5 c 128,-1,9
 370 358 370 358 356 302 c 0,10,11
 323 170 323 170 291 31 c 1,12,-1
 25 -9 l 1,13,14
 39 134 39 134 50 272 c 0,15,16
 55 330 55 330 59.5 393.5 c 128,-1,17
 64 457 64 457 67.5 519 c 128,-1,18
 71 581 71 581 73.5 638.5 c 128,-1,19
 76 696 76 696 77 744 c 1,20,21
 101 744 101 744 129 745 c 128,-1,22
 157 746 157 746 180.5 747.5 c 128,-1,23
 204 749 204 749 220 750.5 c 128,-1,24
 236 752 236 752 236 752 c 1,25,26
 225 633 225 633 214 526 c 0,27,28
 209 480 209 480 204.5 432.5 c 128,-1,29
 200 385 200 385 196 341 c 128,-1,30
 192 297 192 297 188 259 c 128,-1,31
 184 221 184 221 181 195 c 1,32,-1
 200 195 l 1,33,-1
 314 739 l 1,0,1
EndSplineSet
EndChar

StartChar: e
Encoding: 101 101 23
Width: 369
Flags: W
HStem: -1 21G<-25.3187 100.804> 332 112<212 338.837> 735 20G<197.571 425.5>
DStem2: -29 -1 163 143 0.181025 0.983479<176.378 373.436 481.275 668.752>
LayerCount: 2
Fore
SplineSet
-29 -1 m 1,0,-1
 105 727 l 1,1,-1
 429 755 l 1,2,3
 422 732 422 732 417 709 c 0,4,5
 412 689 412 689 407 668 c 128,-1,6
 402 647 402 647 399 631 c 1,7,8
 389 630 389 630 370 629.5 c 128,-1,9
 351 629 351 629 329.5 628.5 c 128,-1,10
 308 628 308 628 286 628 c 128,-1,11
 264 628 264 628 248 628 c 1,12,-1
 212 444 l 1,13,14
 244 446 244 446 271 447 c 0,15,16
 294 448 294 448 317.5 448.5 c 128,-1,17
 341 449 341 449 352 450 c 1,18,19
 348 421 348 421 344.5 393.5 c 128,-1,20
 341 366 341 366 336 337 c 1,21,22
 325 336 325 336 302 335.5 c 128,-1,23
 279 335 279 335 256 334 c 0,24,25
 229 333 229 333 198 332 c 1,26,-1
 163 143 l 1,27,-1
 312 167 l 1,28,-1
 302 50 l 1,29,-1
 -29 -1 l 1,0,-1
EndSplineSet
EndChar

StartChar: n
Encoding: 110 110 24
Width: 466
Flags: W
HStem: -5 21G<-18.5 51.7143> 731 20G<97 106 251.5 270>
VStem: 228 167<43 191.817>
DStem2: -34 -5 116 30 0.188506 0.982072<62.6485 430.977> 333 391 446 349 0.198814 0.980037<0 369.287>
LayerCount: 2
Fore
SplineSet
395 43 m 1,0,1
 392 43 392 43 371 38.5 c 128,-1,2
 350 34 350 34 323 28 c 128,-1,3
 296 22 296 22 269 15.5 c 128,-1,4
 242 9 242 9 228 4 c 1,5,6
 222 86 222 86 215 160 c 0,7,8
 212 191 212 191 208.5 224.5 c 128,-1,9
 205 258 205 258 201 288.5 c 128,-1,10
 197 319 197 319 192.5 346 c 128,-1,11
 188 373 188 373 184 392 c 1,12,13
 181 373 181 373 176 347.5 c 128,-1,14
 171 322 171 322 166 293 c 128,-1,15
 161 264 161 264 155.5 233 c 128,-1,16
 150 202 150 202 144 173 c 0,17,18
 131 104 131 104 116 30 c 1,19,-1
 -34 -5 l 1,20,21
 -3 142 -3 142 24 281 c 0,22,23
 35 340 35 340 46.5 403.5 c 128,-1,24
 58 467 58 467 68.5 529 c 128,-1,25
 79 591 79 591 87 648 c 128,-1,26
 95 705 95 705 99 751 c 1,27,28
 113 750 113 750 122 750 c 128,-1,29
 131 750 131 750 143 750 c 0,30,31
 158 750 158 750 178.5 750.5 c 128,-1,32
 199 751 199 751 218 752 c 0,33,34
 240 753 240 753 263 754 c 1,35,36
 277 682 277 682 289 615 c 0,37,38
 300 557 300 557 311.5 495.5 c 128,-1,39
 323 434 323 434 333 391 c 1,40,41
 337 412 337 412 342 439 c 128,-1,42
 347 466 347 466 353 495.5 c 128,-1,43
 359 525 359 525 365 555.5 c 128,-1,44
 371 586 371 586 377 615 c 0,45,46
 391 682 391 682 406 753 c 1,47,-1
 531 768 l 1,48,49
 497 611 497 611 470 471 c 0,50,51
 458 411 458 411 446 349 c 128,-1,52
 434 287 434 287 424 230 c 128,-1,53
 414 173 414 173 406.5 124.5 c 128,-1,54
 399 76 399 76 395 43 c 1,0,1
EndSplineSet
EndChar

StartChar: m
Encoding: 109 109 25
Width: 643
Flags: W
HStem: 723 20G<347 374.5>
DStem2: -60 6 109 17 0.298319 0.954466<60.915 444.085> 415.5 37.5 593 42 0.089297 0.996005<20.3322 350.864>
LayerCount: 2
Fore
SplineSet
334 358 m 1,0,1
 363 436 363 436 390 509 c 0,2,3
 402 540 402 540 414.5 572.5 c 128,-1,4
 427 605 427 605 439.5 636.5 c 128,-1,5
 452 668 452 668 464 696 c 128,-1,6
 476 724 476 724 486 745 c 1,7,8
 512 748 512 748 534.5 751 c 128,-1,9
 557 754 557 754 579.5 757.5 c 128,-1,10
 602 761 602 761 625 764.5 c 128,-1,11
 648 768 648 768 675 773 c 1,12,13
 665 714 665 714 656 651.5 c 128,-1,14
 647 589 647 589 639.5 527 c 128,-1,15
 632 465 632 465 625.5 404.5 c 128,-1,16
 619 344 619 344 614 290 c 0,17,18
 602 163 602 163 593 42 c 1,19,-1
 414 10 l 1,20,21
 414 15 414 15 415.5 37.5 c 128,-1,22
 417 60 417 60 420 93 c 128,-1,23
 423 126 423 126 427.5 166 c 128,-1,24
 432 206 432 206 436.5 246 c 128,-1,25
 441 286 441 286 446 323 c 128,-1,26
 451 360 451 360 456 387 c 1,27,-1
 447 387 l 1,28,29
 433 344 433 344 415.5 296.5 c 128,-1,30
 398 249 398 249 380 200 c 128,-1,31
 362 151 362 151 344.5 103.5 c 128,-1,32
 327 56 327 56 314 13 c 1,33,34
 278 12 278 12 252.5 10.5 c 128,-1,35
 227 9 227 9 193 7 c 1,36,-1
 226 387 l 1,37,-1
 211 387 l 1,38,39
 209 374 209 374 200.5 342.5 c 128,-1,40
 192 311 192 311 181.5 270.5 c 128,-1,41
 171 230 171 230 158.5 186.5 c 128,-1,42
 146 143 146 143 135.5 106 c 128,-1,43
 125 69 125 69 117.5 44.5 c 128,-1,44
 110 20 110 20 109 17 c 1,45,-1
 -60 6 l 1,46,47
 -15 142 -15 142 26 273 c 0,48,49
 44 329 44 329 62.5 389.5 c 128,-1,50
 81 450 81 450 99 509 c 128,-1,51
 117 568 117 568 133 623.5 c 128,-1,52
 149 679 149 679 161 726 c 1,53,54
 218 726 218 726 268 732 c 128,-1,55
 318 738 318 738 376 743 c 1,56,57
 373 721 373 721 369.5 693 c 128,-1,58
 366 665 366 665 361.5 634 c 128,-1,59
 357 603 357 603 352 570.5 c 128,-1,60
 347 538 347 538 343 507 c 0,61,62
 332 435 332 435 320 358 c 1,63,-1
 334 358 l 1,0,1
EndSplineSet
EndChar

StartChar: i
Encoding: 105 105 26
Width: 223
Flags: W
HStem: 1 21G<-37 -32>
VStem: -38 307
DStem2: -13.5 99 148.5 121.5 0.189049 0.981968<-56.0532 630.015>
LayerCount: 2
Fore
SplineSet
269 742 m 1,0,1
 242 605 242 605 216 473 c 0,2,3
 205 417 205 417 193 356.5 c 128,-1,4
 181 296 181 296 170 236.5 c 128,-1,5
 159 177 159 177 148.5 121.5 c 128,-1,6
 138 66 138 66 130 20 c 1,7,8
 121 20 121 20 94 17.5 c 128,-1,9
 67 15 67 15 38.5 11.5 c 128,-1,10
 10 8 10 8 -13 5 c 128,-1,11
 -36 2 -36 2 -38 1 c 1,12,13
 -26 45 -26 45 -13.5 99 c 128,-1,14
 -1 153 -1 153 11.5 211.5 c 128,-1,15
 24 270 24 270 36 330.5 c 128,-1,16
 48 391 48 391 59 447 c 0,17,18
 85 579 85 579 109 717 c 1,19,-1
 269 742 l 1,0,1
EndSplineSet
EndChar

StartChar: b
Encoding: 98 98 27
Width: 451
Flags: W
HStem: -4 21G<18 58> 611 147<237.645 329.438>
VStem: 311 119<247.772 341.336> 344 147<527.392 639>
DStem2: 44 363 167 203 0.178461 0.983947<-132.512 33.0124 156.192 279.176>
LayerCount: 2
Fore
SplineSet
430 257 m 0,0,1
 430 215 430 215 412.5 179 c 128,-1,2
 395 143 395 143 365.5 114 c 128,-1,3
 336 85 336 85 296.5 63 c 128,-1,4
 257 41 257 41 213.5 26 c 128,-1,5
 170 11 170 11 124.5 3.5 c 128,-1,6
 79 -4 79 -4 37 -4 c 0,7,8
 -1 -4 -1 -4 -34 2 c 1,9,10
 15 181 15 181 44 363 c 128,-1,11
 73 545 73 545 100 729 c 1,12,13
 153 740 153 740 210.5 749 c 128,-1,14
 268 758 268 758 329 758 c 0,15,16
 355 758 355 758 383.5 751.5 c 128,-1,17
 412 745 412 745 436 729 c 128,-1,18
 460 713 460 713 475.5 686 c 128,-1,19
 491 659 491 659 491 619 c 0,20,21
 491 580 491 580 478.5 546 c 128,-1,22
 466 512 466 512 446 484.5 c 128,-1,23
 426 457 426 457 400.5 437 c 128,-1,24
 375 417 375 417 348 407 c 1,25,26
 361 399 361 399 375.5 386 c 128,-1,27
 390 373 390 373 402 355 c 128,-1,28
 414 337 414 337 422 312.5 c 128,-1,29
 430 288 430 288 430 257 c 0,0,1
167 203 m 1,30,31
 186 205 186 205 210.5 210 c 128,-1,32
 235 215 235 215 257.5 226 c 128,-1,33
 280 237 280 237 295.5 254.5 c 128,-1,34
 311 272 311 272 311 298 c 0,35,36
 311 316 311 316 301.5 328.5 c 128,-1,37
 292 341 292 341 277 349 c 128,-1,38
 262 357 262 357 244.5 361 c 128,-1,39
 227 365 227 365 212 365 c 0,40,41
 207 365 207 365 203 365 c 128,-1,42
 199 365 199 365 195 364 c 1,43,44
 191 339 191 339 187.5 320 c 128,-1,45
 184 301 184 301 181 283.5 c 128,-1,46
 178 266 178 266 174.5 247 c 128,-1,47
 171 228 171 228 167 203 c 1,30,31
241 611 m 1,48,49
 239 600 239 600 236.5 584.5 c 128,-1,50
 234 569 234 569 231 552.5 c 128,-1,51
 228 536 228 536 224.5 519.5 c 128,-1,52
 221 503 221 503 219 490 c 1,53,54
 241 495 241 495 263.5 502 c 128,-1,55
 286 509 286 509 304 517.5 c 128,-1,56
 322 526 322 526 333 536.5 c 128,-1,57
 344 547 344 547 344 559 c 0,58,59
 344 574 344 574 334.5 584 c 128,-1,60
 325 594 325 594 310.5 600 c 128,-1,61
 296 606 296 606 280 608.5 c 128,-1,62
 264 611 264 611 252 611 c 2,63,-1
 241 611 l 1,48,49
EndSplineSet
EndChar

StartChar: h
Encoding: 104 104 28
Width: 442
Flags: W
HStem: -2 21G<-24.5 56.7576> 728 20G<88.5 103 505 512>
DStem2: -39 -2 119 31 0.177878 0.984053<60.5784 363.965 483.913 757.39>
LayerCount: 2
Fore
SplineSet
-39 -2 m 1,0,1
 -10 141 -10 141 16 278 c 0,2,3
 27 336 27 336 38 399 c 128,-1,4
 49 462 49 462 59 523.5 c 128,-1,5
 69 585 69 585 77.5 642.5 c 128,-1,6
 86 700 86 700 91 748 c 1,7,8
 115 746 115 746 135 744.5 c 128,-1,9
 155 743 155 743 174.5 742 c 128,-1,10
 194 741 194 741 214 740.5 c 128,-1,11
 234 740 234 740 257 740 c 1,12,13
 240 668 240 668 223 595 c 128,-1,14
 206 522 206 522 192 448 c 1,15,-1
 293 460 l 1,16,17
 307 532 307 532 318.5 600.5 c 128,-1,18
 330 669 330 669 348 741 c 1,19,20
 372 745 372 745 400.5 748 c 128,-1,21
 429 751 429 751 453.5 753 c 128,-1,22
 478 755 478 755 495 756.5 c 128,-1,23
 512 758 512 758 512 758 c 1,24,25
 498 712 498 712 485 657 c 128,-1,26
 472 602 472 602 460 543 c 128,-1,27
 448 484 448 484 436.5 424 c 128,-1,28
 425 364 425 364 416 309 c 0,29,30
 393 179 393 179 374 43 c 1,31,-1
 214 25 l 1,32,33
 227 86 227 86 238 144 c 0,34,35
 248 194 248 194 258.5 247 c 128,-1,36
 269 300 269 300 276 338 c 1,37,-1
 176 329 l 1,38,39
 169 290 169 290 159.5 238.5 c 128,-1,40
 150 187 150 187 141 141 c 0,41,42
 130 86 130 86 119 31 c 1,43,-1
 -39 -2 l 1,0,1
EndSplineSet
EndChar

StartChar: l
Encoding: 108 108 29
Width: 334
Flags: W
HStem: -2 21G<-18 -7> 33 114<161.422 268.49> 734 20G<140 276>
VStem: -21 311
DStem2: 56 457 214 422.5 0.214579 0.976707<-120.46 278.228>
LayerCount: 2
Fore
SplineSet
281 32 m 1,0,1
 273 32 273 32 265.5 32.5 c 128,-1,2
 258 33 258 33 250 33 c 0,3,4
 218 33 218 33 182.5 31 c 128,-1,5
 147 29 147 29 111.5 24.5 c 128,-1,6
 76 20 76 20 41.5 13.5 c 128,-1,7
 7 7 7 7 -21 -2 c 1,8,9
 -15 44 -15 44 -6.5 100.5 c 128,-1,10
 2 157 2 157 12.5 217 c 128,-1,11
 23 277 23 277 34 338.5 c 128,-1,12
 45 400 45 400 56 457 c 0,13,14
 82 591 82 591 110 730 c 1,15,-1
 290 754 l 1,16,17
 262 635 262 635 236 522 c 0,18,19
 225 474 225 474 214 422.5 c 128,-1,20
 203 371 203 371 192.5 321.5 c 128,-1,21
 182 272 182 272 174 226 c 128,-1,22
 166 180 166 180 161 144 c 1,23,24
 186 146 186 146 215 146.5 c 128,-1,25
 244 147 244 147 267 147 c 1,26,27
 268 128 268 128 270 109 c 128,-1,28
 272 90 272 90 274.5 74.5 c 128,-1,29
 277 59 277 59 278.5 47.5 c 128,-1,30
 280 36 280 36 281 32 c 1,0,1
EndSplineSet
EndChar

StartChar: t
Encoding: 116 116 30
Width: 365
Flags: W
HStem: -1 21G<60 174.897> 596 134<66.8126 156.25> 726 20G<424.5 440>
DStem2: 93 221 263 238 0.186318 0.98249<-163.722 233.177 322.524 377.195>
LayerCount: 2
Fore
SplineSet
66 733 m 1,0,1
 92 731 92 731 118.5 730 c 128,-1,2
 145 729 145 729 172 729 c 0,3,4
 224 729 224 729 273 731.5 c 128,-1,5
 322 734 322 734 360 737 c 0,6,7
 405 741 405 741 444 746 c 1,8,-1
 433 691 l 2,9,10
 428 668 428 668 423.5 643.5 c 128,-1,11
 419 619 419 619 415 601 c 1,12,13
 392 595 392 595 369 592.5 c 128,-1,14
 346 590 346 590 324 586 c 1,15,16
 316 551 316 551 308 508.5 c 128,-1,17
 300 466 300 466 292.5 420.5 c 128,-1,18
 285 375 285 375 277.5 328 c 128,-1,19
 270 281 270 281 263 238 c 0,20,21
 247 136 247 136 232 28 c 1,22,-1
 48 -1 l 1,23,24
 72 112 72 112 93 221 c 0,25,26
 102 267 102 267 111.5 317.5 c 128,-1,27
 121 368 121 368 129.5 416.5 c 128,-1,28
 138 465 138 465 145 510.5 c 128,-1,29
 152 556 152 556 157 594 c 1,30,31
 133 597 133 597 109 596 c 128,-1,32
 85 595 85 595 61 602 c 1,33,34
 62 618 62 618 62.5 640 c 128,-1,35
 63 662 63 662 64 683 c 0,36,37
 65 707 65 707 66 733 c 1,0,1
EndSplineSet
EndChar

StartChar: a
Encoding: 97 97 31
Width: 408
Flags: W
HStem: 2 21G<211 221.5> 175 105.5<163 227.892> 739 20G<385 417.5>
VStem: 237 157<284.234 523.18>
DStem2: -78 6 98 28 0.285762 0.958301<71.3768 223.963 328.568 460.895> 73.5 510.5 227 535 0.285762 0.958301<-125.141 158.246>
LayerCount: 2
Fore
SplineSet
139 175 m 1,0,-1
 98 28 l 1,1,2
 75 25 75 25 44.5 21 c 128,-1,3
 14 17 14 17 -13 14 c 0,4,5
 -46 10 -46 10 -78 6 c 1,6,7
 -37 142 -37 142 3 274 c 0,8,9
 20 330 20 330 38 390.5 c 128,-1,10
 56 451 56 451 73.5 510.5 c 128,-1,11
 91 570 91 570 107.5 625.5 c 128,-1,12
 124 681 124 681 137 727 c 1,13,14
 206 732 206 732 278.5 739 c 128,-1,15
 351 746 351 746 419 759 c 1,16,17
 416 726 416 726 412.5 677.5 c 128,-1,18
 409 629 409 629 406 571.5 c 128,-1,19
 403 514 403 514 400 451.5 c 128,-1,20
 397 389 397 389 394 329 c 0,21,22
 388 187 388 187 382 29 c 1,23,24
 352 24 352 24 321 20 c 0,25,26
 295 16 295 16 264.5 11 c 128,-1,27
 234 6 234 6 209 2 c 1,28,29
 213 36 213 36 217 69 c 0,30,31
 220 97 220 97 223 126 c 128,-1,32
 226 155 226 155 228 175 c 1,33,-1
 139 175 l 1,0,-1
250 623 m 1,34,-1
 227 535 l 1,35,-1
 163 277 l 1,36,37
 167 278 167 278 178 278.5 c 128,-1,38
 189 279 189 279 200.5 279.5 c 128,-1,39
 212 280 212 280 222.5 280.5 c 128,-1,40
 233 281 233 281 237 282 c 1,41,42
 237 288 237 288 238.5 302.5 c 128,-1,43
 240 317 240 317 241.5 336 c 128,-1,44
 243 355 243 355 245 377.5 c 128,-1,45
 247 400 247 400 249 422 c 0,46,47
 253 474 253 474 259 535 c 1,48,-1
 266 624 l 1,49,-1
 250 623 l 1,34,-1
EndSplineSet
EndChar

StartChar: f
Encoding: 102 102 32
Width: 370
Flags: W
HStem: -1 21G<-27 -20> 336.5 109.5<222 355.333> 628 126<307.41 415>
DStem2: 37 335 205 340 0.1606 0.98702<-239.553 34.838 138.283 324.047>
LayerCount: 2
Fore
SplineSet
158 38 m 1,0,1
 123 32 123 32 89 25 c 0,2,3
 60 19 60 19 26.5 12 c 128,-1,4
 -7 5 -7 5 -33 -1 c 1,5,6
 -21 43 -21 43 -9 98 c 128,-1,7
 3 153 3 153 14.5 213 c 128,-1,8
 26 273 26 273 37 335 c 128,-1,9
 48 397 48 397 58 455 c 0,10,11
 80 591 80 591 101 736 c 1,12,-1
 444 754 l 1,13,-1
 415 628 l 1,14,-1
 254 628 l 1,15,-1
 222 445 l 1,16,17
 254 446 254 446 282 446 c 0,18,19
 306 446 306 446 330.5 446 c 128,-1,20
 355 446 355 446 369 447 c 1,21,22
 365 419 365 419 360.5 391.5 c 128,-1,23
 356 364 356 364 352 336 c 1,24,25
 339 336 339 336 314.5 336.5 c 128,-1,26
 290 337 290 337 266 338 c 0,27,28
 237 339 237 339 205 340 c 1,29,-1
 158 38 l 1,0,1
EndSplineSet
EndChar

StartChar: W
Encoding: 87 87 33
Width: 590
Flags: W
HStem: -4 21G<-8.8542 101.105> 738 5G<221 242 676 680.5>
DStem2: 186 291 303 405 0.274431 0.961607<0 141.732>
LayerCount: 2
Fore
SplineSet
502 731 m 1,0,1
 537 736 537 736 571 740 c 0,2,3
 600 744 600 744 632 748.5 c 128,-1,4
 664 753 664 753 688 758 c 1,5,6
 673 715 673 715 657.5 662 c 128,-1,7
 642 609 642 609 626 551 c 128,-1,8
 610 493 610 493 595 433.5 c 128,-1,9
 580 374 580 374 566 318 c 0,10,11
 533 187 533 187 502 49 c 1,12,-1
 271 10 l 1,13,-1
 316 405 l 1,14,-1
 303 405 l 1,15,-1
 202 34 l 1,16,-1
 -11 -4 l 1,17,-1
 67 723 l 1,18,19
 115 725 115 725 157.5 732.5 c 128,-1,20
 200 740 200 740 242 743 c 1,21,22
 242 742 242 742 239 722 c 128,-1,23
 236 702 236 702 231 670 c 128,-1,24
 226 638 226 638 219.5 597.5 c 128,-1,25
 213 557 213 557 206 515 c 0,26,27
 190 416 190 416 170 291 c 1,28,-1
 186 291 l 1,29,30
 212 385 212 385 237 469 c 0,31,32
 247 505 247 505 258 542.5 c 128,-1,33
 269 580 269 580 278.5 614.5 c 128,-1,34
 288 649 288 649 296.5 679 c 128,-1,35
 305 709 305 709 311 729 c 1,36,-1
 320 729 l 2,37,38
 338 729 338 729 357 731 c 128,-1,39
 376 733 376 733 392 735 c 0,40,41
 410 738 410 738 428 742 c 1,42,43
 426 733 426 733 423.5 704.5 c 128,-1,44
 421 676 421 676 417 635.5 c 128,-1,45
 413 595 413 595 409 546.5 c 128,-1,46
 405 498 405 498 401 451 c 128,-1,47
 397 404 397 404 393 362 c 128,-1,48
 389 320 389 320 386 291 c 1,49,-1
 405 291 l 1,50,-1
 502 731 l 1,0,1
EndSplineSet
EndChar

StartChar: v
Encoding: 118 118 34
Width: 398
Flags: W
HStem: 730 20G<230.5 236 464 469>
VStem: 77 159<640.295 744>
DStem2: 50 272 181 195 0.0982654 0.99516<-63.7546 470.871> 200 195 291 31 0.205104 0.97874<0 187.271>
LayerCount: 2
Fore
SplineSet
314 739 m 1,0,1
 342 740 342 740 371 742 c 0,2,3
 396 744 396 744 424 745.5 c 128,-1,4
 452 747 452 747 476 750 c 1,5,6
 462 705 462 705 447 650.5 c 128,-1,7
 432 596 432 596 416 537.5 c 128,-1,8
 400 479 400 479 385 418.5 c 128,-1,9
 370 358 370 358 356 302 c 0,10,11
 323 170 323 170 291 31 c 1,12,-1
 25 -9 l 1,13,14
 39 134 39 134 50 272 c 0,15,16
 55 330 55 330 59.5 393.5 c 128,-1,17
 64 457 64 457 67.5 519 c 128,-1,18
 71 581 71 581 73.5 638.5 c 128,-1,19
 76 696 76 696 77 744 c 1,20,21
 101 744 101 744 129 745 c 128,-1,22
 157 746 157 746 180.5 747.5 c 128,-1,23
 204 749 204 749 220 750.5 c 128,-1,24
 236 752 236 752 236 752 c 1,25,26
 225 633 225 633 214 526 c 0,27,28
 209 480 209 480 204.5 432.5 c 128,-1,29
 200 385 200 385 196 341 c 128,-1,30
 192 297 192 297 188 259 c 128,-1,31
 184 221 184 221 181 195 c 1,32,-1
 200 195 l 1,33,-1
 314 739 l 1,0,1
EndSplineSet
EndChar

StartChar: x
Encoding: 120 120 35
Width: 406
Flags: W
HStem: -6 21G<-84 99.5> 727 20G<171.765 222.5>
VStem: 56 164<574.212 681.972>
LayerCount: 2
Fore
SplineSet
220 747 m 1,0,1
 225 698 225 698 232 640 c 128,-1,2
 239 582 239 582 244 532 c 1,3,4
 267 584 267 584 290 635 c 128,-1,5
 313 686 313 686 338 736 c 1,6,-1
 487 696 l 1,7,8
 460 651 460 651 438.5 613 c 128,-1,9
 417 575 417 575 397.5 537.5 c 128,-1,10
 378 500 378 500 358.5 460.5 c 128,-1,11
 339 421 339 421 317 373 c 1,12,13
 323 328 323 328 331 288 c 128,-1,14
 339 248 339 248 348.5 209 c 128,-1,15
 358 170 358 170 368 130.5 c 128,-1,16
 378 91 378 91 389 47 c 1,17,18
 387 46 387 46 375 43 c 128,-1,19
 363 40 363 40 344.5 35 c 128,-1,20
 326 30 326 30 304 23.5 c 128,-1,21
 282 17 282 17 261 11 c 128,-1,22
 240 5 240 5 221.5 -0.5 c 128,-1,23
 203 -6 203 -6 193 -10 c 1,24,25
 190 31 190 31 187 70 c 0,26,27
 185 103 185 103 182.5 137 c 128,-1,28
 180 171 180 171 179 194 c 1,29,30
 170 171 170 171 155 137 c 128,-1,31
 140 103 140 103 126 71 c 0,32,33
 109 33 109 33 90 -6 c 1,34,-1
 -84 9 l 1,35,36
 -33 100 -33 100 18.5 189.5 c 128,-1,37
 70 279 70 279 113 376 c 1,38,39
 107 422 107 422 101 458 c 128,-1,40
 95 494 95 494 88 528.5 c 128,-1,41
 81 563 81 563 73 598.5 c 128,-1,42
 65 634 65 634 56 679 c 1,43,-1
 220 747 l 1,0,1
EndSplineSet
EndChar

StartChar: w
Encoding: 119 119 36
Width: 590
Flags: W
HStem: -4 21G<-8.8542 101.105> 738 5G<221 242 676 680.5>
DStem2: 186 291 303 405 0.274431 0.961607<0 141.732>
LayerCount: 2
Fore
SplineSet
502 731 m 1,0,1
 537 736 537 736 571 740 c 0,2,3
 600 744 600 744 632 748.5 c 128,-1,4
 664 753 664 753 688 758 c 1,5,6
 673 715 673 715 657.5 662 c 128,-1,7
 642 609 642 609 626 551 c 128,-1,8
 610 493 610 493 595 433.5 c 128,-1,9
 580 374 580 374 566 318 c 0,10,11
 533 187 533 187 502 49 c 1,12,-1
 271 10 l 1,13,-1
 316 405 l 1,14,-1
 303 405 l 1,15,-1
 202 34 l 1,16,-1
 -11 -4 l 1,17,-1
 67 723 l 1,18,19
 115 725 115 725 157.5 732.5 c 128,-1,20
 200 740 200 740 242 743 c 1,21,22
 242 742 242 742 239 722 c 128,-1,23
 236 702 236 702 231 670 c 128,-1,24
 226 638 226 638 219.5 597.5 c 128,-1,25
 213 557 213 557 206 515 c 0,26,27
 190 416 190 416 170 291 c 1,28,-1
 186 291 l 1,29,30
 212 385 212 385 237 469 c 0,31,32
 247 505 247 505 258 542.5 c 128,-1,33
 269 580 269 580 278.5 614.5 c 128,-1,34
 288 649 288 649 296.5 679 c 128,-1,35
 305 709 305 709 311 729 c 1,36,-1
 320 729 l 2,37,38
 338 729 338 729 357 731 c 128,-1,39
 376 733 376 733 392 735 c 0,40,41
 410 738 410 738 428 742 c 1,42,43
 426 733 426 733 423.5 704.5 c 128,-1,44
 421 676 421 676 417 635.5 c 128,-1,45
 413 595 413 595 409 546.5 c 128,-1,46
 405 498 405 498 401 451 c 128,-1,47
 397 404 397 404 393 362 c 128,-1,48
 389 320 389 320 386 291 c 1,49,-1
 405 291 l 1,50,-1
 502 731 l 1,0,1
EndSplineSet
EndChar

StartChar: z
Encoding: 122 122 37
Width: 487
Flags: W
HStem: 37 148<221.133 422.714> 41 156<221.629 423>
DStem2: -9 159 221 185 0.592157 0.805822<157.148 491.423>
LayerCount: 2
Fore
SplineSet
527 724 m 1,0,-1
 500 583 l 1,1,-1
 221 185 l 1,2,3
 241 185 241 185 275.5 187 c 128,-1,4
 310 189 310 189 344 191 c 0,5,6
 383 194 383 194 426 197 c 1,7,-1
 423 41 l 1,8,9
 414 41 414 41 384.5 40 c 128,-1,10
 355 39 355 39 314.5 37 c 128,-1,11
 274 35 274 35 227 32 c 128,-1,12
 180 29 180 29 135 25.5 c 128,-1,13
 90 22 90 22 51.5 17.5 c 128,-1,14
 13 13 13 13 -10 9 c 1,15,-1
 -9 159 l 1,16,-1
 282 555 l 1,17,18
 265 555 265 555 233 551.5 c 128,-1,19
 201 548 201 548 169 544 c 128,-1,20
 137 540 137 540 113 536.5 c 0,21,-1
 89 533 l 1,22,-1
 108 694 l 1,23,-1
 527 724 l 1,0,-1
EndSplineSet
EndChar

StartChar: X
Encoding: 88 88 38
Width: 406
Flags: W
HStem: -6 21G<-84 99.5> 727 20G<171.765 222.5>
VStem: 56 164<574.212 681.972>
LayerCount: 2
Fore
SplineSet
220 747 m 1,0,1
 225 698 225 698 232 640 c 128,-1,2
 239 582 239 582 244 532 c 1,3,4
 267 584 267 584 290 635 c 128,-1,5
 313 686 313 686 338 736 c 1,6,-1
 487 696 l 1,7,8
 460 651 460 651 438.5 613 c 128,-1,9
 417 575 417 575 397.5 537.5 c 128,-1,10
 378 500 378 500 358.5 460.5 c 128,-1,11
 339 421 339 421 317 373 c 1,12,13
 323 328 323 328 331 288 c 128,-1,14
 339 248 339 248 348.5 209 c 128,-1,15
 358 170 358 170 368 130.5 c 128,-1,16
 378 91 378 91 389 47 c 1,17,18
 387 46 387 46 375 43 c 128,-1,19
 363 40 363 40 344.5 35 c 128,-1,20
 326 30 326 30 304 23.5 c 128,-1,21
 282 17 282 17 261 11 c 128,-1,22
 240 5 240 5 221.5 -0.5 c 128,-1,23
 203 -6 203 -6 193 -10 c 1,24,25
 190 31 190 31 187 70 c 0,26,27
 185 103 185 103 182.5 137 c 128,-1,28
 180 171 180 171 179 194 c 1,29,30
 170 171 170 171 155 137 c 128,-1,31
 140 103 140 103 126 71 c 0,32,33
 109 33 109 33 90 -6 c 1,34,-1
 -84 9 l 1,35,36
 -33 100 -33 100 18.5 189.5 c 128,-1,37
 70 279 70 279 113 376 c 1,38,39
 107 422 107 422 101 458 c 128,-1,40
 95 494 95 494 88 528.5 c 128,-1,41
 81 563 81 563 73 598.5 c 128,-1,42
 65 634 65 634 56 679 c 1,43,-1
 220 747 l 1,0,1
EndSplineSet
EndChar

StartChar: K
Encoding: 75 75 39
Width: 440
Flags: W
HStem: -1 21G<-26.5 90.8> 727 20G<85 99 542.5 544>
DStem2: -42 -1 124 24 0.187629 0.98224<55.7025 324.771 559.173 757.42> 222 520 330 426 0.538838 0.842409<0 280.008>
LayerCount: 2
Fore
SplineSet
176 288 m 1,0,1
 169 257 169 257 160.5 212 c 128,-1,2
 152 167 152 167 144 125 c 0,3,4
 134 76 134 76 124 24 c 1,5,-1
 -42 -1 l 1,6,7
 -11 142 -11 142 15 278 c 0,8,9
 26 336 26 336 37 398.5 c 128,-1,10
 48 461 48 461 58 522.5 c 128,-1,11
 68 584 68 584 75.5 641.5 c 128,-1,12
 83 699 83 699 87 747 c 1,13,14
 111 744 111 744 140.5 742.5 c 128,-1,15
 170 741 170 741 196 739 c 0,16,17
 226 737 226 737 257 737 c 1,18,19
 256 733 256 733 254 722 c 128,-1,20
 252 711 252 711 249 695 c 128,-1,21
 246 679 246 679 242.5 659.5 c 128,-1,22
 239 640 239 640 235 621 c 0,23,24
 226 575 226 575 216 519 c 1,25,-1
 222 520 l 1,26,27
 233 537 233 537 251.5 566 c 128,-1,28
 270 595 270 595 290.5 627.5 c 128,-1,29
 311 660 311 660 330.5 690.5 c 128,-1,30
 350 721 350 721 364 742 c 1,31,32
 415 746 415 746 466 751.5 c 128,-1,33
 517 757 517 757 568 765 c 1,34,35
 520 700 520 700 475 638 c 0,36,37
 456 611 456 611 436 582.5 c 128,-1,38
 416 554 416 554 396.5 526.5 c 128,-1,39
 377 499 377 499 360 473 c 128,-1,40
 343 447 343 447 330 426 c 1,41,42
 352 323 352 323 383 226.5 c 128,-1,43
 414 130 414 130 446 30 c 1,44,45
 422 31 422 31 397.5 31.5 c 128,-1,46
 373 32 373 32 349 32 c 0,47,48
 320 32 320 32 292 31.5 c 128,-1,49
 264 31 264 31 235 30 c 1,50,51
 225 96 225 96 214.5 169.5 c 128,-1,52
 204 243 204 243 195 309 c 1,53,-1
 176 288 l 1,0,1
EndSplineSet
EndChar

StartChar: y
Encoding: 121 121 40
Width: 387
Flags: W
HStem: 734 20G<169.812 222>
LayerCount: 2
Fore
SplineSet
222 754 m 1,0,-1
 222 629 l 2,1,2
 222 603 222 603 222 576.5 c 128,-1,3
 222 550 222 550 221.5 524.5 c 128,-1,4
 221 499 221 499 221 476.5 c 128,-1,5
 221 454 221 454 221 438 c 1,6,7
 235 473 235 473 253.5 524 c 128,-1,8
 272 575 272 575 289 624 c 0,9,10
 308 680 308 680 329 742 c 1,11,-1
 488 707 l 1,12,13
 444 618 444 618 402 531 c 0,14,15
 384 494 384 494 364.5 453.5 c 128,-1,16
 345 413 345 413 325.5 372.5 c 128,-1,17
 306 332 306 332 287.5 294 c 128,-1,18
 269 256 269 256 254 223 c 1,19,20
 249 197 249 197 241.5 165 c 128,-1,21
 234 133 234 133 226 104 c 0,22,23
 217 71 217 71 207 37 c 1,24,-1
 32 15 l 1,25,-1
 79 221 l 1,26,27
 79 265 79 265 77.5 317 c 128,-1,28
 76 369 76 369 73 421 c 128,-1,29
 70 473 70 473 67 521.5 c 128,-1,30
 64 570 64 570 61.5 607.5 c 128,-1,31
 59 645 59 645 57 667.5 c 128,-1,32
 55 690 55 690 55 690 c 1,33,-1
 222 754 l 1,0,-1
EndSplineSet
EndChar

StartChar: k
Encoding: 107 107 41
Width: 440
Flags: W
HStem: -1 21G<-26.5 90.8> 727 20G<85 99 542.5 544>
DStem2: -42 -1 124 24 0.187629 0.98224<55.7025 324.771 559.173 757.42> 222 520 330 426 0.538838 0.842409<0 280.008>
LayerCount: 2
Fore
SplineSet
176 288 m 1,0,1
 169 257 169 257 160.5 212 c 128,-1,2
 152 167 152 167 144 125 c 0,3,4
 134 76 134 76 124 24 c 1,5,-1
 -42 -1 l 1,6,7
 -11 142 -11 142 15 278 c 0,8,9
 26 336 26 336 37 398.5 c 128,-1,10
 48 461 48 461 58 522.5 c 128,-1,11
 68 584 68 584 75.5 641.5 c 128,-1,12
 83 699 83 699 87 747 c 1,13,14
 111 744 111 744 140.5 742.5 c 128,-1,15
 170 741 170 741 196 739 c 0,16,17
 226 737 226 737 257 737 c 1,18,19
 256 733 256 733 254 722 c 128,-1,20
 252 711 252 711 249 695 c 128,-1,21
 246 679 246 679 242.5 659.5 c 128,-1,22
 239 640 239 640 235 621 c 0,23,24
 226 575 226 575 216 519 c 1,25,-1
 222 520 l 1,26,27
 233 537 233 537 251.5 566 c 128,-1,28
 270 595 270 595 290.5 627.5 c 128,-1,29
 311 660 311 660 330.5 690.5 c 128,-1,30
 350 721 350 721 364 742 c 1,31,32
 415 746 415 746 466 751.5 c 128,-1,33
 517 757 517 757 568 765 c 1,34,35
 520 700 520 700 475 638 c 0,36,37
 456 611 456 611 436 582.5 c 128,-1,38
 416 554 416 554 396.5 526.5 c 128,-1,39
 377 499 377 499 360 473 c 128,-1,40
 343 447 343 447 330 426 c 1,41,42
 352 323 352 323 383 226.5 c 128,-1,43
 414 130 414 130 446 30 c 1,44,45
 422 31 422 31 397.5 31.5 c 128,-1,46
 373 32 373 32 349 32 c 0,47,48
 320 32 320 32 292 31.5 c 128,-1,49
 264 31 264 31 235 30 c 1,50,51
 225 96 225 96 214.5 169.5 c 128,-1,52
 204 243 204 243 195 309 c 1,53,-1
 176 288 l 1,0,1
EndSplineSet
EndChar

StartChar: F
Encoding: 70 70 42
Width: 370
Flags: W
HStem: -1 21G<-27 -20> 336.5 109.5<222 355.333> 628 126<307.41 415>
DStem2: 37 335 205 340 0.1606 0.98702<-239.553 34.838 138.283 324.047>
LayerCount: 2
Fore
SplineSet
158 38 m 1,0,1
 123 32 123 32 89 25 c 0,2,3
 60 19 60 19 26.5 12 c 128,-1,4
 -7 5 -7 5 -33 -1 c 1,5,6
 -21 43 -21 43 -9 98 c 128,-1,7
 3 153 3 153 14.5 213 c 128,-1,8
 26 273 26 273 37 335 c 128,-1,9
 48 397 48 397 58 455 c 0,10,11
 80 591 80 591 101 736 c 1,12,-1
 444 754 l 1,13,-1
 415 628 l 1,14,-1
 254 628 l 1,15,-1
 222 445 l 1,16,17
 254 446 254 446 282 446 c 0,18,19
 306 446 306 446 330.5 446 c 128,-1,20
 355 446 355 446 369 447 c 1,21,22
 365 419 365 419 360.5 391.5 c 128,-1,23
 356 364 356 364 352 336 c 1,24,25
 339 336 339 336 314.5 336.5 c 128,-1,26
 290 337 290 337 266 338 c 0,27,28
 237 339 237 339 205 340 c 1,29,-1
 158 38 l 1,0,1
EndSplineSet
EndChar

StartChar: N
Encoding: 78 78 43
Width: 466
Flags: W
HStem: -5 21G<-19.5 51.7143> 734 20G<252.5 269.5>
VStem: 228 167<56 202.72>
DStem2: -34 -5 116 30 0.181104 0.983464<61.5868 446.635> 329 367 446 357.5 0.202763 0.979228<0 393.595>
LayerCount: 2
Fore
SplineSet
395 56 m 1,0,1
 392 56 392 56 371 51.5 c 128,-1,2
 350 47 350 47 323 41 c 128,-1,3
 296 35 296 35 269 28.5 c 128,-1,4
 242 22 242 22 228 17 c 1,5,6
 221 100 221 100 213 175 c 0,7,8
 210 207 210 207 206 240.5 c 128,-1,9
 202 274 202 274 198.5 305 c 128,-1,10
 195 336 195 336 191 363 c 128,-1,11
 187 390 187 390 184 409 c 1,12,13
 181 390 181 390 176 363.5 c 128,-1,14
 171 337 171 337 166 306.5 c 128,-1,15
 161 276 161 276 155.5 244 c 128,-1,16
 150 212 150 212 144 181 c 0,17,18
 131 109 131 109 116 30 c 1,19,-1
 -34 -5 l 1,20,21
 -5 139 -5 139 21 276 c 0,22,23
 32 334 32 334 43.5 397 c 128,-1,24
 55 460 55 460 65.5 521 c 128,-1,25
 76 582 76 582 84.5 638.5 c 128,-1,26
 93 695 93 695 98 742 c 1,27,28
 130 744 130 744 160 747 c 0,29,30
 186 749 186 749 214 750.5 c 128,-1,31
 242 752 242 752 263 754 c 1,32,33
 276 675 276 675 287 603 c 0,34,35
 292 572 292 572 297.5 539 c 128,-1,36
 303 506 303 506 308 475 c 128,-1,37
 313 444 313 444 318.5 416 c 128,-1,38
 324 388 324 388 329 367 c 1,39,40
 333 388 333 388 338 416 c 128,-1,41
 343 444 343 444 349 475.5 c 128,-1,42
 355 507 355 507 362 539.5 c 128,-1,43
 369 572 369 572 375 603 c 0,44,45
 390 675 390 675 406 753 c 1,46,-1
 531 768 l 1,47,48
 497 614 497 614 470 477 c 0,49,50
 458 418 458 418 446 357.5 c 128,-1,51
 434 297 434 297 424 240.5 c 128,-1,52
 414 184 414 184 406.5 136.5 c 128,-1,53
 399 89 399 89 395 56 c 1,0,1
EndSplineSet
EndChar

StartChar: grave
Encoding: 96 96 44
Width: 373
Flags: W
HStem: 13 317
VStem: 28 267
LayerCount: 2
Fore
SplineSet
28 79 m 1,0,1
 34 109 34 109 42 151.5 c 128,-1,2
 50 194 50 194 58 234 c 0,3,4
 67 281 67 281 76 330 c 1,5,6
 116 287 116 287 156 246 c 0,7,8
 190 211 190 211 228 170 c 128,-1,9
 266 129 266 129 295 96 c 1,10,-1
 288 13 l 1,11,12
 236 25 236 25 188 37 c 0,13,14
 146 47 146 47 102 58.5 c 128,-1,15
 58 70 58 70 28 79 c 1,0,1
EndSplineSet
EndChar

StartChar: o
Encoding: 111 111 45
Width: 495
Flags: W
HStem: -4 169<121.5 231.927> 551 215<275.603 395.672>
VStem: -15 152<180.544 359.09> 384 142<377.688 630>
LayerCount: 2
Fore
SplineSet
384 468 m 0,0,1
 384 480 384 480 382.5 494.5 c 128,-1,2
 381 509 381 509 376.5 521.5 c 128,-1,3
 372 534 372 534 362 542.5 c 128,-1,4
 352 551 352 551 336 551 c 0,5,6
 303 551 303 551 275.5 534.5 c 128,-1,7
 248 518 248 518 226 491 c 128,-1,8
 204 464 204 464 187.5 429.5 c 128,-1,9
 171 395 171 395 159.5 360 c 128,-1,10
 148 325 148 325 142.5 291 c 128,-1,11
 137 257 137 257 137 232 c 0,12,13
 137 221 137 221 141 209 c 128,-1,14
 145 197 145 197 152.5 187.5 c 128,-1,15
 160 178 160 178 170.5 171.5 c 128,-1,16
 181 165 181 165 194 165 c 0,17,18
 240 165 240 165 275.5 196.5 c 128,-1,19
 311 228 311 228 335 274 c 128,-1,20
 359 320 359 320 371.5 372.5 c 128,-1,21
 384 425 384 425 384 468 c 0,0,1
526 554 m 0,22,23
 526 470 526 470 508.5 396 c 128,-1,24
 491 322 491 322 461 260 c 128,-1,25
 431 198 431 198 391.5 149 c 128,-1,26
 352 100 352 100 309 66 c 128,-1,27
 266 32 266 32 222 14 c 128,-1,28
 178 -4 178 -4 138 -4 c 0,29,30
 105 -4 105 -4 77 8.5 c 128,-1,31
 49 21 49 21 28.5 46.5 c 128,-1,32
 8 72 8 72 -3.5 111.5 c 128,-1,33
 -15 151 -15 151 -15 206 c 0,34,35
 -15 263 -15 263 -1 326.5 c 128,-1,36
 13 390 13 390 38 452.5 c 128,-1,37
 63 515 63 515 98.5 571.5 c 128,-1,38
 134 628 134 628 177 671.5 c 128,-1,39
 220 715 220 715 269.5 740.5 c 128,-1,40
 319 766 319 766 372 766 c 0,41,42
 418 766 418 766 448 747 c 128,-1,43
 478 728 478 728 495 698 c 128,-1,44
 512 668 512 668 519 630 c 128,-1,45
 526 592 526 592 526 554 c 0,22,23
EndSplineSet
EndChar

StartChar: u
Encoding: 117 117 46
Width: 435
Flags: W
HStem: -18 144<123 217.574> 724 20G<255.5 258>
DStem2: 54 478 206 434 0.204904 0.978782<-129.322 262.6> 242 212 415 308 0.190191 0.981747<-84.8501 529.528>
LayerCount: 2
Fore
SplineSet
102 728 m 1,0,1
 124 730 124 730 153.5 733 c 128,-1,2
 183 736 183 736 209 738 c 0,3,4
 240 741 240 741 271 744 c 1,5,6
 245 621 245 621 224 520 c 0,7,8
 215 477 215 477 206 434 c 128,-1,9
 197 391 197 391 189.5 355 c 128,-1,10
 182 319 182 319 176.5 293 c 128,-1,11
 171 267 171 267 169 258 c 0,12,13
 164 234 164 234 159 209 c 128,-1,14
 154 184 154 184 154 164 c 0,15,16
 154 147 154 147 162.5 136.5 c 128,-1,17
 171 126 171 126 183 126 c 0,18,19
 200 126 200 126 211.5 140 c 128,-1,20
 223 154 223 154 230.5 173 c 128,-1,21
 238 192 238 192 242 212 c 128,-1,22
 246 232 246 232 249 244 c 0,23,24
 255 273 255 273 262.5 309.5 c 128,-1,25
 270 346 270 346 277.5 385.5 c 128,-1,26
 285 425 285 425 293 466 c 128,-1,27
 301 507 301 507 308 546 c 0,28,29
 325 636 325 636 342 732 c 1,30,-1
 497 742 l 1,31,32
 497 742 497 742 492 715.5 c 128,-1,33
 487 689 487 689 479 645 c 128,-1,34
 471 601 471 601 461 544.5 c 128,-1,35
 451 488 451 488 439 427.5 c 128,-1,36
 427 367 427 367 415 308 c 128,-1,37
 403 249 403 249 392 200 c 0,38,39
 378 141 378 141 351.5 100 c 128,-1,40
 325 59 325 59 290 32.5 c 128,-1,41
 255 6 255 6 215 -6 c 128,-1,42
 175 -18 175 -18 135 -18 c 0,43,44
 111 -18 111 -18 86.5 -10.5 c 128,-1,45
 62 -3 62 -3 42.5 12.5 c 128,-1,46
 23 28 23 28 10.5 51.5 c 128,-1,47
 -2 75 -2 75 -2 107 c 0,48,49
 -2 111 -2 111 -2 115 c 128,-1,50
 -2 119 -2 119 -1 123 c 0,51,52
 3 165 3 165 12 224.5 c 128,-1,53
 21 284 21 284 31.5 348.5 c 128,-1,54
 42 413 42 413 54 478 c 128,-1,55
 66 543 66 543 76 596 c 128,-1,56
 86 649 86 649 93 684.5 c 128,-1,57
 100 720 100 720 102 728 c 1,0,1
EndSplineSet
EndChar

StartChar: exclam
Encoding: 33 33 47
Width: 300
Flags: W
HStem: -24 198<3.59375 141.389> 745 20G<342.5 362>
VStem: -32 221<20.8125 137.967>
LayerCount: 2
Fore
SplineSet
370 765 m 1,0,1
 315 636 315 636 269.5 505.5 c 128,-1,2
 224 375 224 375 179 243 c 1,3,4
 149 243 149 243 119.5 241 c 128,-1,5
 90 239 90 239 60 237 c 1,6,7
 92 362 92 362 122 487 c 128,-1,8
 152 612 152 612 185 738 c 1,9,10
 204 741 204 741 229.5 744.5 c 128,-1,11
 255 748 255 748 280.5 752 c 128,-1,12
 306 756 306 756 330 759 c 128,-1,13
 354 762 354 762 370 765 c 1,0,1
58 -24 m 0,14,15
 36 -24 36 -24 19 -15.5 c 128,-1,16
 2 -7 2 -7 -9 6.5 c 128,-1,17
 -20 20 -20 20 -26 37.5 c 128,-1,18
 -32 55 -32 55 -32 73 c 0,19,20
 -32 92 -32 92 -26 110 c 128,-1,21
 -20 128 -20 128 -7 142 c 128,-1,22
 6 156 6 156 25 165 c 128,-1,23
 44 174 44 174 70 174 c 0,24,25
 130 174 130 174 159.5 146 c 128,-1,26
 189 118 189 118 189 82 c 0,27,28
 189 62 189 62 180.5 43 c 128,-1,29
 172 24 172 24 155.5 9 c 128,-1,30
 139 -6 139 -6 114.5 -15 c 128,-1,31
 90 -24 90 -24 58 -24 c 0,14,15
EndSplineSet
EndChar

StartChar: quotedbl
Encoding: 34 34 48
Width: 495
Flags: W
DStem2: 322 580 433 471 0.375193 0.926947<-59.3908 221.447>
LayerCount: 2
Fore
SplineSet
330 802 m 1,0,1
 312 760 312 760 289.5 703 c 128,-1,2
 267 646 267 646 248 594 c 0,3,4
 225 533 225 533 203 470 c 1,5,-1
 59 451 l 1,6,7
 77 519 77 519 95 583 c 0,8,9
 102 610 102 610 110 639.5 c 128,-1,10
 118 669 118 669 125.5 697.5 c 128,-1,11
 133 726 133 726 139.5 752 c 128,-1,12
 146 778 146 778 151 799 c 1,13,14
 160 798 160 798 168.5 798 c 128,-1,15
 177 798 177 798 185 798 c 0,16,17
 223 798 223 798 256.5 800 c 128,-1,18
 290 802 290 802 330 802 c 1,0,1
569 807 m 1,19,20
 550 756 550 756 527 698 c 128,-1,21
 504 640 504 640 483 589 c 0,22,23
 458 530 458 530 433 471 c 1,24,-1
 277 461 l 1,25,26
 300 521 300 521 322 580 c 0,27,28
 341 631 341 631 361 687.5 c 128,-1,29
 381 744 381 744 395 791 c 1,30,31
 421 792 421 792 442 793.5 c 128,-1,32
 463 795 463 795 482.5 797 c 128,-1,33
 502 799 502 799 522.5 801.5 c 128,-1,34
 543 804 543 804 569 807 c 1,19,20
EndSplineSet
EndChar

StartChar: numbersign
Encoding: 35 35 49
Width: 688
Flags: W
HStem: -5 21G<36 51> 162 160<261.33 338 518 520.688> 739 20G<601 618>
DStem2: 165 623 309 560 0.187191 0.982324<-285.568 -266.806 -265.948 -218.313 -34.9309 106.701> 378.5 361 518 322 0.212914 0.977071<-8.40427 54.2333 252.459 327.618>
LayerCount: 2
Fore
SplineSet
630 329 m 1,0,1
 626 304 626 304 623 284 c 128,-1,2
 620 264 620 264 617 245.5 c 128,-1,3
 614 227 614 227 610.5 207 c 128,-1,4
 607 187 607 187 604 162 c 1,5,6
 601 162 601 162 595.5 162.5 c 128,-1,7
 590 163 590 163 582 163 c 0,8,9
 571 163 571 163 557.5 162.5 c 128,-1,10
 544 162 544 162 531 162 c 128,-1,11
 518 162 518 162 507 161.5 c 128,-1,12
 496 161 496 161 492 161 c 1,13,14
 485 126 485 126 480 91 c 128,-1,15
 475 56 475 56 468 21 c 1,16,17
 384 24 384 24 303 24 c 1,18,19
 312 58 312 58 321 91.5 c 128,-1,20
 330 125 330 125 338 160 c 1,21,22
 332 160 332 160 316 159 c 128,-1,23
 300 158 300 158 282 156.5 c 128,-1,24
 264 155 264 155 248 154 c 128,-1,25
 232 153 232 153 226 153 c 1,26,27
 220 117 220 117 213 81.5 c 128,-1,28
 206 46 206 46 197 11 c 1,29,30
 155 9 155 9 113.5 5.5 c 128,-1,31
 72 2 72 2 30 -5 c 1,32,33
 42 32 42 32 53 69 c 128,-1,34
 64 106 64 106 74 143 c 1,35,36
 63 143 63 143 44.5 142 c 128,-1,37
 26 141 26 141 15 141 c 1,38,-1
 33 310 l 1,39,40
 37 310 37 310 48 310.5 c 128,-1,41
 59 311 59 311 72 312 c 128,-1,42
 85 313 85 313 96 313.5 c 128,-1,43
 107 314 107 314 111 314 c 1,44,45
 113 322 113 322 115 334.5 c 128,-1,46
 117 347 117 347 119.5 360.5 c 128,-1,47
 122 374 122 374 124 387 c 128,-1,48
 126 400 126 400 127 408 c 1,49,-1
 57 408 l 1,50,51
 58 419 58 419 60.5 443 c 128,-1,52
 63 467 63 467 65 491 c 0,53,54
 68 519 68 519 71 551 c 1,55,-1
 152 556 l 1,56,57
 159 590 159 590 165 623 c 0,58,59
 170 651 170 651 175 680 c 128,-1,60
 180 709 180 709 184 728 c 1,61,62
 196 729 196 729 215 730.5 c 128,-1,63
 234 732 234 732 256.5 734 c 128,-1,64
 279 736 279 736 303 738 c 128,-1,65
 327 740 327 740 348 741 c 1,66,67
 343 724 343 724 336.5 694 c 128,-1,68
 330 664 330 664 324 634 c 0,69,70
 317 599 317 599 309 560 c 1,71,-1
 421 566 l 1,72,73
 429 603 429 603 437 637 c 0,74,75
 444 666 444 666 451.5 696 c 128,-1,76
 459 726 459 726 464 743 c 1,77,78
 503 745 503 745 542 749.5 c 128,-1,79
 581 754 581 754 621 759 c 1,80,81
 615 741 615 741 607 710 c 128,-1,82
 599 679 599 679 591 650 c 0,83,84
 582 615 582 615 573 577 c 1,85,-1
 676 581 l 1,86,87
 669 554 669 554 663 527 c 0,88,89
 658 504 658 504 652.5 475.5 c 128,-1,90
 647 447 647 447 643 421 c 1,91,-1
 536 415 l 1,92,93
 534 406 534 406 531.5 394 c 128,-1,94
 529 382 529 382 527 369 c 128,-1,95
 525 356 525 356 522.5 343.5 c 128,-1,96
 520 331 520 331 518 322 c 1,97,-1
 630 329 l 1,0,1
261 314 m 1,98,99
 265 314 265 314 279.5 315 c 128,-1,100
 294 316 294 316 310.5 317 c 128,-1,101
 327 318 327 318 342.5 319 c 128,-1,102
 358 320 358 320 365 320 c 0,103,104
 368 320 368 320 371.5 332.5 c 128,-1,105
 375 345 375 345 378.5 361 c 128,-1,106
 382 377 382 377 385 392.5 c 128,-1,107
 388 408 388 408 390 414 c 1,108,109
 386 414 386 414 370 413 c 128,-1,110
 354 412 354 412 336 411 c 128,-1,111
 318 410 318 410 302 409 c 128,-1,112
 286 408 286 408 282 408 c 1,113,-1
 261 314 l 1,98,99
EndSplineSet
EndChar

StartChar: dollar
Encoding: 36 36 50
Width: 470
Flags: W
VStem: 55 180<497.432 579.132> 107 128<-62 18.2402> 229 192<191.387 298.315>
LayerCount: 2
Fore
SplineSet
334 514 m 1,0,1
 336 526 336 526 337 530 c 128,-1,2
 338 534 338 534 338 537 c 0,3,4
 338 568 338 568 326 581.5 c 128,-1,5
 314 595 314 595 298 595 c 0,6,7
 288 595 288 595 277 590.5 c 128,-1,8
 266 586 266 586 256.5 578.5 c 128,-1,9
 247 571 247 571 241 560 c 128,-1,10
 235 549 235 549 235 537 c 0,11,12
 235 520 235 520 249 505.5 c 128,-1,13
 263 491 263 491 283.5 475.5 c 128,-1,14
 304 460 304 460 328 441.5 c 128,-1,15
 352 423 352 423 372.5 398.5 c 128,-1,16
 393 374 393 374 407 341 c 128,-1,17
 421 308 421 308 421 264 c 0,18,19
 421 222 421 222 407.5 185.5 c 128,-1,20
 394 149 394 149 370 119.5 c 128,-1,21
 346 90 346 90 314 68.5 c 128,-1,22
 282 47 282 47 245 35 c 1,23,24
 241 6 241 6 238 -22.5 c 128,-1,25
 235 -51 235 -51 235 -62 c 1,26,-1
 107 -74 l 1,27,28
 110 -58 110 -58 114 -41 c 0,29,30
 117 -27 117 -27 121 -10.5 c 128,-1,31
 125 6 125 6 130 20 c 1,32,33
 93 24 93 24 55.5 45.5 c 128,-1,34
 18 67 18 67 -17 111 c 1,35,-1
 57 260 l 1,36,37
 64 246 64 246 76 231 c 128,-1,38
 88 216 88 216 102 203 c 128,-1,39
 116 190 116 190 131 182 c 128,-1,40
 146 174 146 174 160 174 c 0,41,42
 186 174 186 174 207.5 191 c 128,-1,43
 229 208 229 208 229 250 c 0,44,45
 229 268 229 268 216 286.5 c 128,-1,46
 203 305 203 305 184 324 c 128,-1,47
 165 343 165 343 142 364 c 128,-1,48
 119 385 119 385 100 408 c 128,-1,49
 81 431 81 431 68 456.5 c 128,-1,50
 55 482 55 482 55 511 c 0,51,52
 55 542 55 542 69 571 c 128,-1,53
 83 600 83 600 107 624.5 c 128,-1,54
 131 649 131 649 162 668.5 c 128,-1,55
 193 688 193 688 226 702 c 1,56,57
 234 740 234 740 241 765 c 128,-1,58
 248 790 248 790 256 816 c 1,59,-1
 396 832 l 1,60,-1
 355 729 l 1,61,62
 383 728 383 728 407 720.5 c 128,-1,63
 431 713 431 713 449 698 c 128,-1,64
 467 683 467 683 477 659.5 c 128,-1,65
 487 636 487 636 487 603 c 0,66,67
 487 589 487 589 485 575.5 c 128,-1,68
 483 562 483 562 481 547 c 1,69,-1
 334 514 l 1,0,1
EndSplineSet
EndChar

StartChar: percent
Encoding: 37 37 51
Width: 779
Flags: W
HStem: 20 125<552.716 638.064> 311 125<157.716 243.064> 327 166<592.23 673.811> 618 166<197.093 278.81>
VStem: 28 123<444.467 562.556> 289 99<494.393 639.5> 423 123<153.467 271.449> 684 100<203.393 348.5>
DStem2: 93.5 59 226 -30 0.556936 0.830556<-0.125499 424.497 539.875 869.802>
LayerCount: 2
Fore
SplineSet
555 20 m 0,0,1
 520 20 520 20 495 31.5 c 128,-1,2
 470 43 470 43 454 62.5 c 128,-1,3
 438 82 438 82 430.5 108.5 c 128,-1,4
 423 135 423 135 423 165 c 0,5,6
 423 203 423 203 433 243.5 c 128,-1,7
 443 284 443 284 462 323 c 1,8,9
 414 252 414 252 371.5 188.5 c 128,-1,10
 329 125 329 125 297 76 c 0,11,12
 259 19 259 19 226 -30 c 1,13,-1
 56 10 l 1,14,15
 67 22 67 22 93.5 59 c 128,-1,16
 120 96 120 96 156.5 148.5 c 128,-1,17
 193 201 193 201 236 264.5 c 128,-1,18
 279 328 279 328 323.5 393.5 c 128,-1,19
 368 459 368 459 410.5 522 c 128,-1,20
 453 585 453 585 487.5 637 c 128,-1,21
 522 689 522 689 545 725.5 c 128,-1,22
 568 762 568 762 575 774 c 1,23,24
 609 766 609 766 642 760 c 1,25,26
 669 754 669 754 697.5 748.5 c 128,-1,27
 726 743 726 743 743 741 c 1,28,29
 699 677 699 677 642.5 593 c 128,-1,30
 586 509 586 509 526 419 c 1,31,32
 557 452 557 452 593.5 472.5 c 128,-1,33
 630 493 630 493 671 493 c 0,34,35
 700 493 700 493 721.5 480 c 128,-1,36
 743 467 743 467 757 445.5 c 128,-1,37
 771 424 771 424 777.5 394.5 c 128,-1,38
 784 365 784 365 784 332 c 0,39,40
 784 281 784 281 768.5 225.5 c 128,-1,41
 753 170 753 170 723.5 124.5 c 128,-1,42
 694 79 694 79 651.5 49.5 c 128,-1,43
 609 20 609 20 555 20 c 0,0,1
160 311 m 0,44,45
 125 311 125 311 100 322.5 c 128,-1,46
 75 334 75 334 59 353.5 c 128,-1,47
 43 373 43 373 35.5 399.5 c 128,-1,48
 28 426 28 426 28 456 c 0,49,50
 28 508 28 508 47.5 566 c 128,-1,51
 67 624 67 624 101 672.5 c 128,-1,52
 135 721 135 721 180 752.5 c 128,-1,53
 225 784 225 784 276 784 c 0,54,55
 305 784 305 784 326 771 c 128,-1,56
 347 758 347 758 361 736.5 c 128,-1,57
 375 715 375 715 381.5 685.5 c 128,-1,58
 388 656 388 656 388 623 c 0,59,60
 388 572 388 572 372.5 516.5 c 128,-1,61
 357 461 357 461 328 415.5 c 128,-1,62
 299 370 299 370 256.5 340.5 c 128,-1,63
 214 311 214 311 160 311 c 0,44,45
583 145 m 0,64,65
 606 145 606 145 624.5 157 c 128,-1,66
 643 169 643 169 656.5 187 c 128,-1,67
 670 205 670 205 677 226.5 c 128,-1,68
 684 248 684 248 684 268 c 0,69,70
 684 293 684 293 672.5 310 c 128,-1,71
 661 327 661 327 636 327 c 0,72,73
 618 327 618 327 601.5 313.5 c 128,-1,74
 585 300 585 300 573 280 c 128,-1,75
 561 260 561 260 553.5 236.5 c 128,-1,76
 546 213 546 213 546 193 c 256,77,78
 546 173 546 173 554.5 159 c 128,-1,79
 563 145 563 145 583 145 c 0,64,65
188 436 m 0,80,81
 211 436 211 436 229.5 448 c 128,-1,82
 248 460 248 460 261.5 478 c 128,-1,83
 275 496 275 496 282 517.5 c 128,-1,84
 289 539 289 539 289 559 c 0,85,86
 289 584 289 584 277.5 601 c 128,-1,87
 266 618 266 618 241 618 c 0,88,89
 223 618 223 618 206.5 604.5 c 128,-1,90
 190 591 190 591 178 571 c 128,-1,91
 166 551 166 551 158.5 527.5 c 128,-1,92
 151 504 151 504 151 484 c 256,93,94
 151 464 151 464 159.5 450 c 128,-1,95
 168 436 168 436 188 436 c 0,80,81
EndSplineSet
EndChar

StartChar: ampersand
Encoding: 38 38 52
Width: 579
Flags: W
HStem: -13 129<180.155 290.136> 340 99<277.881 351.875 515 583.469> 623 137<275.467 435.424>
VStem: -3 163<135.998 262.008> 93 157<467.233 597.784>
LayerCount: 2
Fore
SplineSet
235 116 m 0,0,1
 271 116 271 116 293 140.5 c 128,-1,2
 315 165 315 165 327.5 199.5 c 128,-1,3
 340 234 340 234 345 272.5 c 128,-1,4
 350 311 350 311 352 340 c 1,5,6
 300 336 300 336 263.5 322 c 128,-1,7
 227 308 227 308 204 287 c 128,-1,8
 181 266 181 266 170.5 241 c 128,-1,9
 160 216 160 216 160 189 c 0,10,11
 160 157 160 157 180 136.5 c 128,-1,12
 200 116 200 116 235 116 c 0,0,1
435 583 m 1,13,14
 427 590 427 590 419 597.5 c 128,-1,15
 411 605 411 605 400 610.5 c 128,-1,16
 389 616 389 616 372.5 619.5 c 128,-1,17
 356 623 356 623 331 623 c 0,18,19
 311 623 311 623 295.5 615.5 c 128,-1,20
 280 608 280 608 270 595 c 128,-1,21
 260 582 260 582 255 566 c 128,-1,22
 250 550 250 550 250 533 c 0,23,24
 250 515 250 515 255.5 498.5 c 128,-1,25
 261 482 261 482 271.5 468.5 c 128,-1,26
 282 455 282 455 298.5 447 c 128,-1,27
 315 439 315 439 336 439 c 0,28,29
 341 439 341 439 347 439 c 128,-1,30
 353 439 353 439 359 441 c 1,31,32
 359 448 359 448 360 455 c 0,33,34
 361 461 361 461 361.5 468 c 128,-1,35
 362 475 362 475 363 481 c 1,36,37
 404 481 404 481 438.5 483 c 128,-1,38
 473 485 473 485 513 487 c 1,39,40
 511 482 511 482 511 472 c 2,41,-1
 511 455 l 1,42,-1
 511 446 l 1,43,44
 516 446 516 446 528 448 c 128,-1,45
 540 450 540 450 553 453 c 0,46,47
 567 456 567 456 584 460 c 1,48,-1
 596 355 l 1,49,50
 577 352 577 352 560 349 c 0,51,52
 546 347 546 347 532.5 345.5 c 128,-1,53
 519 344 519 344 515 344 c 1,54,55
 515 267 515 267 498 201.5 c 128,-1,56
 481 136 481 136 443.5 88.5 c 128,-1,57
 406 41 406 41 346.5 14 c 128,-1,58
 287 -13 287 -13 201 -13 c 0,59,60
 147 -13 147 -13 108 1.5 c 128,-1,61
 69 16 69 16 44.5 40.5 c 128,-1,62
 20 65 20 65 8.5 97.5 c 128,-1,63
 -3 130 -3 130 -3 165 c 0,64,65
 -3 203 -3 203 10 242.5 c 128,-1,66
 23 282 23 282 46 316 c 128,-1,67
 69 350 69 350 102 375.5 c 128,-1,68
 135 401 135 401 176 413 c 1,69,70
 152 425 152 425 134 442 c 0,71,72
 118 456 118 456 105.5 477.5 c 128,-1,73
 93 499 93 499 93 526 c 0,74,75
 93 578 93 578 115.5 621.5 c 128,-1,76
 138 665 138 665 176 695.5 c 128,-1,77
 214 726 214 726 263.5 743 c 128,-1,78
 313 760 313 760 367 760 c 0,79,80
 415 760 415 760 455.5 738 c 128,-1,81
 496 716 496 716 519 677 c 1,82,-1
 435 583 l 1,13,14
EndSplineSet
EndChar

StartChar: quotesingle
Encoding: 39 39 53
Width: 247
Flags: W
HStem: 472 336
VStem: 58 268
LayerCount: 2
Fore
SplineSet
226 489 m 1,0,-1
 58 472 l 1,1,2
 72 527 72 527 86 583 c 0,3,4
 98 631 98 631 111.5 688 c 128,-1,5
 125 745 125 745 137 797 c 1,6,7
 143 796 143 796 154 795.5 c 128,-1,8
 165 795 165 795 176.5 794.5 c 128,-1,9
 188 794 188 794 199 794 c 128,-1,10
 210 794 210 794 216 794 c 0,11,12
 230 794 230 794 249 796 c 128,-1,13
 268 798 268 798 285 801 c 0,14,15
 305 804 305 804 326 808 c 1,16,-1
 226 489 l 1,0,-1
EndSplineSet
EndChar

StartChar: parenleft
Encoding: 40 40 54
Width: 356
Flags: W
VStem: 17 168<150.433 416.479>
LayerCount: 2
Fore
SplineSet
204 -140 m 1,0,1
 166 -121 166 -121 132 -85.5 c 128,-1,2
 98 -50 98 -50 72.5 0.5 c 128,-1,3
 47 51 47 51 32 115.5 c 128,-1,4
 17 180 17 180 17 257 c 0,5,6
 17 345 17 345 37 432.5 c 128,-1,7
 57 520 57 520 97 602 c 128,-1,8
 137 684 137 684 196.5 759 c 128,-1,9
 256 834 256 834 334 898 c 1,10,-1
 464 776 l 1,11,12
 420 739 420 739 370.5 688 c 128,-1,13
 321 637 321 637 280 573 c 128,-1,14
 239 509 239 509 212 431.5 c 128,-1,15
 185 354 185 354 185 265 c 0,16,17
 185 218 185 218 199.5 172.5 c 128,-1,18
 214 127 214 127 236.5 89 c 128,-1,19
 259 51 259 51 286 23 c 128,-1,20
 313 -5 313 -5 338 -18 c 1,21,-1
 204 -140 l 1,0,1
EndSplineSet
EndChar

StartChar: asterisk
Encoding: 42 42 55
Width: 416
Flags: W
HStem: 386 122<38.1774 110.68>
LayerCount: 2
Fore
SplineSet
139 229 m 1,0,-1
 25 280 l 1,1,-1
 122 392 l 1,2,-1
 25 386 l 1,3,-1
 39 508 l 1,4,-1
 149 497 l 1,5,-1
 82 619 l 1,6,-1
 192 685 l 1,7,-1
 246 536 l 1,8,-1
 329 684 l 1,9,-1
 424 611 l 1,10,-1
 325 501 l 1,11,-1
 427 513 l 1,12,-1
 419 379 l 1,13,-1
 297 396 l 1,14,-1
 372 276 l 1,15,-1
 243 226 l 1,16,-1
 212 357 l 1,17,-1
 139 229 l 1,0,-1
EndSplineSet
EndChar

StartChar: plus
Encoding: 43 43 56
Width: 374
Flags: W
HStem: 240 152<44.4697 113 257 305>
VStem: 31 307
DStem2: 96 156 208 122 0.17943 0.983771<-13.3521 85.2639 266.961 365.196>
LayerCount: 2
Fore
SplineSet
59 392 m 2,0,1
 70 392 70 392 84.5 392.5 c 128,-1,2
 99 393 99 393 112 394 c 0,3,4
 127 395 127 395 142 397 c 1,5,6
 145 418 145 418 149 438 c 0,7,8
 152 455 152 455 155.5 475.5 c 128,-1,9
 159 496 159 496 163 515 c 1,10,11
 195 517 195 517 225.5 519 c 128,-1,12
 256 521 256 521 287 526 c 1,13,14
 282 506 282 506 277 483.5 c 128,-1,15
 272 461 272 461 267 442 c 0,16,17
 262 419 262 419 257 398 c 1,18,19
 272 399 272 399 287 401 c 0,20,21
 300 403 300 403 313.5 404 c 128,-1,22
 327 405 327 405 338 407 c 1,23,24
 333 384 333 384 328.5 363.5 c 128,-1,25
 324 343 324 343 320 323 c 128,-1,26
 316 303 316 303 312.5 282.5 c 128,-1,27
 309 262 309 262 305 239 c 1,28,29
 294 239 294 239 280.5 239.5 c 128,-1,30
 267 240 267 240 254 240 c 0,31,32
 239 240 239 240 224 241 c 1,33,34
 223 220 223 220 220 200 c 0,35,36
 218 182 218 182 215 161.5 c 128,-1,37
 212 141 212 141 208 122 c 1,38,-1
 86 115 l 1,39,40
 91 134 91 134 96 156 c 128,-1,41
 101 178 101 178 105 197 c 0,42,43
 109 219 109 219 113 240 c 1,44,-1
 31 240 l 1,45,46
 33 267 33 267 36 293 c 0,47,48
 38 316 38 316 41 342.5 c 128,-1,49
 44 369 44 369 48 392 c 1,50,-1
 59 392 l 2,0,1
EndSplineSet
EndChar

StartChar: comma
Encoding: 44 44 57
Width: 256
Flags: W
HStem: -114 298
VStem: -45 245
LayerCount: 2
Fore
SplineSet
-45 -114 m 1,0,1
 -37 -73 -37 -73 -27.5 -30.5 c 128,-1,2
 -18 12 -18 12 -10 51.5 c 128,-1,3
 -2 91 -2 91 5 125 c 128,-1,4
 12 159 12 159 15 184 c 1,5,6
 23 184 23 184 41 183.5 c 128,-1,7
 59 183 59 183 68 183 c 0,8,9
 82 183 82 183 105 183 c 128,-1,10
 128 183 128 183 149 184 c 0,11,12
 174 185 174 185 200 186 c 1,13,14
 192 148 192 148 178 96.5 c 128,-1,15
 164 45 164 45 150 -2 c 0,16,17
 133 -57 133 -57 116 -114 c 1,18,-1
 -45 -114 l 1,0,1
EndSplineSet
EndChar

StartChar: hyphen
Encoding: 45 45 58
Width: 386
Flags: W
HStem: 247.5 174.5<64 347>
LayerCount: 2
Fore
SplineSet
64 426 m 1,0,1
 92 425 92 425 119 424 c 0,2,3
 142 423 142 423 167.5 422.5 c 128,-1,4
 193 422 193 422 211 422 c 0,5,6
 232 422 232 422 261.5 422.5 c 128,-1,7
 291 423 291 423 318 424 c 0,8,9
 350 425 350 425 382 427 c 1,10,-1
 347 244 l 1,11,12
 311 245 311 245 276 246 c 0,13,14
 246 247 246 247 213 247.5 c 128,-1,15
 180 248 180 248 157 248 c 0,16,17
 139 248 139 248 115 247.5 c 128,-1,18
 91 247 91 247 68 246 c 0,19,20
 42 245 42 245 15 245 c 1,21,-1
 64 426 l 1,0,1
EndSplineSet
EndChar

StartChar: slash
Encoding: 47 47 59
Width: 542
Flags: W
DStem2: -0.5 90.5 111 -30 0.556936 0.830556<-37.9837 386.914 390.019 578.44 581.707 827.863>
LayerCount: 2
Fore
SplineSet
628 741 m 1,0,1
 597 695 597 695 558.5 637.5 c 128,-1,2
 520 580 520 580 478 517.5 c 128,-1,3
 436 455 436 455 392.5 390 c 128,-1,4
 349 325 349 325 308 264 c 0,5,6
 212 121 212 121 111 -30 c 1,7,-1
 -59 10 l 1,8,9
 -37 40 -37 40 -0.5 90.5 c 128,-1,10
 36 141 36 141 80.5 204.5 c 128,-1,11
 125 268 125 268 175 341 c 128,-1,12
 225 414 225 414 275.5 489 c 128,-1,13
 326 564 326 564 373.5 637 c 128,-1,14
 421 710 421 710 460 774 c 1,15,16
 469 768 469 768 490 762.5 c 128,-1,17
 511 757 511 757 536 753 c 128,-1,18
 561 749 561 749 586 746 c 128,-1,19
 611 743 611 743 628 741 c 1,0,1
EndSplineSet
EndChar

StartChar: backslash
Encoding: 92 92 60
Width: 504
Flags: W
HStem: 1 21G<265 282.5>
DStem2: 274 642.5 129 544 0.267308 -0.963611<-133.568 620.769>
LayerCount: 2
Fore
SplineSet
77 739 m 2,0,1
 79 739 79 739 83.5 739.5 c 128,-1,2
 88 740 88 740 93 741 c 0,3,4
 99 742 99 742 106 743 c 0,5,6
 133 748 133 748 158 752 c 0,7,8
 179 756 179 756 201.5 761 c 128,-1,9
 224 766 224 766 238 772 c 1,10,11
 255 712 255 712 274 642.5 c 128,-1,12
 293 573 293 573 312 501.5 c 128,-1,13
 331 430 331 430 350 360 c 128,-1,14
 369 290 369 290 386 228 c 128,-1,15
 403 166 403 166 417.5 115.5 c 128,-1,16
 432 65 432 65 443 33 c 1,17,18
 436 31 436 31 419.5 27.5 c 128,-1,19
 403 24 403 24 386 21 c 0,20,21
 366 17 366 17 343 14 c 0,22,23
 332 12 332 12 321 10 c 0,24,25
 311 8 311 8 299.5 5.5 c 128,-1,26
 288 3 288 3 277 1 c 1,27,28
 253 92 253 92 228.5 180.5 c 128,-1,29
 204 269 204 269 179.5 359.5 c 128,-1,30
 155 450 155 450 129 544 c 128,-1,31
 103 638 103 638 76 739 c 1,32,-1
 77 739 l 2,0,1
EndSplineSet
EndChar

StartChar: zero
Encoding: 48 48 61
Width: 495
Flags: W
HStem: 1 172<180.036 284.015> 539 214<272.827 368.118>
VStem: 13 154<190.679 379.609> 391 119<328.677 511.059>
LayerCount: 2
Fore
SplineSet
220 173 m 0,0,1
 258 173 258 173 289.5 198.5 c 128,-1,2
 321 224 321 224 343.5 262.5 c 128,-1,3
 366 301 366 301 378.5 346.5 c 128,-1,4
 391 392 391 392 391 433 c 0,5,6
 391 477 391 477 374 508 c 128,-1,7
 357 539 357 539 320 539 c 0,8,9
 290 539 290 539 262.5 510.5 c 128,-1,10
 235 482 235 482 214 439.5 c 128,-1,11
 193 397 193 397 180 348 c 128,-1,12
 167 299 167 299 167 258 c 0,13,14
 167 220 167 220 179 196.5 c 128,-1,15
 191 173 191 173 220 173 c 0,0,1
189 1 m 0,16,17
 142 1 142 1 108.5 18.5 c 128,-1,18
 75 36 75 36 54 66 c 128,-1,19
 33 96 33 96 23 136.5 c 128,-1,20
 13 177 13 177 13 224 c 0,21,22
 13 279 13 279 25.5 340 c 128,-1,23
 38 401 38 401 61 459.5 c 128,-1,24
 84 518 84 518 116.5 571.5 c 128,-1,25
 149 625 149 625 187.5 665 c 128,-1,26
 226 705 226 705 270 729 c 128,-1,27
 314 753 314 753 361 753 c 0,28,29
 399 753 399 753 427 733.5 c 128,-1,30
 455 714 455 714 473.5 680 c 128,-1,31
 492 646 492 646 501 600.5 c 128,-1,32
 510 555 510 555 510 504 c 0,33,34
 510 449 510 449 500.5 390.5 c 128,-1,35
 491 332 491 332 472 276 c 128,-1,36
 453 220 453 220 426 170 c 128,-1,37
 399 120 399 120 363 82.5 c 128,-1,38
 327 45 327 45 283.5 23 c 128,-1,39
 240 1 240 1 189 1 c 0,16,17
EndSplineSet
EndChar

StartChar: one
Encoding: 49 49 62
Width: 346
Flags: W
VStem: 57 334
DStem2: 115 188 286.5 221.5 0.19937 0.979924<-127.339 343.393>
LayerCount: 2
Fore
SplineSet
82 686 m 1,0,1
 106 691 106 691 148 699 c 0,2,3
 184 706 184 706 243 715 c 128,-1,4
 302 724 302 724 391 738 c 1,5,6
 369 648 369 648 351 563 c 128,-1,7
 333 478 333 478 317 393 c 128,-1,8
 301 308 301 308 286.5 221.5 c 128,-1,9
 272 135 272 135 257 44 c 1,10,11
 234 37 234 37 203 30 c 128,-1,12
 172 23 172 23 143 17 c 0,13,14
 110 10 110 10 75 4 c 1,15,16
 96 96 96 96 115 188 c 0,17,18
 123 227 123 227 132 270.5 c 128,-1,19
 141 314 141 314 149.5 357.5 c 128,-1,20
 158 401 158 401 166 444 c 128,-1,21
 174 487 174 487 181 525 c 1,22,23
 156 523 156 523 133 519 c 0,24,25
 113 516 113 516 92 512.5 c 128,-1,26
 71 509 71 509 57 507 c 1,27,28
 59 521 59 521 63 550.5 c 128,-1,29
 67 580 67 580 72 610 c 1,30,31
 76 645 76 645 82 686 c 1,0,1
EndSplineSet
EndChar

StartChar: two
Encoding: 50 50 63
Width: 482
Flags: W
HStem: 573 173<246.145 323.557>
VStem: 334 180<466.426 561.014>
DStem2: 318 179 209.5 26.5 0.997684 0.0680239<-155.269 76.2775>
LayerCount: 2
Fore
SplineSet
53 492 m 0,0,1
 53 552 53 552 76.5 599.5 c 128,-1,2
 100 647 100 647 137.5 679.5 c 128,-1,3
 175 712 175 712 222.5 729 c 128,-1,4
 270 746 270 746 317 746 c 0,5,6
 356 746 356 746 391.5 734 c 128,-1,7
 427 722 427 722 454 697 c 128,-1,8
 481 672 481 672 497.5 633.5 c 128,-1,9
 514 595 514 595 514 542 c 0,10,11
 514 491 514 491 487.5 442 c 128,-1,12
 461 393 461 393 413.5 346.5 c 128,-1,13
 366 300 366 300 301.5 256 c 128,-1,14
 237 212 237 212 162 172 c 1,15,16
 189 172 189 172 232.5 174 c 128,-1,17
 276 176 276 176 318 179 c 0,18,19
 367 183 367 183 421 187 c 1,20,-1
 404 39 l 1,21,22
 380 37 380 37 348.5 35 c 128,-1,23
 317 33 317 33 282 31 c 128,-1,24
 247 29 247 29 209.5 26.5 c 128,-1,25
 172 24 172 24 137 21 c 0,26,27
 54 15 54 15 -36 9 c 1,28,-1
 -19 138 l 2,29,30
 -15 170 -15 170 13 204.5 c 128,-1,31
 41 239 41 239 80 274 c 128,-1,32
 119 309 119 309 163.5 342.5 c 128,-1,33
 208 376 208 376 246 406.5 c 128,-1,34
 284 437 284 437 309 463 c 128,-1,35
 334 489 334 489 334 509 c 0,36,37
 334 540 334 540 322 556.5 c 128,-1,38
 310 573 310 573 293 573 c 0,39,40
 275 573 275 573 262.5 565.5 c 128,-1,41
 250 558 250 558 243 546 c 128,-1,42
 236 534 236 534 233 519.5 c 128,-1,43
 230 505 230 505 230 491 c 2,44,-1
 230 480 l 2,45,46
 230 477 230 477 231 476 c 1,47,48
 204 474 204 474 174 471 c 0,49,50
 148 469 148 469 117 465.5 c 128,-1,51
 86 462 86 462 55 459 c 1,52,53
 54 467 54 467 53.5 475.5 c 128,-1,54
 53 484 53 484 53 492 c 0,0,1
EndSplineSet
EndChar

StartChar: four
Encoding: 52 52 64
Width: 456
Flags: W
HStem: -2 21G<177.561 289.545>
DStem2: 39 434 167 353 0.313307 0.949652<-61.1766 318.192> 239 352 409 329 0.174147 0.98472<6.95636 278.2>
LayerCount: 2
Fore
SplineSet
464 640 m 1,0,1
 463 630 463 630 458.5 605.5 c 128,-1,2
 454 581 454 581 448.5 550 c 128,-1,3
 443 519 443 519 437 484.5 c 128,-1,4
 431 450 431 450 425 419 c 128,-1,5
 419 388 419 388 415 363.5 c 128,-1,6
 411 339 411 339 409 329 c 1,7,-1
 467 329 l 1,8,-1
 425 165 l 1,9,-1
 373 165 l 1,10,-1
 364 31 l 1,11,-1
 175 -2 l 1,12,-1
 196 162 l 1,13,-1
 20 148 l 1,14,-1
 -25 241 l 1,15,16
 8 342 8 342 39 434 c 0,17,18
 52 473 52 473 65.5 514.5 c 128,-1,19
 79 556 79 556 92 595 c 128,-1,20
 105 634 105 634 116 668.5 c 128,-1,21
 127 703 127 703 136 729 c 1,22,23
 179 729 179 729 217.5 731.5 c 128,-1,24
 256 734 256 734 300 740 c 1,25,26
 262 645 262 645 230 549 c 128,-1,27
 198 453 198 453 167 353 c 1,28,29
 166 346 166 346 165 341 c 128,-1,30
 164 336 164 336 162 329 c 1,31,-1
 235 329 l 1,32,33
 236 336 236 336 239 352 c 128,-1,34
 242 368 242 368 246 389.5 c 128,-1,35
 250 411 250 411 254.5 436.5 c 128,-1,36
 259 462 259 462 264 488 c 0,37,38
 275 548 275 548 289 619 c 1,39,40
 322 624 322 624 355 628 c 0,41,42
 383 632 383 632 412.5 635 c 128,-1,43
 442 638 442 638 464 640 c 1,0,1
EndSplineSet
EndChar

StartChar: eight
Encoding: 56 56 65
Width: 526
Flags: W
HStem: -11 156<151.668 314.84> 335 117<259.956 332.311> 595 167<275.378 393.919>
VStem: -17 149<135.5 266.463> 84 161<466.088 569.429> 355 154<181.814 313.828> 404 161<515.745 621>
LayerCount: 2
Fore
SplineSet
441 421 m 1,0,1
 477 383 477 383 493 341.5 c 128,-1,2
 509 300 509 300 509 259 c 0,3,4
 509 206 509 206 484.5 157.5 c 128,-1,5
 460 109 460 109 417.5 71.5 c 128,-1,6
 375 34 375 34 318 11.5 c 128,-1,7
 261 -11 261 -11 195 -11 c 0,8,9
 150 -11 150 -11 111 -1.5 c 128,-1,10
 72 8 72 8 43.5 28 c 128,-1,11
 15 48 15 48 -1 80.5 c 128,-1,12
 -17 113 -17 113 -17 158 c 0,13,14
 -17 192 -17 192 -8 229.5 c 128,-1,15
 1 267 1 267 21 301 c 128,-1,16
 41 335 41 335 72 363 c 128,-1,17
 103 391 103 391 147 407 c 1,18,19
 114 434 114 434 99 464 c 128,-1,20
 84 494 84 494 84 525 c 0,21,22
 84 570 84 570 111 612.5 c 128,-1,23
 138 655 138 655 181.5 688 c 128,-1,24
 225 721 225 721 280.5 741.5 c 128,-1,25
 336 762 336 762 392 762 c 0,26,27
 436 762 436 762 468.5 749 c 128,-1,28
 501 736 501 736 522.5 714.5 c 128,-1,29
 544 693 544 693 554.5 664.5 c 128,-1,30
 565 636 565 636 565 606 c 0,31,32
 565 579 565 579 557 551.5 c 128,-1,33
 549 524 549 524 533 499.5 c 128,-1,34
 517 475 517 475 494 454.5 c 128,-1,35
 471 434 471 434 441 421 c 1,0,1
404 546 m 0,36,37
 404 559 404 559 397.5 568.5 c 128,-1,38
 391 578 391 578 380.5 584 c 128,-1,39
 370 590 370 590 357.5 592.5 c 128,-1,40
 345 595 345 595 333 595 c 0,41,42
 310 595 310 595 293.5 587.5 c 128,-1,43
 277 580 277 580 266 568 c 128,-1,44
 255 556 255 556 250 540.5 c 128,-1,45
 245 525 245 525 245 510 c 0,46,47
 245 487 245 487 259.5 469.5 c 128,-1,48
 274 452 274 452 300 452 c 0,49,50
 318 452 318 452 336.5 461 c 128,-1,51
 355 470 355 470 370 483.5 c 128,-1,52
 385 497 385 497 394.5 514 c 128,-1,53
 404 531 404 531 404 546 c 0,36,37
355 241 m 0,54,55
 355 293 355 293 333 314 c 128,-1,56
 311 335 311 335 281 335 c 0,57,58
 257 335 257 335 230.5 324 c 128,-1,59
 204 313 204 313 182 295 c 128,-1,60
 160 277 160 277 146 254.5 c 128,-1,61
 132 232 132 232 132 210 c 0,62,63
 132 184 132 184 152.5 164.5 c 128,-1,64
 173 145 173 145 223 145 c 0,65,66
 260 145 260 145 285.5 153.5 c 128,-1,67
 311 162 311 162 326.5 175.5 c 128,-1,68
 342 189 342 189 348.5 206.5 c 128,-1,69
 355 224 355 224 355 241 c 0,54,55
EndSplineSet
EndChar

StartChar: colon
Encoding: 58 58 66
Width: 240
Flags: W
VStem: 1 241
DStem2: 1 43 151 66 0.163813 0.986491<42.1401 234.648 328.195 534.274>
LayerCount: 2
Fore
SplineSet
242 590 m 1,0,1
 228 530 228 530 217.5 469.5 c 128,-1,2
 207 409 207 409 198 348 c 1,3,4
 165 346 165 346 132 345 c 128,-1,5
 99 344 99 344 67 344 c 2,6,-1
 55 344 l 1,7,8
 63 401 63 401 72 456 c 128,-1,9
 81 511 81 511 90 566 c 1,10,11
 128 566 128 566 166 572.5 c 128,-1,12
 204 579 204 579 242 590 c 1,0,1
185 271 m 1,13,14
 176 220 176 220 167.5 168.5 c 128,-1,15
 159 117 159 117 151 66 c 1,16,17
 113 64 113 64 75.5 59 c 128,-1,18
 38 54 38 54 1 43 c 1,19,20
 13 100 13 100 22 156.5 c 128,-1,21
 31 213 31 213 39 270 c 1,22,23
 62 271 62 271 85 271.5 c 128,-1,24
 108 272 108 272 131 272 c 0,25,26
 145 272 145 272 158 272 c 128,-1,27
 171 272 171 272 185 271 c 1,13,14
EndSplineSet
EndChar

StartChar: less
Encoding: 60 60 67
Width: 373
Flags: W
HStem: 734 20G<343 369.5>
VStem: 39 339
DStem2: 82 511 137 380 0.808356 0.588694<0 194.963>
LayerCount: 2
Fore
SplineSet
39 235 m 1,0,1
 52 304 52 304 62 372.5 c 128,-1,2
 72 441 72 441 82 511 c 1,3,4
 158 568 158 568 233 626.5 c 128,-1,5
 308 685 308 685 378 754 c 1,6,7
 361 695 361 695 347.5 635 c 128,-1,8
 334 575 334 575 321 514 c 1,9,10
 276 478 276 478 229 446 c 128,-1,11
 182 414 182 414 137 380 c 1,12,13
 175 346 175 346 212.5 312 c 128,-1,14
 250 278 250 278 288 244 c 1,15,16
 276 190 276 190 265.5 137 c 128,-1,17
 255 84 255 84 242 30 c 1,18,19
 191 82 191 82 139.5 131 c 128,-1,20
 88 180 88 180 39 235 c 1,0,1
EndSplineSet
EndChar

StartChar: equal
Encoding: 61 61 68
Width: 380
Flags: W
HStem: 12 153<57.125 282.299> 261 155<87.8126 311.156>
VStem: 18 331
LayerCount: 2
Fore
SplineSet
87 420 m 1,0,1
 113 418 113 418 139.5 417 c 128,-1,2
 166 416 166 416 192 416 c 0,3,4
 232 416 232 416 271 418.5 c 128,-1,5
 310 421 310 421 349 426 c 1,6,7
 336 385 336 385 325.5 344.5 c 128,-1,8
 315 304 315 304 307 262 c 1,9,10
 279 262 279 262 252 261.5 c 128,-1,11
 225 261 225 261 197 261 c 0,12,13
 166 261 166 261 135.5 261.5 c 128,-1,14
 105 262 105 262 74 262 c 1,15,16
 79 303 79 303 82 341.5 c 128,-1,17
 85 380 85 380 87 420 c 1,0,1
145 165 m 2,18,19
 182 165 182 165 218 165 c 128,-1,20
 254 165 254 165 290 163 c 1,21,22
 288 125 288 125 285.5 86.5 c 128,-1,23
 283 48 283 48 281 9 c 1,24,25
 228 12 228 12 175 12 c 0,26,27
 136 12 136 12 96.5 10 c 128,-1,28
 57 8 57 8 18 3 c 1,29,30
 32 43 32 43 42.5 83 c 128,-1,31
 53 123 53 123 61 165 c 1,32,-1
 145 165 l 2,18,19
EndSplineSet
EndChar

StartChar: greater
Encoding: 62 62 69
Width: 373
Flags: W
HStem: 1 21G<28 55>
DStem2: 69 246 166.5 123 0.822802 0.568327<-19.1552 198.626>
LayerCount: 2
Fore
SplineSet
366 521 m 1,0,1
 352 449 352 449 340.5 378 c 128,-1,2
 329 307 329 307 318 235 c 1,3,4
 243 178 243 178 166.5 123 c 128,-1,5
 90 68 90 68 20 1 c 1,6,7
 36 61 36 61 47.5 122.5 c 128,-1,8
 59 184 59 184 69 246 c 1,9,10
 117 281 117 281 166 313.5 c 128,-1,11
 215 346 215 346 263 380 c 1,12,13
 228 411 228 411 193 442.5 c 128,-1,14
 158 474 158 474 123 505 c 1,15,16
 128 564 128 564 134.5 621.5 c 128,-1,17
 141 679 141 679 147 738 c 1,18,19
 201 683 201 683 256 629.5 c 128,-1,20
 311 576 311 576 366 521 c 1,0,1
EndSplineSet
EndChar

StartChar: quoteright
Encoding: 8217 8217 70
Width: 247
Flags: W
HStem: 481 322
VStem: 53 274
DStem2: 78 561 223 491 0.293877 0.955843<-24.2968 253.061>
LayerCount: 2
Fore
SplineSet
223 491 m 1,0,1
 224 491 224 491 211.5 490.5 c 128,-1,2
 199 490 199 490 180.5 488.5 c 128,-1,3
 162 487 162 487 139.5 486 c 128,-1,4
 117 485 117 485 98 483.5 c 128,-1,5
 79 482 79 482 66 481.5 c 128,-1,6
 53 481 53 481 53 481 c 1,7,8
 57 494 57 494 63.5 515 c 128,-1,9
 70 536 70 536 78 561 c 128,-1,10
 86 586 86 586 94.5 613.5 c 128,-1,11
 103 641 103 641 111 668 c 0,12,13
 130 731 130 731 152 803 c 1,14,-1
 235 801 l 1,15,-1
 327 803 l 1,16,17
 303 732 303 732 283 670 c 0,18,19
 274 644 274 644 265 617 c 128,-1,20
 256 590 256 590 248 566 c 128,-1,21
 240 542 240 542 233.5 522.5 c 128,-1,22
 227 503 227 503 223 491 c 1,0,1
EndSplineSet
EndChar

StartChar: quotedblleft
Encoding: 8220 8220 71
Width: 495
Flags: W
VStem: 126 160<613 773>
DStem2: 58 371 212 380 0.166785 0.985993<34.5588 407.711> 269 380 431 382 0.171341 0.985212<29.7277 396.869>
LayerCount: 2
Fore
SplineSet
496 771 m 1,0,-1
 431 382 l 1,1,-1
 348 382 l 1,2,-1
 269 380 l 1,3,4
 274 411 274 411 280 442 c 0,5,6
 285 468 285 468 290.5 497.5 c 128,-1,7
 296 527 296 527 301 550 c 0,8,9
 310 598 310 598 316.5 638.5 c 128,-1,10
 323 679 323 679 328 708 c 0,11,12
 333 742 333 742 337 771 c 1,13,-1
 496 771 l 1,0,-1
286 773 m 1,14,-1
 212 380 l 1,15,-1
 58 371 l 1,16,-1
 92 564 l 1,17,-1
 126 773 l 1,18,-1
 286 773 l 1,14,-1
EndSplineSet
EndChar

StartChar: quotedblright
Encoding: 8221 8221 72
Width: 495
Flags: W
VStem: 146 165<628 793> 291 159<403 562>
DStem2: 291 403 450 403 0.182354 0.983233<28.9943 397.867>
LayerCount: 2
Fore
SplineSet
327 577 m 1,0,-1
 370 793 l 1,1,-1
 524 802 l 1,2,-1
 450 403 l 1,3,-1
 291 403 l 1,4,-1
 327 577 l 1,0,-1
112 579 m 1,5,-1
 146 793 l 1,6,-1
 311 793 l 1,7,-1
 239 418 l 1,8,-1
 85 402 l 1,9,-1
 112 579 l 1,5,-1
EndSplineSet
EndChar

StartChar: s
Encoding: 115 115 73
Width: 445
Flags: W
HStem: -2 166<113.25 236.603> 614 134<262.483 376>
VStem: 41 194<490.643 581.366> 254 167<182.271 277.55>
LayerCount: 2
Fore
SplineSet
341 523 m 1,0,1
 343 531 343 531 344.5 539.5 c 128,-1,2
 346 548 346 548 346 556 c 0,3,4
 346 587 346 587 335 600.5 c 128,-1,5
 324 614 324 614 307 614 c 0,6,7
 299 614 299 614 287 608 c 128,-1,8
 275 602 275 602 263.5 592.5 c 128,-1,9
 252 583 252 583 243.5 569.5 c 128,-1,10
 235 556 235 556 235 541 c 0,11,12
 235 516 235 516 249 499.5 c 128,-1,13
 263 483 263 483 283.5 469 c 128,-1,14
 304 455 304 455 328 440 c 128,-1,15
 352 425 352 425 372.5 401.5 c 128,-1,16
 393 378 393 378 407 342.5 c 128,-1,17
 421 307 421 307 421 253 c 0,18,19
 421 196 421 196 399 149 c 128,-1,20
 377 102 377 102 339.5 68.5 c 128,-1,21
 302 35 302 35 251 16.5 c 128,-1,22
 200 -2 200 -2 142 -2 c 0,23,24
 101 -2 101 -2 60 20 c 128,-1,25
 19 42 19 42 -19 90 c 1,26,-1
 57 239 l 1,27,28
 64 225 64 225 78.5 211.5 c 128,-1,29
 93 198 93 198 111 187.5 c 128,-1,30
 129 177 129 177 147 170.5 c 128,-1,31
 165 164 165 164 179 164 c 0,32,33
 191 164 191 164 204.5 168 c 128,-1,34
 218 172 218 172 229 180 c 128,-1,35
 240 188 240 188 247 199 c 128,-1,36
 254 210 254 210 254 224 c 0,37,38
 254 249 254 249 238 270 c 128,-1,39
 222 291 222 291 198.5 310 c 128,-1,40
 175 329 175 329 147.5 348.5 c 128,-1,41
 120 368 120 368 96.5 389.5 c 128,-1,42
 73 411 73 411 57 437.5 c 128,-1,43
 41 464 41 464 41 497 c 0,44,45
 41 550 41 550 72.5 596 c 128,-1,46
 104 642 104 642 151.5 675.5 c 128,-1,47
 199 709 199 709 255.5 728.5 c 128,-1,48
 312 748 312 748 362 748 c 0,49,50
 390 748 390 748 414.5 741 c 128,-1,51
 439 734 439 734 457 719.5 c 128,-1,52
 475 705 475 705 485.5 682 c 128,-1,53
 496 659 496 659 496 626 c 0,54,55
 496 611 496 611 493.5 597 c 128,-1,56
 491 583 491 583 489 566 c 1,57,-1
 341 523 l 1,0,1
EndSplineSet
EndChar

StartChar: question
Encoding: 63 63 74
Width: 434
Flags: W
HStem: -24 198<91.3256 210.907> 622 126<220.108 326.799>
VStem: 46 224<30.9927 128.356> 312 160<554.134 620.455>
DStem2: 206.5 476 303.5 373.5 0.735356 0.677681<-121.689 157.205>
LayerCount: 2
Fore
SplineSet
161 248 m 1,0,-1
 101 242 l 1,1,2
 101 297 101 297 116.5 340 c 128,-1,3
 132 383 132 383 155.5 416.5 c 128,-1,4
 179 450 179 450 206.5 476 c 128,-1,5
 234 502 234 502 257.5 523 c 128,-1,6
 281 544 281 544 296.5 561 c 128,-1,7
 312 578 312 578 312 594 c 0,8,9
 312 600 312 600 303.5 611 c 128,-1,10
 295 622 295 622 278 622 c 0,11,12
 258 622 258 622 230 606 c 128,-1,13
 202 590 202 590 176 571 c 0,14,15
 145 548 145 548 114 520 c 1,16,-1
 60 646 l 1,17,18
 112 693 112 693 177.5 720.5 c 128,-1,19
 243 748 243 748 310 748 c 0,20,21
 343 748 343 748 372.5 741 c 128,-1,22
 402 734 402 734 424 718 c 128,-1,23
 446 702 446 702 459 677 c 128,-1,24
 472 652 472 652 472 616 c 0,25,26
 472 566 472 566 456 531 c 128,-1,27
 440 496 440 496 415.5 469 c 128,-1,28
 391 442 391 442 361 419.5 c 128,-1,29
 331 397 331 397 303.5 373.5 c 128,-1,30
 276 350 276 350 253.5 321.5 c 128,-1,31
 231 293 231 293 221 254 c 1,32,-1
 161 248 l 1,0,-1
126 -24 m 0,33,34
 85 -24 85 -24 65.5 1.5 c 128,-1,35
 46 27 46 27 46 61 c 0,36,37
 46 81 46 81 53.5 101 c 128,-1,38
 61 121 61 121 75.5 137.5 c 128,-1,39
 90 154 90 154 111.5 164 c 128,-1,40
 133 174 133 174 161 174 c 0,41,42
 217 174 217 174 243.5 149.5 c 128,-1,43
 270 125 270 125 270 93 c 0,44,45
 270 72 270 72 260.5 51.5 c 128,-1,46
 251 31 251 31 232.5 14 c 128,-1,47
 214 -3 214 -3 187 -13.5 c 128,-1,48
 160 -24 160 -24 126 -24 c 0,33,34
EndSplineSet
EndChar

StartChar: bracketleft
Encoding: 91 91 75
Width: 373
Flags: W
HStem: -5 21G<12.5 37> 674 101<303 411.594>
DStem2: 55 262 203 118 0.195873 0.980629<-112.221 170.286 250.105 250.105 340.613 452.596>
LayerCount: 2
Fore
SplineSet
-2 -5 m 1,0,1
 27 126 27 126 55 262 c 0,2,3
 67 320 67 320 80 384 c 128,-1,4
 93 448 93 448 105.5 513.5 c 128,-1,5
 118 579 118 579 130 644.5 c 128,-1,6
 142 710 142 710 153 771 c 1,7,-1
 159 771 l 2,8,9
 168 771 168 771 181 771.5 c 128,-1,10
 194 772 194 772 207 773 c 0,11,12
 222 774 222 774 238 775 c 0,13,14
 275 776 275 776 311 779 c 0,15,16
 342 781 342 781 377 785 c 128,-1,17
 412 789 412 789 441 796 c 1,18,19
 434 766 434 766 426 735.5 c 128,-1,20
 418 705 418 705 412 675 c 1,21,22
 399 674 399 674 386 674 c 128,-1,23
 373 674 373 674 359 674 c 2,24,-1
 303 674 l 1,25,26
 291 612 291 612 282 564 c 128,-1,27
 273 516 273 516 265.5 475 c 128,-1,28
 258 434 258 434 251 396.5 c 128,-1,29
 244 359 244 359 237 318 c 128,-1,30
 230 277 230 277 221.5 228.5 c 128,-1,31
 213 180 213 180 203 118 c 1,32,33
 216 118 216 118 233.5 120 c 128,-1,34
 251 122 251 122 267 124.5 c 128,-1,35
 283 127 283 127 294 129.5 c 128,-1,36
 305 132 305 132 305 133 c 2,37,-1
 279 26 l 1,38,39
 219 18 219 18 147.5 11 c 128,-1,40
 76 4 76 4 -2 -5 c 1,0,1
EndSplineSet
EndChar

StartChar: bracketright
Encoding: 93 93 76
Width: 373
Flags: W
DStem2: 74 105 103 -14 0.992278 0.124035<-84.876 52.5907>
LayerCount: 2
Fore
SplineSet
409 779 m 1,0,1
 380 650 380 650 353 516 c 0,2,3
 341 459 341 459 328.5 395.5 c 128,-1,4
 316 332 316 332 303.5 266 c 128,-1,5
 291 200 291 200 279.5 133.5 c 128,-1,6
 268 67 268 67 259 5 c 1,7,8
 251 4 251 4 235 2 c 128,-1,9
 219 0 219 0 197.5 -2.5 c 128,-1,10
 176 -5 176 -5 151.5 -8 c 128,-1,11
 127 -11 127 -11 103 -14 c 0,12,13
 46 -21 46 -21 -21 -30 c 1,14,15
 -19 -7 -19 -7 -16 15 c 0,16,17
 -14 34 -14 34 -10.5 54.5 c 128,-1,18
 -7 75 -7 75 -4 91 c 1,19,20
 9 94 9 94 31 98 c 128,-1,21
 53 102 53 102 74 105 c 0,22,23
 99 109 99 109 126 113 c 1,24,-1
 219 636 l 1,25,-1
 102 623 l 1,26,-1
 111 741 l 1,27,-1
 409 779 l 1,0,1
EndSplineSet
EndChar

StartChar: asciicircum
Encoding: 94 94 77
Width: 373
Flags: W
HStem: 30 284
VStem: 208 112<72.0151 182>
LayerCount: 2
Fore
SplineSet
150 314 m 1,0,1
 164 313 164 313 177 313 c 128,-1,2
 190 313 190 313 204 313 c 0,3,4
 234 313 234 313 263.5 314 c 128,-1,5
 293 315 293 315 324 317 c 1,6,7
 321 300 321 300 320.5 282.5 c 128,-1,8
 320 265 320 265 320 247 c 0,9,10
 320 190 320 190 328.5 135.5 c 128,-1,11
 337 81 337 81 356 30 c 1,12,13
 319 34 319 34 282.5 36.5 c 128,-1,14
 246 39 246 39 209 39 c 1,15,16
 208 59 208 59 208 78 c 128,-1,17
 208 97 208 97 208 116 c 2,18,-1
 208 182 l 1,19,20
 197 145 197 145 186.5 108.5 c 128,-1,21
 176 72 176 72 164 36 c 1,22,23
 150 37 150 37 136.5 37 c 128,-1,24
 123 37 123 37 111 37 c 0,25,26
 61 37 61 37 10 34 c 1,27,28
 53 98 53 98 84 171 c 128,-1,29
 115 244 115 244 150 314 c 1,0,1
EndSplineSet
EndChar

StartChar: c
Encoding: 99 99 78
Width: 404
Flags: W
HStem: -2 172<128.5 229.249> 568 181<280.523 392.638>
VStem: -2 160<177.713 340.412>
LayerCount: 2
Fore
SplineSet
346 543 m 1,0,1
 334 568 334 568 317 568 c 0,2,3
 301 568 301 568 283 549 c 128,-1,4
 265 530 265 530 247.5 500 c 128,-1,5
 230 470 230 470 214 432.5 c 128,-1,6
 198 395 198 395 185.5 357 c 128,-1,7
 173 319 173 319 165.5 285 c 128,-1,8
 158 251 158 251 158 229 c 0,9,10
 158 197 158 197 166.5 183.5 c 128,-1,11
 175 170 175 170 189 170 c 0,12,13
 201 170 201 170 215 178.5 c 128,-1,14
 229 187 229 187 241.5 201 c 128,-1,15
 254 215 254 215 264 232.5 c 128,-1,16
 274 250 274 250 278 267 c 1,17,-1
 395 220 l 1,18,19
 371 164 371 164 340.5 122.5 c 128,-1,20
 310 81 310 81 277 53 c 128,-1,21
 244 25 244 25 210 11.5 c 128,-1,22
 176 -2 176 -2 144 -2 c 0,23,24
 113 -2 113 -2 86.5 12.5 c 128,-1,25
 60 27 60 27 40.5 55.5 c 128,-1,26
 21 84 21 84 9.5 126 c 128,-1,27
 -2 168 -2 168 -2 224 c 0,28,29
 -2 320 -2 320 24.5 414 c 128,-1,30
 51 508 51 508 99 582.5 c 128,-1,31
 147 657 147 657 213.5 703 c 128,-1,32
 280 749 280 749 359 749 c 0,33,34
 384 749 384 749 406.5 738.5 c 128,-1,35
 429 728 429 728 445.5 709.5 c 128,-1,36
 462 691 462 691 471.5 664.5 c 128,-1,37
 481 638 481 638 481 605 c 0,38,39
 481 599 481 599 481 592.5 c 128,-1,40
 481 586 481 586 480 579 c 1,41,-1
 346 543 l 1,0,1
EndSplineSet
EndChar

StartChar: underscore
Encoding: 95 95 79
Width: 373
Flags: W
HStem: -109 109<-29.5803 384.981>
LayerCount: 2
Fore
SplineSet
-26 3 m 1,0,1
 21 2 21 2 63 1 c 0,2,3
 99 0 99 0 136.5 0 c 128,-1,4
 174 0 174 0 197 0 c 0,5,6
 250 0 250 0 301 1 c 128,-1,7
 352 2 352 2 404 4 c 1,8,9
 399 -11 399 -11 395 -31 c 128,-1,10
 391 -51 391 -51 388 -69 c 0,11,12
 384 -90 384 -90 382 -112 c 1,13,14
 334 -112 334 -112 290 -111 c 0,15,16
 252 -110 252 -110 211.5 -109.5 c 128,-1,17
 171 -109 171 -109 144 -109 c 0,18,19
 96 -109 96 -109 47.5 -109.5 c 128,-1,20
 -1 -110 -1 -110 -49 -111 c 1,21,22
 -44 -99 -44 -99 -40 -80 c 128,-1,23
 -36 -61 -36 -61 -33 -42 c 0,24,25
 -29 -21 -29 -21 -26 3 c 1,0,1
EndSplineSet
EndChar

StartChar: r
Encoding: 114 114 80
Width: 408
Flags: W
HStem: -1 21G<-35 28.2093> 606 143<225 348.264>
VStem: 356 116<531.368 637.5>
DStem2: -49 -1 117 42 0.181774 0.98334<72.4581 336.05 480.411 649.903>
LayerCount: 2
Fore
SplineSet
259 16 m 1,0,1
 239 82 239 82 222 139 c 0,2,3
 215 163 215 163 208 188 c 128,-1,4
 201 213 201 213 195 235.5 c 128,-1,5
 189 258 189 258 184.5 276 c 128,-1,6
 180 294 180 294 179 305 c 1,7,-1
 166 301 l 1,8,9
 160 268 160 268 151.5 224 c 128,-1,10
 143 180 143 180 135 139 c 0,11,12
 126 91 126 91 117 42 c 1,13,-1
 -49 -1 l 1,14,15
 -21 135 -21 135 4 265 c 0,16,17
 14 320 14 320 25 380 c 128,-1,18
 36 440 36 440 46 499 c 128,-1,19
 56 558 56 558 64.5 613 c 128,-1,20
 73 668 73 668 78 713 c 1,21,22
 136 731 136 731 204 740 c 128,-1,23
 272 749 272 749 338 749 c 0,24,25
 378 749 378 749 404 739.5 c 128,-1,26
 430 730 430 730 445 713 c 128,-1,27
 460 696 460 696 466 673.5 c 128,-1,28
 472 651 472 651 472 624 c 0,29,30
 472 583 472 583 458 543.5 c 128,-1,31
 444 504 444 504 420 468.5 c 128,-1,32
 396 433 396 433 364.5 404 c 128,-1,33
 333 375 333 375 297 356 c 1,34,35
 316 315 316 315 337 266.5 c 128,-1,36
 358 218 358 218 376 174 c 0,37,38
 397 123 397 123 418 72 c 1,39,-1
 259 16 l 1,0,1
192 443 m 1,40,41
 211 445 211 445 239 459.5 c 128,-1,42
 267 474 267 474 293 494 c 128,-1,43
 319 514 319 514 337.5 535.5 c 128,-1,44
 356 557 356 557 356 573 c 0,45,46
 356 585 356 585 348.5 591.5 c 128,-1,47
 341 598 341 598 328.5 601.5 c 128,-1,48
 316 605 316 605 300.5 606 c 128,-1,49
 285 607 285 607 269 607 c 0,50,51
 257 607 257 607 245.5 606.5 c 128,-1,52
 234 606 234 606 225 606 c 1,53,-1
 192 443 l 1,40,41
EndSplineSet
EndChar

StartChar: d
Encoding: 100 100 81
Width: 428
Flags: W
HStem: -5 21G<9 50.5> 603 145<235 300.338>
VStem: 322 154<403.721 581.69>
DStem2: 13 275 138 124 0.172911 0.984937<-127.112 362.845>
LayerCount: 2
Fore
SplineSet
138 124 m 1,0,1
 163 140 163 140 186 168.5 c 128,-1,2
 209 197 209 197 229.5 233.5 c 128,-1,3
 250 270 250 270 267 311 c 128,-1,4
 284 352 284 352 296 391 c 128,-1,5
 308 430 308 430 315 464 c 128,-1,6
 322 498 322 498 322 522 c 0,7,8
 322 560 322 560 301 581.5 c 128,-1,9
 280 603 280 603 235 603 c 1,10,11
 223 543 223 543 211 487.5 c 128,-1,12
 199 432 199 432 186.5 375.5 c 128,-1,13
 174 319 174 319 162 258 c 128,-1,14
 150 197 150 197 138 124 c 1,0,1
92 725 m 1,15,16
 136 733 136 733 181 740.5 c 128,-1,17
 226 748 226 748 273 748 c 0,18,19
 329 748 329 748 367.5 730.5 c 128,-1,20
 406 713 406 713 430 682 c 128,-1,21
 454 651 454 651 465 610 c 128,-1,22
 476 569 476 569 476 523 c 0,23,24
 476 470 476 470 461 410 c 128,-1,25
 446 350 446 350 418 291 c 128,-1,26
 390 232 390 232 349.5 178.5 c 128,-1,27
 309 125 309 125 258 84.5 c 128,-1,28
 207 44 207 44 146 19.5 c 128,-1,29
 85 -5 85 -5 16 -5 c 0,30,31
 2 -5 2 -5 -12.5 -3.5 c 128,-1,32
 -27 -2 -27 -2 -41 0 c 1,33,34
 -13 141 -13 141 13 275 c 0,35,36
 24 332 24 332 35 393 c 128,-1,37
 46 454 46 454 56.5 513 c 128,-1,38
 67 572 67 572 76.5 626.5 c 128,-1,39
 86 681 86 681 92 725 c 1,15,16
EndSplineSet
EndChar

StartChar: g
Encoding: 103 103 82
Width: 489
Flags: W
HStem: -25 154<174.64 272.906> 638 128<287.888 393.5>
VStem: -8 160<154.843 388.103>
LayerCount: 2
Fore
SplineSet
390 562 m 1,0,1
 381 603 381 603 365.5 620.5 c 128,-1,2
 350 638 350 638 331 638 c 0,3,4
 305 638 305 638 274.5 601.5 c 128,-1,5
 244 565 244 565 217.5 508 c 128,-1,6
 191 451 191 451 172.5 382 c 128,-1,7
 154 313 154 313 152 247 c 1,8,9
 152 183 152 183 171 156 c 128,-1,10
 190 129 190 129 219 129 c 0,11,12
 240 129 240 129 262 139.5 c 128,-1,13
 284 150 284 150 301.5 168.5 c 128,-1,14
 319 187 319 187 330.5 212.5 c 128,-1,15
 342 238 342 238 343 267 c 1,16,-1
 234 251 l 1,17,-1
 253 352 l 1,18,19
 301 358 301 358 347 365 c 0,20,21
 386 370 386 370 429.5 377 c 128,-1,22
 473 384 473 384 506 390 c 1,23,24
 499 286 499 286 465 208.5 c 128,-1,25
 431 131 431 131 383.5 79 c 128,-1,26
 336 27 336 27 281 1 c 128,-1,27
 226 -25 226 -25 177 -25 c 0,28,29
 139 -25 139 -25 105 -8.5 c 128,-1,30
 71 8 71 8 46 41.5 c 128,-1,31
 21 75 21 75 6.5 125 c 128,-1,32
 -8 175 -8 175 -8 243 c 0,33,34
 -8 375 -8 375 30 473 c 128,-1,35
 68 571 68 571 125.5 636.5 c 128,-1,36
 183 702 183 702 249.5 734 c 128,-1,37
 316 766 316 766 373 766 c 0,38,39
 414 766 414 766 444 751.5 c 128,-1,40
 474 737 474 737 493.5 713 c 128,-1,41
 513 689 513 689 522 657 c 128,-1,42
 531 625 531 625 531 589 c 1,43,-1
 390 562 l 1,0,1
EndSplineSet
EndChar

StartChar: p
Encoding: 112 112 83
Width: 368
Flags: W
HStem: -1 21G<-29.5 56.1429> 736 20G<260 296>
VStem: 295 142<454.379 614.902>
DStem2: 13 269 145 116 0.199898 0.979817<-205.176 30.0241 140.042 401.25>
LayerCount: 2
Fore
SplineSet
-45 -1 m 1,0,1
 -14 137 -14 137 13 269 c 0,2,3
 25 325 25 325 37 386 c 128,-1,4
 49 447 49 447 60.5 506.5 c 128,-1,5
 72 566 72 566 82 621.5 c 128,-1,6
 92 677 92 677 99 723 c 1,7,8
 129 732 129 732 160 739 c 0,9,10
 186 745 186 745 216.5 750.5 c 128,-1,11
 247 756 247 756 273 756 c 0,12,13
 319 756 319 756 350.5 740.5 c 128,-1,14
 382 725 382 725 401.5 699 c 128,-1,15
 421 673 421 673 429 638 c 128,-1,16
 437 603 437 603 437 563 c 0,17,18
 437 506 437 506 416 452.5 c 128,-1,19
 395 399 395 399 360 357.5 c 128,-1,20
 325 316 325 316 279 291.5 c 128,-1,21
 233 267 233 267 184 267 c 2,22,-1
 173 267 l 1,23,24
 165 232 165 232 158 191.5 c 128,-1,25
 151 151 151 151 145 116 c 0,26,27
 138 75 138 75 132 34 c 1,28,-1
 -45 -1 l 1,0,1
241 632 m 1,29,30
 229 564 229 564 218 503.5 c 128,-1,31
 207 443 207 443 194 375 c 1,32,33
 210 379 210 379 228 394 c 128,-1,34
 246 409 246 409 261 433 c 128,-1,35
 276 457 276 457 285.5 488.5 c 128,-1,36
 295 520 295 520 295 555 c 0,37,38
 295 593 295 593 278 612.5 c 128,-1,39
 261 632 261 632 241 632 c 1,29,30
EndSplineSet
EndChar

StartChar: j
Encoding: 106 106 84
Width: 333
Flags: W
HStem: -1 186<19.0212 102.824>
DStem2: 119 253.5 278 272 0.187566 0.982252<-72.699 511.349>
LayerCount: 2
Fore
SplineSet
28 211 m 1,0,1
 33 201 33 201 48 193 c 128,-1,2
 63 185 63 185 80 185 c 0,3,4
 93 185 93 185 102.5 205.5 c 128,-1,5
 112 226 112 226 119 253.5 c 128,-1,6
 126 281 126 281 130 309.5 c 128,-1,7
 134 338 134 338 137 355 c 0,8,9
 156 455 156 455 173.5 553.5 c 128,-1,10
 191 652 191 652 214 751 c 1,11,12
 260 755 260 755 305 763.5 c 128,-1,13
 350 772 350 772 395 784 c 1,14,15
 379 732 379 732 362.5 665.5 c 128,-1,16
 346 599 346 599 331 529.5 c 128,-1,17
 316 460 316 460 302 393 c 128,-1,18
 288 326 288 326 278 272 c 0,19,20
 269 227 269 227 255.5 178.5 c 128,-1,21
 242 130 242 130 220 90.5 c 128,-1,22
 198 51 198 51 167 25 c 128,-1,23
 136 -1 136 -1 93 -1 c 0,24,25
 64 -1 64 -1 30.5 11.5 c 128,-1,26
 -3 24 -3 24 -43 53 c 1,27,-1
 28 211 l 1,0,1
EndSplineSet
EndChar

StartChar: q
Encoding: 113 113 85
Width: 526
Flags: W
HStem: -4 169<130.5 241.898> 551 215<284.603 404.672>
VStem: -6 152<180.544 359.09> 393 142<377.456 630>
LayerCount: 2
Fore
SplineSet
535 554 m 0,0,1
 535 454 535 454 510.5 369.5 c 128,-1,2
 486 285 486 285 447 217 c 1,3,-1
 545 102 l 1,4,5
 522 73 522 73 500 45 c 0,6,7
 481 21 481 21 460 -5 c 128,-1,8
 439 -31 439 -31 424 -49 c 1,9,10
 403 -20 403 -20 381 9.5 c 128,-1,11
 359 39 359 39 339 70 c 2,12,-1
 334 78 l 1,13,14
 287 38 287 38 239 17 c 128,-1,15
 191 -4 191 -4 147 -4 c 0,16,17
 114 -4 114 -4 86 8.5 c 128,-1,18
 58 21 58 21 37.5 46.5 c 128,-1,19
 17 72 17 72 5.5 111.5 c 128,-1,20
 -6 151 -6 151 -6 206 c 0,21,22
 -6 263 -6 263 8 326.5 c 128,-1,23
 22 390 22 390 47 452.5 c 128,-1,24
 72 515 72 515 107.5 571.5 c 128,-1,25
 143 628 143 628 186 671.5 c 128,-1,26
 229 715 229 715 278.5 740.5 c 128,-1,27
 328 766 328 766 381 766 c 0,28,29
 427 766 427 766 457 747 c 128,-1,30
 487 728 487 728 504 698 c 128,-1,31
 521 668 521 668 528 630 c 128,-1,32
 535 592 535 592 535 554 c 0,0,1
393 468 m 0,33,34
 393 480 393 480 391.5 494.5 c 128,-1,35
 390 509 390 509 385.5 521.5 c 128,-1,36
 381 534 381 534 371 542.5 c 128,-1,37
 361 551 361 551 345 551 c 0,38,39
 312 551 312 551 284.5 534.5 c 128,-1,40
 257 518 257 518 235 491 c 128,-1,41
 213 464 213 464 196.5 429.5 c 128,-1,42
 180 395 180 395 168.5 360 c 128,-1,43
 157 325 157 325 151.5 291 c 128,-1,44
 146 257 146 257 146 232 c 0,45,46
 146 221 146 221 150 209 c 128,-1,47
 154 197 154 197 161.5 187.5 c 128,-1,48
 169 178 169 178 179.5 171.5 c 128,-1,49
 190 165 190 165 203 165 c 0,50,51
 238 165 238 165 268 184 c 1,52,-1
 227 252 l 1,53,54
 270 285 270 285 293 303.5 c 128,-1,55
 316 322 316 322 327 330 c 0,56,57
 339 340 339 340 341 342 c 1,58,-1
 363 316 l 1,59,60
 377 354 377 354 385 394 c 128,-1,61
 393 434 393 434 393 468 c 0,33,34
EndSplineSet
EndChar

StartChar: parenright
Encoding: 41 41 86
Width: 390
Flags: W
VStem: 216 190<326.523 642.447>
LayerCount: 2
Fore
SplineSet
-53 2 m 1,0,1
 13 31 13 31 63.5 84.5 c 128,-1,2
 114 138 114 138 147.5 204.5 c 128,-1,3
 181 271 181 271 198.5 345.5 c 128,-1,4
 216 420 216 420 216 492 c 0,5,6
 216 537 216 537 209 579.5 c 128,-1,7
 202 622 202 622 188 659 c 128,-1,8
 174 696 174 696 153 726.5 c 128,-1,9
 132 757 132 757 103 778 c 1,10,-1
 264 898 l 1,11,12
 336 817 336 817 371 718 c 128,-1,13
 406 619 406 619 406 510 c 0,14,15
 406 389 406 389 371 282 c 128,-1,16
 336 175 336 175 282 89.5 c 128,-1,17
 228 4 228 4 163.5 -55.5 c 128,-1,18
 99 -115 99 -115 40 -140 c 1,19,-1
 -53 2 l 1,0,1
EndSplineSet
EndChar

StartChar: three
Encoding: 51 51 87
Width: 470
Flags: W
HStem: -12 162<121.5 249.899> 562 176<87 239.797> 565 181<89.9031 240> 734 20G<483 487.798>
VStem: 284 168<182.571 275.115>
LayerCount: 2
Fore
SplineSet
159 188 m 1,0,1
 159 168 159 168 169 159 c 128,-1,2
 179 150 179 150 194 150 c 0,3,4
 208 150 208 150 223.5 156.5 c 128,-1,5
 239 163 239 163 252.5 174 c 128,-1,6
 266 185 266 185 275 199.5 c 128,-1,7
 284 214 284 214 284 231 c 0,8,9
 284 256 284 256 260 276.5 c 128,-1,10
 236 297 236 297 182 297 c 0,11,12
 142 297 142 297 103 291.5 c 128,-1,13
 64 286 64 286 38 284 c 1,14,-1
 56 435 l 1,15,16
 87 455 87 455 119.5 477 c 128,-1,17
 152 499 152 499 179 519 c 0,18,19
 211 542 211 542 240 565 c 1,20,-1
 75 562 l 1,21,-1
 87 738 l 1,22,23
 180 742 180 742 260 746 c 0,24,25
 294 747 294 747 329 748.5 c 128,-1,26
 364 750 364 750 395 751.5 c 128,-1,27
 426 753 426 753 451 753.5 c 128,-1,28
 476 754 476 754 490 754 c 1,29,-1
 466 536 l 1,30,-1
 261 428 l 1,31,32
 312 419 312 419 348.5 402.5 c 128,-1,33
 385 386 385 386 408 364 c 128,-1,34
 431 342 431 342 441.5 316 c 128,-1,35
 452 290 452 290 452 262 c 0,36,37
 452 215 452 215 426 166 c 128,-1,38
 400 117 400 117 356.5 77.5 c 128,-1,39
 313 38 313 38 256.5 13 c 128,-1,40
 200 -12 200 -12 139 -12 c 0,41,42
 104 -12 104 -12 73.5 -4 c 128,-1,43
 43 4 43 4 20 21 c 128,-1,44
 -3 38 -3 38 -16.5 64 c 128,-1,45
 -30 90 -30 90 -30 126 c 0,46,47
 -30 149 -30 149 -21 178 c 1,48,-1
 159 188 l 1,0,1
EndSplineSet
EndChar

StartChar: five
Encoding: 53 53 88
Width: 452
Flags: W
HStem: -5 192<156.578 242.807> 575.5 171.5<289.632 456>
VStem: -7 158<157 251.17> 271 179<222.667 329.919>
LayerCount: 2
Fore
SplineSet
456 580 m 1,0,1
 399 578 399 578 340 575.5 c 128,-1,2
 281 573 281 573 219 570 c 1,3,4
 217 556 217 556 214.5 533.5 c 128,-1,5
 212 511 212 511 209 484 c 1,6,7
 275 484 275 484 321 472 c 128,-1,8
 367 460 367 460 395.5 438.5 c 128,-1,9
 424 417 424 417 437 387.5 c 128,-1,10
 450 358 450 358 450 323 c 0,11,12
 450 287 450 287 437.5 249 c 128,-1,13
 425 211 425 211 404 174.5 c 128,-1,14
 383 138 383 138 354.5 105.5 c 128,-1,15
 326 73 326 73 293.5 48.5 c 128,-1,16
 261 24 261 24 226.5 9.5 c 128,-1,17
 192 -5 192 -5 159 -5 c 0,18,19
 120 -5 120 -5 89 8.5 c 128,-1,20
 58 22 58 22 37 46 c 128,-1,21
 16 70 16 70 4.5 103.5 c 128,-1,22
 -7 137 -7 137 -7 177 c 0,23,24
 -7 197 -7 197 -5.5 218.5 c 128,-1,25
 -4 240 -4 240 -2 263 c 1,26,-1
 156 251 l 1,27,28
 151 236 151 236 151 226 c 0,29,30
 151 206 151 206 163 196.5 c 128,-1,31
 175 187 175 187 192 187 c 0,32,33
 205 187 205 187 219 193 c 128,-1,34
 233 199 233 199 244.5 211 c 128,-1,35
 256 223 256 223 263.5 241.5 c 128,-1,36
 271 260 271 260 271 285 c 0,37,38
 271 297 271 297 267 308.5 c 128,-1,39
 263 320 263 320 251.5 328.5 c 128,-1,40
 240 337 240 337 218.5 342.5 c 128,-1,41
 197 348 197 348 162 348 c 0,42,43
 153 348 153 348 143 347.5 c 128,-1,44
 133 347 133 347 117 345 c 128,-1,45
 101 343 101 343 77.5 339.5 c 128,-1,46
 54 336 54 336 19 330 c 1,47,48
 30 407 30 407 46.5 506.5 c 128,-1,49
 63 606 63 606 86 732 c 1,50,-1
 476 747 l 1,51,-1
 456 580 l 1,0,1
EndSplineSet
EndChar

StartChar: six
Encoding: 54 54 89
Width: 480
Flags: W
HStem: 5 154<195.424 295.147> 282 123<204.724 314.431> 585 171<279.926 340.614>
VStem: -1 182<179.632 270.812> 327 134<190.433 270.425>
LayerCount: 2
Fore
SplineSet
350 512 m 1,0,1
 350 550 350 550 340 567.5 c 128,-1,2
 330 585 330 585 313 585 c 0,3,4
 301 585 301 585 286.5 570.5 c 128,-1,5
 272 556 272 556 257 530.5 c 128,-1,6
 242 505 242 505 228 469.5 c 128,-1,7
 214 434 214 434 204 392 c 1,8,9
 249 405 249 405 288 405 c 0,10,11
 331 405 331 405 363 390.5 c 128,-1,12
 395 376 395 376 417 351.5 c 128,-1,13
 439 327 439 327 450 295 c 128,-1,14
 461 263 461 263 461 229 c 0,15,16
 461 188 461 188 445.5 148 c 128,-1,17
 430 108 430 108 399.5 76.5 c 128,-1,18
 369 45 369 45 322.5 25 c 128,-1,19
 276 5 276 5 213 5 c 0,20,21
 170 5 170 5 131 21 c 128,-1,22
 92 37 92 37 63 68.5 c 128,-1,23
 34 100 34 100 16.5 147.5 c 128,-1,24
 -1 195 -1 195 -1 259 c 0,25,26
 -1 384 -1 384 32.5 477.5 c 128,-1,27
 66 571 66 571 116.5 633 c 128,-1,28
 167 695 167 695 226.5 725.5 c 128,-1,29
 286 756 286 756 338 756 c 0,30,31
 376 756 376 756 404.5 741.5 c 128,-1,32
 433 727 433 727 452.5 703 c 128,-1,33
 472 679 472 679 481.5 647 c 128,-1,34
 491 615 491 615 491 579 c 1,35,-1
 350 512 l 1,0,1
247 282 m 0,36,37
 233 282 233 282 217 279.5 c 128,-1,38
 201 277 201 277 182 271 c 1,39,40
 181 265 181 265 181 259 c 128,-1,41
 181 253 181 253 181 247 c 0,42,43
 181 199 181 199 196 179 c 128,-1,44
 211 159 211 159 231 159 c 256,45,46
 251 159 251 159 268.5 166 c 128,-1,47
 286 173 286 173 299 184.5 c 128,-1,48
 312 196 312 196 319.5 211 c 128,-1,49
 327 226 327 226 327 241 c 0,50,51
 327 257 327 257 309.5 269.5 c 128,-1,52
 292 282 292 282 247 282 c 0,36,37
EndSplineSet
EndChar

StartChar: seven
Encoding: 55 55 90
Width: 368
Flags: W
HStem: 738 20G<220.387 444.896>
DStem2: 9 9 192 26 0.334705 0.942323<77.2705 595.646>
LayerCount: 2
Fore
SplineSet
452 758 m 1,0,-1
 192 26 l 1,1,-1
 9 9 l 1,2,-1
 212 569 l 1,3,-1
 61 547 l 1,4,-1
 93 727 l 1,5,-1
 452 758 l 1,0,-1
EndSplineSet
EndChar

StartChar: nine
Encoding: 57 57 91
Width: 518
Flags: W
HStem: 7 170<135 221.663> 321 156<224.453 315.777> 612 149<232.064 334.276>
VStem: 42 167<493.295 588.773> 349 178<430 597.935>
LayerCount: 2
Fore
SplineSet
135 177 m 1,0,1
 169 177 169 177 200 189 c 128,-1,2
 231 201 231 201 256 223.5 c 128,-1,3
 281 246 281 246 299 278 c 128,-1,4
 317 310 317 310 326 349 c 1,5,6
 303 335 303 335 277 328 c 128,-1,7
 251 321 251 321 225 321 c 0,8,9
 190 321 190 321 157 335 c 128,-1,10
 124 349 124 349 98.5 375 c 128,-1,11
 73 401 73 401 57.5 438 c 128,-1,12
 42 475 42 475 42 522 c 0,13,14
 42 579 42 579 63 623.5 c 128,-1,15
 84 668 84 668 118 698.5 c 128,-1,16
 152 729 152 729 195.5 745 c 128,-1,17
 239 761 239 761 284 761 c 256,18,19
 329 761 329 761 373 744.5 c 128,-1,20
 417 728 417 728 451 693.5 c 128,-1,21
 485 659 485 659 506 606.5 c 128,-1,22
 527 554 527 554 527 482 c 0,23,24
 527 378 527 378 492 290.5 c 128,-1,25
 457 203 457 203 400 140 c 128,-1,26
 343 77 343 77 270 42 c 128,-1,27
 197 7 197 7 120 7 c 1,28,-1
 135 177 l 1,0,1
209 542 m 0,29,30
 209 508 209 508 231.5 492.5 c 128,-1,31
 254 477 254 477 280 477 c 256,32,33
 306 477 306 477 327.5 491.5 c 128,-1,34
 349 506 349 506 349 533 c 0,35,36
 349 581 349 581 332 596.5 c 128,-1,37
 315 612 315 612 292 612 c 0,38,39
 278 612 278 612 263 607 c 128,-1,40
 248 602 248 602 236 593 c 128,-1,41
 224 584 224 584 216.5 571 c 128,-1,42
 209 558 209 558 209 542 c 0,29,30
EndSplineSet
EndChar

StartChar: semicolon
Encoding: 59 59 92
Width: 240
Flags: W
HStem: 344.5 221.5<90 220.598>
VStem: -26 278
DStem2: 55 344 218 348 0.1865 0.982455<-349.571 -295.658 29.0186 224.633>
LayerCount: 2
Fore
SplineSet
252 570 m 1,0,1
 249 536 249 536 245 508.5 c 128,-1,2
 241 481 241 481 236.5 455.5 c 128,-1,3
 232 430 232 430 227 404 c 128,-1,4
 222 378 222 378 218 348 c 1,5,6
 201 347 201 347 181.5 346.5 c 128,-1,7
 162 346 162 346 142 345.5 c 128,-1,8
 122 345 122 345 102.5 344.5 c 128,-1,9
 83 344 83 344 67 344 c 2,10,-1
 55 344 l 1,11,12
 63 401 63 401 72 456 c 128,-1,13
 81 511 81 511 90 566 c 1,14,15
 109 566 109 566 126 566 c 128,-1,16
 143 566 143 566 161.5 566.5 c 128,-1,17
 180 567 180 567 202 567.5 c 128,-1,18
 224 568 224 568 252 570 c 1,0,1
-26 -27 m 1,19,20
 -18 14 -18 14 -8.5 56.5 c 128,-1,21
 1 99 1 99 9 138.5 c 128,-1,22
 17 178 17 178 24 212 c 128,-1,23
 31 246 31 246 34 271 c 1,24,25
 42 271 42 271 60 270.5 c 128,-1,26
 78 270 78 270 87 270 c 0,27,28
 101 270 101 270 124 270 c 128,-1,29
 147 270 147 270 168 271 c 0,30,31
 193 272 193 272 219 273 c 1,32,33
 211 235 211 235 197 183.5 c 128,-1,34
 183 132 183 132 169 85 c 0,35,36
 152 30 152 30 135 -27 c 1,37,-1
 -26 -27 l 1,19,20
EndSplineSet
EndChar

StartChar: at
Encoding: 64 64 93
Width: 1025
Flags: W
HStem: 86 107<368.5 481.707> 403 90<493.225 614.692> 584 152<458.501 735.422>
VStem: 9 163<115.46 360.093> 237 157<205.503 297.766> 856 155<313.516 484.611>
LayerCount: 2
Fore
SplineSet
551 489 m 0,0,1
 563 491 563 491 577 492 c 128,-1,2
 591 493 591 493 606 493 c 0,3,4
 640 493 640 493 682.5 483.5 c 128,-1,5
 725 474 725 474 770 449 c 1,6,7
 764 428 764 428 758 406 c 0,8,9
 753 387 753 387 747 364.5 c 128,-1,10
 741 342 741 342 736 322 c 2,11,-1
 704 193 l 1,12,13
 790 240 790 240 823 294 c 128,-1,14
 856 348 856 348 856 401 c 0,15,16
 856 447 856 447 835.5 481.5 c 128,-1,17
 815 516 815 516 780 539 c 128,-1,18
 745 562 745 562 698.5 573 c 128,-1,19
 652 584 652 584 600 584 c 0,20,21
 523 584 523 584 447 562 c 128,-1,22
 371 540 371 540 309.5 497 c 128,-1,23
 248 454 248 454 210 391 c 128,-1,24
 172 328 172 328 172 247 c 0,25,26
 172 176 172 176 198 105 c 1,27,-1
 67 -24 l 1,28,29
 37 42 37 42 23 105 c 128,-1,30
 9 168 9 168 9 228 c 0,31,32
 9 310 9 310 35.5 379.5 c 128,-1,33
 62 449 62 449 107.5 505.5 c 128,-1,34
 153 562 153 562 214.5 605 c 128,-1,35
 276 648 276 648 346 677 c 128,-1,36
 416 706 416 706 490.5 721 c 128,-1,37
 565 736 565 736 637 736 c 0,38,39
 731 736 731 736 801 707.5 c 128,-1,40
 871 679 871 679 917.5 632.5 c 128,-1,41
 964 586 964 586 987.5 526 c 128,-1,42
 1011 466 1011 466 1011 404 c 0,43,44
 1011 341 1011 341 987 280.5 c 128,-1,45
 963 220 963 220 916 172.5 c 128,-1,46
 869 125 869 125 798 96 c 128,-1,47
 727 67 727 67 633 67 c 0,48,49
 615 67 615 67 597.5 69.5 c 128,-1,50
 580 72 580 72 565.5 77.5 c 128,-1,51
 551 83 551 83 542.5 91.5 c 128,-1,52
 534 100 534 100 534 112 c 0,53,54
 534 126 534 126 538 139 c 1,55,56
 500 115 500 115 463 100.5 c 128,-1,57
 426 86 426 86 388 86 c 0,58,59
 349 86 349 86 321 96 c 128,-1,60
 293 106 293 106 274 123.5 c 128,-1,61
 255 141 255 141 246 164.5 c 128,-1,62
 237 188 237 188 237 215 c 0,63,64
 237 258 237 258 261.5 302 c 128,-1,65
 286 346 286 346 328.5 384.5 c 128,-1,66
 371 423 371 423 428 451 c 128,-1,67
 485 479 485 479 551 489 c 0,0,1
615 399 m 1,68,69
 607 401 607 401 600 402 c 128,-1,70
 593 403 593 403 585 403 c 0,71,72
 552 403 552 403 518 391 c 128,-1,73
 484 379 484 379 456.5 358 c 128,-1,74
 429 337 429 337 411.5 308.5 c 128,-1,75
 394 280 394 280 394 247 c 0,76,77
 394 223 394 223 408.5 208 c 128,-1,78
 423 193 423 193 465 193 c 0,79,80
 487 193 487 193 511.5 199.5 c 128,-1,81
 536 206 536 206 559 217 c 1,82,-1
 615 399 l 1,68,69
EndSplineSet
EndChar

StartChar: C
Encoding: 67 67 94
Width: 404
Flags: W
HStem: -2 172<128.5 229.249> 568 181<280.523 392.638>
VStem: -2 160<177.713 340.412>
LayerCount: 2
Fore
SplineSet
346 543 m 1,0,1
 334 568 334 568 317 568 c 0,2,3
 301 568 301 568 283 549 c 128,-1,4
 265 530 265 530 247.5 500 c 128,-1,5
 230 470 230 470 214 432.5 c 128,-1,6
 198 395 198 395 185.5 357 c 128,-1,7
 173 319 173 319 165.5 285 c 128,-1,8
 158 251 158 251 158 229 c 0,9,10
 158 197 158 197 166.5 183.5 c 128,-1,11
 175 170 175 170 189 170 c 0,12,13
 201 170 201 170 215 178.5 c 128,-1,14
 229 187 229 187 241.5 201 c 128,-1,15
 254 215 254 215 264 232.5 c 128,-1,16
 274 250 274 250 278 267 c 1,17,-1
 395 220 l 1,18,19
 371 164 371 164 340.5 122.5 c 128,-1,20
 310 81 310 81 277 53 c 128,-1,21
 244 25 244 25 210 11.5 c 128,-1,22
 176 -2 176 -2 144 -2 c 0,23,24
 113 -2 113 -2 86.5 12.5 c 128,-1,25
 60 27 60 27 40.5 55.5 c 128,-1,26
 21 84 21 84 9.5 126 c 128,-1,27
 -2 168 -2 168 -2 224 c 0,28,29
 -2 320 -2 320 24.5 414 c 128,-1,30
 51 508 51 508 99 582.5 c 128,-1,31
 147 657 147 657 213.5 703 c 128,-1,32
 280 749 280 749 359 749 c 0,33,34
 384 749 384 749 406.5 738.5 c 128,-1,35
 429 728 429 728 445.5 709.5 c 128,-1,36
 462 691 462 691 471.5 664.5 c 128,-1,37
 481 638 481 638 481 605 c 0,38,39
 481 599 481 599 481 592.5 c 128,-1,40
 481 586 481 586 480 579 c 1,41,-1
 346 543 l 1,0,1
EndSplineSet
EndChar

StartChar: D
Encoding: 68 68 95
Width: 428
Flags: W
HStem: -5 21G<9 50.5> 603 145<235 300.338>
VStem: 322 154<403.721 581.69>
DStem2: 13 275 138 124 0.172911 0.984937<-127.112 362.845>
LayerCount: 2
Fore
SplineSet
138 124 m 1,0,1
 163 140 163 140 186 168.5 c 128,-1,2
 209 197 209 197 229.5 233.5 c 128,-1,3
 250 270 250 270 267 311 c 128,-1,4
 284 352 284 352 296 391 c 128,-1,5
 308 430 308 430 315 464 c 128,-1,6
 322 498 322 498 322 522 c 0,7,8
 322 560 322 560 301 581.5 c 128,-1,9
 280 603 280 603 235 603 c 1,10,11
 223 543 223 543 211 487.5 c 128,-1,12
 199 432 199 432 186.5 375.5 c 128,-1,13
 174 319 174 319 162 258 c 128,-1,14
 150 197 150 197 138 124 c 1,0,1
92 725 m 1,15,16
 136 733 136 733 181 740.5 c 128,-1,17
 226 748 226 748 273 748 c 0,18,19
 329 748 329 748 367.5 730.5 c 128,-1,20
 406 713 406 713 430 682 c 128,-1,21
 454 651 454 651 465 610 c 128,-1,22
 476 569 476 569 476 523 c 0,23,24
 476 470 476 470 461 410 c 128,-1,25
 446 350 446 350 418 291 c 128,-1,26
 390 232 390 232 349.5 178.5 c 128,-1,27
 309 125 309 125 258 84.5 c 128,-1,28
 207 44 207 44 146 19.5 c 128,-1,29
 85 -5 85 -5 16 -5 c 0,30,31
 2 -5 2 -5 -12.5 -3.5 c 128,-1,32
 -27 -2 -27 -2 -41 0 c 1,33,34
 -13 141 -13 141 13 275 c 0,35,36
 24 332 24 332 35 393 c 128,-1,37
 46 454 46 454 56.5 513 c 128,-1,38
 67 572 67 572 76.5 626.5 c 128,-1,39
 86 681 86 681 92 725 c 1,15,16
EndSplineSet
EndChar

StartChar: H
Encoding: 72 72 96
Width: 442
Flags: W
HStem: -2 21G<-25.5 56.7576> 730 20G<91 248.5 505 512>
DStem2: -39 -2 119 31 0.173026 0.984917<59.8404 363.208 483.182 646.625>
LayerCount: 2
Fore
SplineSet
-39 -2 m 1,0,1
 -12 139 -12 139 13 275 c 0,2,3
 23 333 23 333 34 395 c 128,-1,4
 45 457 45 457 55.5 517.5 c 128,-1,5
 66 578 66 578 75 634.5 c 128,-1,6
 84 691 84 691 91 738 c 1,7,-1
 257 750 l 1,8,9
 240 678 240 678 223 600 c 128,-1,10
 206 522 206 522 192 448 c 1,11,-1
 293 460 l 1,12,13
 307 532 307 532 318.5 600.5 c 128,-1,14
 330 669 330 669 348 741 c 1,15,16
 372 745 372 745 400.5 748 c 128,-1,17
 429 751 429 751 453.5 753 c 128,-1,18
 478 755 478 755 495 756.5 c 128,-1,19
 512 758 512 758 512 758 c 1,20,21
 498 712 498 712 485 657 c 128,-1,22
 472 602 472 602 460 543 c 128,-1,23
 448 484 448 484 436.5 424 c 128,-1,24
 425 364 425 364 416 309 c 0,25,26
 393 179 393 179 374 43 c 1,27,-1
 214 25 l 1,28,29
 227 86 227 86 238 144 c 0,30,31
 248 194 248 194 258.5 247 c 128,-1,32
 269 300 269 300 276 338 c 1,33,-1
 176 329 l 1,34,35
 169 290 169 290 159.5 238.5 c 128,-1,36
 150 187 150 187 141 141 c 0,37,38
 130 86 130 86 119 31 c 1,39,-1
 -39 -2 l 1,0,1
EndSplineSet
EndChar

StartChar: acute
Encoding: 180 180 107
Width: 373
Flags: W
VStem: 35 260
LayerCount: 2
Fore
SplineSet
295 110 m 1,0,1
 235 86 235 86 165 61 c 128,-1,2
 95 36 95 36 35 13 c 1,3,4
 34 24 34 24 34 33.5 c 128,-1,5
 34 43 34 43 34 52 c 0,6,7
 34 69 34 69 34.5 85.5 c 128,-1,8
 35 102 35 102 35 121 c 1,9,10
 105 191 105 191 166 246.5 c 128,-1,11
 227 302 227 302 281 360 c 1,12,13
 286 292 286 292 286.5 232.5 c 128,-1,14
 287 173 287 173 295 110 c 1,0,1
EndSplineSet
EndChar

StartChar: dieresis
Encoding: 168 168 118
Width: 661
Flags: W
HStem: 5 179<170.033 293.656 408.033 531.719>
VStem: 141 191<41.5737 155.287> 379 191<41.5737 155.287>
LayerCount: 2
Fore
SplineSet
223 5 m 0,0,1
 182 5 182 5 161.5 32 c 128,-1,2
 141 59 141 59 141 93 c 0,3,4
 141 110 141 110 146.5 126.5 c 128,-1,5
 152 143 152 143 163.5 155.5 c 128,-1,6
 175 168 175 168 192.5 176 c 128,-1,7
 210 184 210 184 233 184 c 0,8,9
 283 184 283 184 307.5 158.5 c 128,-1,10
 332 133 332 133 332 101 c 0,11,12
 332 83 332 83 325 66 c 128,-1,13
 318 49 318 49 304 35.5 c 128,-1,14
 290 22 290 22 269.5 13.5 c 128,-1,15
 249 5 249 5 223 5 c 0,0,1
461 5 m 0,16,17
 420 5 420 5 399.5 32 c 128,-1,18
 379 59 379 59 379 93 c 0,19,20
 379 110 379 110 384.5 126.5 c 128,-1,21
 390 143 390 143 401.5 155.5 c 128,-1,22
 413 168 413 168 430.5 176 c 128,-1,23
 448 184 448 184 472 184 c 0,24,25
 521 184 521 184 545.5 158.5 c 128,-1,26
 570 133 570 133 570 101 c 0,27,28
 570 83 570 83 563 66 c 128,-1,29
 556 49 556 49 542 35.5 c 128,-1,30
 528 22 528 22 508 13.5 c 128,-1,31
 488 5 488 5 461 5 c 0,16,17
EndSplineSet
EndChar

StartChar: ring
Encoding: 730 730 131
Width: 294
Flags: W
HStem: 0 54<126.719 217.533> 171 60<127.964 221.014>
VStem: 52 62<68.267 155.875> 234 52<71.7802 157.407>
LayerCount: 2
Fore
SplineSet
168 54 m 0,0,1
 200 54 200 54 217 74 c 128,-1,2
 234 94 234 94 234 117 c 0,3,4
 234 138 234 138 219 154.5 c 128,-1,5
 204 171 204 171 174 171 c 256,6,7
 144 171 144 171 129 152.5 c 128,-1,8
 114 134 114 134 114 111 c 0,9,10
 114 90 114 90 128 72 c 128,-1,11
 142 54 142 54 168 54 c 0,0,1
157 0 m 0,12,13
 131 0 131 0 111.5 9.5 c 128,-1,14
 92 19 92 19 78.5 35 c 128,-1,15
 65 51 65 51 58.5 71.5 c 128,-1,16
 52 92 52 92 52 113 c 0,17,18
 52 135 52 135 59 156.5 c 128,-1,19
 66 178 66 178 81 194.5 c 128,-1,20
 96 211 96 211 118.5 221 c 128,-1,21
 141 231 141 231 171 231 c 0,22,23
 200 231 200 231 221.5 222 c 128,-1,24
 243 213 243 213 257.5 198.5 c 128,-1,25
 272 184 272 184 279 164.5 c 128,-1,26
 286 145 286 145 286 124 c 0,27,28
 286 101 286 101 277.5 79 c 128,-1,29
 269 57 269 57 252.5 39.5 c 128,-1,30
 236 22 236 22 212 11 c 128,-1,31
 188 0 188 0 157 0 c 0,12,13
EndSplineSet
EndChar

StartChar: Oslash
Encoding: 216 216 134
Width: 495
Flags: W
HStem: -4 176<107.5 231.639> 590 176<275.758 392>
VStem: -15 145<175 360.392> 403 123<377.217 565.5>
DStem2: 132 252 154 185 0.617497 0.786573<-232.061 -228.562 0 357.413> 376 546 400 496 0.617497 0.786573<-381.922 -24.5087>
LayerCount: 2
Fore
SplineSet
591 741 m 1,0,-1
 516 645 l 1,1,2
 521 623 521 623 523.5 600 c 128,-1,3
 526 577 526 577 526 554 c 0,4,5
 526 470 526 470 508.5 396 c 128,-1,6
 491 322 491 322 461 260 c 128,-1,7
 431 198 431 198 391.5 149 c 128,-1,8
 352 100 352 100 309 66 c 128,-1,9
 266 32 266 32 222 14 c 128,-1,10
 178 -4 178 -4 138 -4 c 0,11,12
 77 -4 77 -4 37 36 c 1,13,-1
 3 -8 l 1,14,-1
 -48 41 l 1,15,-1
 1 98 l 1,16,17
 -15 144 -15 144 -15 206 c 0,18,19
 -15 263 -15 263 -1 326.5 c 128,-1,20
 13 390 13 390 38 452.5 c 128,-1,21
 63 515 63 515 98.5 571.5 c 128,-1,22
 134 628 134 628 177 671.5 c 128,-1,23
 220 715 220 715 269.5 740.5 c 128,-1,24
 319 766 319 766 372 766 c 0,25,26
 412 766 412 766 439.5 751.5 c 128,-1,27
 467 737 467 737 485 713 c 1,28,-1
 521 760 l 1,29,-1
 574 721 l 1,30,-1
 591 741 l 1,0,-1
154 185 m 1,31,32
 180 172 180 172 206 172 c 0,33,34
 235 172 235 172 261 187.5 c 128,-1,35
 287 203 287 203 309 227.5 c 128,-1,36
 331 252 331 252 348 284 c 128,-1,37
 365 316 365 316 377.5 348.5 c 128,-1,38
 390 381 390 381 396.5 412.5 c 128,-1,39
 403 444 403 444 403 468 c 0,40,41
 403 484 403 484 400 496 c 1,42,-1
 154 185 l 1,31,32
376 546 m 1,43,44
 350 590 350 590 315 590 c 0,45,46
 283 590 283 590 250.5 559.5 c 128,-1,47
 218 529 218 529 191 482.5 c 128,-1,48
 164 436 164 436 147 381 c 128,-1,49
 130 326 130 326 130 278 c 0,50,51
 130 271 130 271 130.5 264.5 c 128,-1,52
 131 258 131 258 132 252 c 1,53,-1
 376 546 l 1,43,44
EndSplineSet
EndChar

StartChar: oslash
Encoding: 248 248 135
Width: 495
Flags: W
HStem: -4 176<107.5 231.639> 590 176<275.758 392>
VStem: -15 145<175 360.392> 403 123<377.217 565.5>
DStem2: 132 252 154 185 0.617497 0.786573<-232.061 -228.562 0 357.413> 376 546 400 496 0.617497 0.786573<-381.922 -24.5087>
LayerCount: 2
Fore
SplineSet
591 741 m 1,0,-1
 516 645 l 1,1,2
 521 623 521 623 523.5 600 c 128,-1,3
 526 577 526 577 526 554 c 0,4,5
 526 470 526 470 508.5 396 c 128,-1,6
 491 322 491 322 461 260 c 128,-1,7
 431 198 431 198 391.5 149 c 128,-1,8
 352 100 352 100 309 66 c 128,-1,9
 266 32 266 32 222 14 c 128,-1,10
 178 -4 178 -4 138 -4 c 0,11,12
 77 -4 77 -4 37 36 c 1,13,-1
 3 -8 l 1,14,-1
 -48 41 l 1,15,-1
 1 98 l 1,16,17
 -15 144 -15 144 -15 206 c 0,18,19
 -15 263 -15 263 -1 326.5 c 128,-1,20
 13 390 13 390 38 452.5 c 128,-1,21
 63 515 63 515 98.5 571.5 c 128,-1,22
 134 628 134 628 177 671.5 c 128,-1,23
 220 715 220 715 269.5 740.5 c 128,-1,24
 319 766 319 766 372 766 c 0,25,26
 412 766 412 766 439.5 751.5 c 128,-1,27
 467 737 467 737 485 713 c 1,28,-1
 521 760 l 1,29,-1
 574 721 l 1,30,-1
 591 741 l 1,0,-1
154 185 m 1,31,32
 180 172 180 172 206 172 c 0,33,34
 235 172 235 172 261 187.5 c 128,-1,35
 287 203 287 203 309 227.5 c 128,-1,36
 331 252 331 252 348 284 c 128,-1,37
 365 316 365 316 377.5 348.5 c 128,-1,38
 390 381 390 381 396.5 412.5 c 128,-1,39
 403 444 403 444 403 468 c 0,40,41
 403 484 403 484 400 496 c 1,42,-1
 154 185 l 1,31,32
376 546 m 1,43,44
 350 590 350 590 315 590 c 0,45,46
 283 590 283 590 250.5 559.5 c 128,-1,47
 218 529 218 529 191 482.5 c 128,-1,48
 164 436 164 436 147 381 c 128,-1,49
 130 326 130 326 130 278 c 0,50,51
 130 271 130 271 130.5 264.5 c 128,-1,52
 131 258 131 258 132 252 c 1,53,-1
 376 546 l 1,43,44
EndSplineSet
EndChar

StartChar: circumflex
Encoding: 710 710 136
Width: 373
Flags: W
HStem: 7 272
VStem: 39 305
LayerCount: 2
Fore
SplineSet
208 129 m 1,0,1
 197 118 197 118 181.5 102 c 128,-1,2
 166 86 166 86 150.5 68.5 c 128,-1,3
 135 51 135 51 120 34.5 c 128,-1,4
 105 18 105 18 94 7 c 1,5,6
 81 18 81 18 71 28 c 128,-1,7
 61 38 61 38 54 46 c 0,8,9
 45 55 45 55 39 63 c 1,10,11
 68 105 68 105 98 145 c 0,12,13
 124 179 124 179 154 216 c 128,-1,14
 184 253 184 253 211 279 c 1,15,16
 251 273 251 273 267 274 c 128,-1,17
 283 275 283 275 285 273 c 1,18,19
 293 245 293 245 303 209.5 c 128,-1,20
 313 174 313 174 322 142 c 0,21,22
 333 104 333 104 344 66 c 1,23,24
 332 56 332 56 320 46 c 0,25,26
 309 37 309 37 296 27 c 128,-1,27
 283 17 283 17 270 8 c 1,28,-1
 208 129 l 1,0,1
EndSplineSet
EndChar

StartChar: caron
Encoding: 711 711 138
Width: 373
Flags: W
HStem: 3 278
VStem: 84 305
LayerCount: 2
Fore
SplineSet
223 153 m 1,0,1
 234 165 234 165 248 182 c 128,-1,2
 262 199 262 199 277 217 c 128,-1,3
 292 235 292 235 306 252 c 128,-1,4
 320 269 320 269 331 281 c 1,5,6
 344 270 344 270 354.5 261 c 128,-1,7
 365 252 365 252 373 244 c 2,8,-1
 389 228 l 1,9,10
 362 184 362 184 334 143 c 0,11,12
 310 108 310 108 281.5 69.5 c 128,-1,13
 253 31 253 31 228 3 c 1,14,15
 214 4 214 4 203 4.5 c 128,-1,16
 192 5 192 5 184 5 c 0,17,18
 174 5 174 5 168 4.5 c 128,-1,19
 162 4 162 4 158 4 c 256,20,21
 154 4 154 4 154 5 c 0,22,23
 145 32 145 32 133 67 c 128,-1,24
 121 102 121 102 110 134 c 0,25,26
 97 171 97 171 84 209 c 1,27,28
 95 219 95 219 107 230 c 0,29,30
 118 239 118 239 130 250 c 128,-1,31
 142 261 142 261 155 271 c 1,32,-1
 223 153 l 1,0,1
EndSplineSet
EndChar

StartChar: AE
Encoding: 198 198 148
Width: 502
Flags: W
HStem: -1 21G<194 347.714> 175 102<184 225.758> 335.5 113<428.437 487.656> 623 104<296 307 454 521.78> 728 20G<455 555.548>
DStem2: -88 6 98 28 0.357503 0.933912<87.0416 243.274 350.331 451.991> 62 390.5 296 623 0.357503 0.933912<19.171 300.79>
LayerCount: 2
Fore
SplineSet
194 -1 m 1,0,-1
 194 2 l 1,1,-1
 192 2 l 1,2,3
 199 36 199 36 206 69 c 0,4,5
 211 97 211 97 217 126 c 128,-1,6
 223 155 223 155 226 175 c 1,7,-1
 151 175 l 1,8,-1
 98 28 l 1,9,10
 75 25 75 25 43 21 c 128,-1,11
 11 17 11 17 -18 14 c 0,12,13
 -52 10 -52 10 -88 6 c 1,14,15
 -34 142 -34 142 17 274 c 0,16,17
 39 330 39 330 62 390.5 c 128,-1,18
 85 451 85 451 107.5 510.5 c 128,-1,19
 130 570 130 570 150.5 625.5 c 128,-1,20
 171 681 171 681 188 727 c 1,21,22
 223 730 223 730 253 731 c 128,-1,23
 283 732 283 732 313.5 732.5 c 128,-1,24
 344 733 344 733 378 734 c 128,-1,25
 412 735 412 735 455 739 c 2,26,-1
 562 748 l 1,27,-1
 522 624 l 1,28,29
 515 625 515 625 504 626 c 0,30,31
 495 627 495 627 482.5 627.5 c 128,-1,32
 470 628 470 628 454 628 c 1,33,-1
 428 444 l 1,34,35
 442 446 442 446 455 447 c 0,36,37
 466 448 466 448 479.5 448.5 c 128,-1,38
 493 449 493 449 504 450 c 1,39,40
 500 421 500 421 496.5 393.5 c 128,-1,41
 493 366 493 366 488 337 c 1,42,43
 477 336 477 336 464 335.5 c 128,-1,44
 451 335 451 335 440 334 c 0,45,46
 427 333 427 333 414 332 c 1,47,-1
 387 144 l 1,48,-1
 473 151 l 1,49,-1
 463 34 l 1,50,-1
 194 -1 l 1,0,-1
296 623 m 1,51,-1
 263 535 l 1,52,-1
 184 277 l 1,53,54
 188 278 188 278 196.5 278.5 c 128,-1,55
 205 279 205 279 214 279.5 c 128,-1,56
 223 280 223 280 231.5 280.5 c 128,-1,57
 240 281 240 281 244 282 c 1,58,59
 245 291 245 291 249 313.5 c 128,-1,60
 253 336 253 336 258.5 366.5 c 128,-1,61
 264 397 264 397 270.5 432.5 c 128,-1,62
 277 468 277 468 283.5 503.5 c 128,-1,63
 290 539 290 539 296 570.5 c 128,-1,64
 302 602 302 602 307 624 c 1,65,-1
 296 623 l 1,51,-1
EndSplineSet
EndChar

StartChar: ae
Encoding: 230 230 149
Width: 502
Flags: W
HStem: -1 21G<194 347.714> 175 102<184 225.758> 335.5 113<428.437 487.656> 623 104<296 307 454 521.78> 728 20G<455 555.548>
DStem2: -88 6 98 28 0.357503 0.933912<87.0416 243.274 350.331 451.991> 62 390.5 296 623 0.357503 0.933912<19.171 300.79>
LayerCount: 2
Fore
SplineSet
194 -1 m 1,0,-1
 194 2 l 1,1,-1
 192 2 l 1,2,3
 199 36 199 36 206 69 c 0,4,5
 211 97 211 97 217 126 c 128,-1,6
 223 155 223 155 226 175 c 1,7,-1
 151 175 l 1,8,-1
 98 28 l 1,9,10
 75 25 75 25 43 21 c 128,-1,11
 11 17 11 17 -18 14 c 0,12,13
 -52 10 -52 10 -88 6 c 1,14,15
 -34 142 -34 142 17 274 c 0,16,17
 39 330 39 330 62 390.5 c 128,-1,18
 85 451 85 451 107.5 510.5 c 128,-1,19
 130 570 130 570 150.5 625.5 c 128,-1,20
 171 681 171 681 188 727 c 1,21,22
 223 730 223 730 253 731 c 128,-1,23
 283 732 283 732 313.5 732.5 c 128,-1,24
 344 733 344 733 378 734 c 128,-1,25
 412 735 412 735 455 739 c 2,26,-1
 562 748 l 1,27,-1
 522 624 l 1,28,29
 515 625 515 625 504 626 c 0,30,31
 495 627 495 627 482.5 627.5 c 128,-1,32
 470 628 470 628 454 628 c 1,33,-1
 428 444 l 1,34,35
 442 446 442 446 455 447 c 0,36,37
 466 448 466 448 479.5 448.5 c 128,-1,38
 493 449 493 449 504 450 c 1,39,40
 500 421 500 421 496.5 393.5 c 128,-1,41
 493 366 493 366 488 337 c 1,42,43
 477 336 477 336 464 335.5 c 128,-1,44
 451 335 451 335 440 334 c 0,45,46
 427 333 427 333 414 332 c 1,47,-1
 387 144 l 1,48,-1
 473 151 l 1,49,-1
 463 34 l 1,50,-1
 194 -1 l 1,0,-1
296 623 m 1,51,-1
 263 535 l 1,52,-1
 184 277 l 1,53,54
 188 278 188 278 196.5 278.5 c 128,-1,55
 205 279 205 279 214 279.5 c 128,-1,56
 223 280 223 280 231.5 280.5 c 128,-1,57
 240 281 240 281 244 282 c 1,58,59
 245 291 245 291 249 313.5 c 128,-1,60
 253 336 253 336 258.5 366.5 c 128,-1,61
 264 397 264 397 270.5 432.5 c 128,-1,62
 277 468 277 468 283.5 503.5 c 128,-1,63
 290 539 290 539 296 570.5 c 128,-1,64
 302 602 302 602 307 624 c 1,65,-1
 296 623 l 1,51,-1
EndSplineSet
EndChar

StartChar: OE
Encoding: 338 338 150
Width: 580
Flags: W
HStem: 10 165<159.653 242.844> 338 114<447 550.4> 633 124<534.989 614.531>
VStem: -15 146<203.711 382.264>
DStem2: 243 176 398 153 0.172627 0.984987<4.10242 198.601 309.042 389.507>
LayerCount: 2
Fore
SplineSet
213 10 m 1,0,-1
 203 10 l 2,1,2
 144 10 144 10 103 28 c 128,-1,3
 62 46 62 46 35.5 77 c 128,-1,4
 9 108 9 108 -3 150 c 128,-1,5
 -15 192 -15 192 -15 240 c 0,6,7
 -15 291 -15 291 -2 347 c 128,-1,8
 11 403 11 403 34.5 456.5 c 128,-1,9
 58 510 58 510 91 559 c 128,-1,10
 124 608 124 608 164.5 646 c 128,-1,11
 205 684 205 684 251 708.5 c 128,-1,12
 297 733 297 733 347 737 c 2,13,-1
 640 757 l 1,14,15
 633 734 633 734 628 711 c 0,16,17
 623 691 623 691 618 670 c 128,-1,18
 613 649 613 649 610 633 c 1,19,-1
 598 633 l 2,20,21
 576 633 576 633 543.5 635.5 c 128,-1,22
 511 638 511 638 483 638 c 1,23,-1
 447 454 l 1,24,25
 465 453 465 453 483 453 c 1,26,27
 498 452 498 452 515.5 452 c 128,-1,28
 533 452 533 452 547 452 c 2,29,-1
 563 452 l 1,30,31
 559 423 559 423 555.5 395.5 c 128,-1,32
 552 368 552 368 547 339 c 1,33,34
 543 339 543 339 538.5 338.5 c 128,-1,35
 534 338 534 338 529 338 c 0,36,37
 515 338 515 338 498 338.5 c 128,-1,38
 481 339 481 339 467 340 c 0,39,40
 449 341 449 341 433 342 c 1,41,-1
 398 153 l 1,42,-1
 523 169 l 1,43,-1
 513 52 l 1,44,-1
 213 10 l 1,0,-1
314 559 m 1,45,46
 281 554 281 554 248.5 525 c 128,-1,47
 216 496 216 496 189.5 454.5 c 128,-1,48
 163 413 163 413 147 365 c 128,-1,49
 131 317 131 317 131 276 c 0,50,51
 131 233 131 233 153 204 c 128,-1,52
 175 175 175 175 225 175 c 0,53,54
 230 175 230 175 234 175 c 128,-1,55
 238 175 238 175 243 176 c 1,56,-1
 314 559 l 1,45,46
EndSplineSet
EndChar

StartChar: oe
Encoding: 339 339 151
Width: 580
Flags: W
HStem: 10 165<159.653 242.844> 338 114<447 550.4> 633 124<534.989 614.531>
VStem: -15 146<203.711 382.264>
DStem2: 243 176 398 153 0.172627 0.984987<4.10242 198.601 309.042 389.507>
LayerCount: 2
Fore
SplineSet
213 10 m 1,0,-1
 203 10 l 2,1,2
 144 10 144 10 103 28 c 128,-1,3
 62 46 62 46 35.5 77 c 128,-1,4
 9 108 9 108 -3 150 c 128,-1,5
 -15 192 -15 192 -15 240 c 0,6,7
 -15 291 -15 291 -2 347 c 128,-1,8
 11 403 11 403 34.5 456.5 c 128,-1,9
 58 510 58 510 91 559 c 128,-1,10
 124 608 124 608 164.5 646 c 128,-1,11
 205 684 205 684 251 708.5 c 128,-1,12
 297 733 297 733 347 737 c 2,13,-1
 640 757 l 1,14,15
 633 734 633 734 628 711 c 0,16,17
 623 691 623 691 618 670 c 128,-1,18
 613 649 613 649 610 633 c 1,19,-1
 598 633 l 2,20,21
 576 633 576 633 543.5 635.5 c 128,-1,22
 511 638 511 638 483 638 c 1,23,-1
 447 454 l 1,24,25
 465 453 465 453 483 453 c 1,26,27
 498 452 498 452 515.5 452 c 128,-1,28
 533 452 533 452 547 452 c 2,29,-1
 563 452 l 1,30,31
 559 423 559 423 555.5 395.5 c 128,-1,32
 552 368 552 368 547 339 c 1,33,34
 543 339 543 339 538.5 338.5 c 128,-1,35
 534 338 534 338 529 338 c 0,36,37
 515 338 515 338 498 338.5 c 128,-1,38
 481 339 481 339 467 340 c 0,39,40
 449 341 449 341 433 342 c 1,41,-1
 398 153 l 1,42,-1
 523 169 l 1,43,-1
 513 52 l 1,44,-1
 213 10 l 1,0,-1
314 559 m 1,45,46
 281 554 281 554 248.5 525 c 128,-1,47
 216 496 216 496 189.5 454.5 c 128,-1,48
 163 413 163 413 147 365 c 128,-1,49
 131 317 131 317 131 276 c 0,50,51
 131 233 131 233 153 204 c 128,-1,52
 175 175 175 175 225 175 c 0,53,54
 230 175 230 175 234 175 c 128,-1,55
 238 175 238 175 243 176 c 1,56,-1
 314 559 l 1,45,46
EndSplineSet
EndChar

StartChar: sterling
Encoding: 163 163 152
Width: 334
Flags: W
HStem: -2 21G<-70 -53.5> 32.5 116<171.703 310> 312 131<54.0137 93.656 240 327> 600 150<235.421 376.842>
VStem: 77 144<444.576 587.161>
LayerCount: 2
Fore
SplineSet
371 577 m 1,0,1
 358 584 358 584 332.5 592 c 128,-1,2
 307 600 307 600 281 600 c 0,3,4
 257 600 257 600 239 586 c 128,-1,5
 221 572 221 572 221 533 c 0,6,7
 221 516 221 516 228.5 491 c 128,-1,8
 236 466 236 466 240 443 c 1,9,10
 260 443 260 443 279 443 c 128,-1,11
 298 443 298 443 312 444 c 0,12,13
 329 445 329 445 344 446 c 1,14,-1
 327 311 l 1,15,16
 314 311 314 311 300 312 c 0,17,18
 288 313 288 313 272.5 313 c 128,-1,19
 257 313 257 313 240 314 c 1,20,21
 240 298 240 298 236.5 276 c 128,-1,22
 233 254 233 254 225 230.5 c 128,-1,23
 217 207 217 207 203.5 184 c 128,-1,24
 190 161 190 161 171 144 c 1,25,26
 186 145 186 145 205 145.5 c 128,-1,27
 224 146 224 146 244 147 c 128,-1,28
 264 148 264 148 283 148.5 c 128,-1,29
 302 149 302 149 316 149 c 1,30,31
 314 117 314 117 312 87.5 c 128,-1,32
 310 58 310 58 310 42 c 0,33,34
 310 39 310 39 310.5 36.5 c 128,-1,35
 311 34 311 34 311 32 c 1,36,37
 299 32 299 32 285.5 32.5 c 128,-1,38
 272 33 272 33 260 33 c 0,39,40
 222 33 222 33 178.5 31 c 128,-1,41
 135 29 135 29 91.5 24.5 c 128,-1,42
 48 20 48 20 6 13.5 c 128,-1,43
 -36 7 -36 7 -71 -2 c 1,44,45
 -69 13 -69 13 -65 35.5 c 128,-1,46
 -61 58 -61 58 -56 79 c 0,47,48
 -51 104 -51 104 -45 131 c 1,49,-1
 -20 141 l 1,50,51
 -5 145 -5 145 11.5 161 c 128,-1,52
 28 177 28 177 43.5 201 c 128,-1,53
 59 225 59 225 72 254 c 128,-1,54
 85 283 85 283 94 313 c 1,55,56
 83 312 83 312 71 312 c 128,-1,57
 59 312 59 312 48 312 c 2,58,-1
 24 312 l 1,59,-1
 55 445 l 1,60,61
 64 444 64 444 72 444 c 1,62,63
 79 443 79 443 85.5 443 c 128,-1,64
 92 443 92 443 97 443 c 1,65,66
 77 521 77 521 77 577 c 0,67,68
 77 625 77 625 94 658 c 128,-1,69
 111 691 111 691 139 711.5 c 128,-1,70
 167 732 167 732 203 741 c 128,-1,71
 239 750 239 750 276 750 c 0,72,73
 314 750 314 750 349 742 c 128,-1,74
 384 734 384 734 411 720 c 1,75,76
 405 697 405 697 398 671.5 c 128,-1,77
 391 646 391 646 385 625 c 0,78,79
 378 600 378 600 371 577 c 1,0,1
EndSplineSet
EndChar

StartChar: yen
Encoding: 165 165 155
Width: 387
Flags: W
HStem: 111 83<1 54 248.156 309> 254 85<20.2154 77 309 340> 734 20G<169.812 222>
VStem: 55 167<439.045 692.747> 77 144<438 649.952>
LayerCount: 2
Fore
SplineSet
21 339 m 1,0,1
 29 338 29 338 38 338 c 0,2,3
 46 338 46 338 56 337.5 c 128,-1,4
 66 337 66 337 77 337 c 1,5,6
 75 400 75 400 71.5 462.5 c 128,-1,7
 68 525 68 525 64 576 c 0,8,9
 60 635 60 635 55 690 c 1,10,-1
 222 754 l 1,11,-1
 222 629 l 2,12,13
 222 603 222 603 222 576.5 c 128,-1,14
 222 550 222 550 221.5 524.5 c 128,-1,15
 221 499 221 499 221 476.5 c 128,-1,16
 221 454 221 454 221 438 c 1,17,18
 235 473 235 473 253.5 524 c 128,-1,19
 272 575 272 575 289 624 c 0,20,21
 308 680 308 680 329 742 c 1,22,-1
 488 707 l 1,23,24
 460 648 460 648 429 586 c 0,25,26
 403 532 403 532 371 467 c 128,-1,27
 339 402 339 402 309 339 c 1,28,29
 323 339 323 339 335 339.5 c 128,-1,30
 347 340 347 340 355 341 c 0,31,32
 365 342 365 342 373 342 c 1,33,-1
 340 254 l 1,34,-1
 268 254 l 1,35,-1
 254 223 l 1,36,-1
 248 194 l 1,37,-1
 329 194 l 1,38,-1
 309 111 l 1,39,-1
 284 111 l 2,40,41
 273 111 273 111 258 111 c 128,-1,42
 243 111 243 111 228 112 c 1,43,44
 223 96 223 96 219.5 82.5 c 128,-1,45
 216 69 216 69 213 59 c 0,46,47
 209 47 209 47 207 37 c 1,48,-1
 32 15 l 1,49,-1
 54 111 l 1,50,51
 37 111 37 111 23.5 110.5 c 128,-1,52
 10 110 10 110 -1 110 c 2,53,-1
 -23 110 l 1,54,-1
 1 195 l 1,55,-1
 73 195 l 1,56,-1
 79 221 l 1,57,-1
 79 254 l 1,58,-1
 5 254 l 1,59,-1
 21 339 l 1,0,1
EndSplineSet
EndChar

StartChar: product
Encoding: 8719 8719 156
Width: 442
Flags: W
HStem: -2 21G<-24.5 56.7576> 656 92<236.309 333.867> 738 20G<493 505>
DStem2: -39 -2 119 31 0.177878 0.984053<60.5784 448.843 654.945 697.134> 214 25 374 43 0.18569 0.982608<47.3973 174.855 433.377 554.671>
LayerCount: 2
Fore
SplineSet
-39 -2 m 1,0,1
 -10 141 -10 141 16 278 c 0,2,3
 27 336 27 336 38 399 c 128,-1,4
 49 462 49 462 59 523.5 c 128,-1,5
 69 585 69 585 77.5 642.5 c 128,-1,6
 86 700 86 700 91 748 c 1,7,8
 99 747 99 747 108.5 747 c 128,-1,9
 118 747 118 747 130 747 c 0,10,11
 166 747 166 747 216 748 c 128,-1,12
 266 749 266 749 319 751 c 128,-1,13
 372 753 372 753 423 754.5 c 128,-1,14
 474 756 474 756 512 758 c 1,15,16
 498 712 498 712 485 657 c 128,-1,17
 472 602 472 602 460 543 c 128,-1,18
 448 484 448 484 436.5 424 c 128,-1,19
 425 364 425 364 416 309 c 0,20,21
 393 179 393 179 374 43 c 1,22,-1
 214 25 l 1,23,24
 242 177 242 177 267 305 c 0,25,26
 277 360 277 360 288 415 c 128,-1,27
 299 470 299 470 308 518.5 c 128,-1,28
 317 567 317 567 324 604 c 128,-1,29
 331 641 331 641 334 660 c 1,30,-1
 240 656 l 1,31,32
 237 636 237 636 230 599 c 128,-1,33
 223 562 223 562 214 514 c 128,-1,34
 205 466 205 466 194 412 c 128,-1,35
 183 358 183 358 173 304 c 0,36,37
 148 178 148 178 119 31 c 1,38,-1
 -39 -2 l 1,0,1
EndSplineSet
EndChar

StartChar: plusminus
Encoding: 177 177 157
Width: 374
Flags: W
HStem: 43.5 95.5<4 318> 291 129<48.0078 120 270 324.452>
LayerCount: 2
Fore
SplineSet
53 421 m 1,0,1
 56 421 56 421 59.5 420.5 c 128,-1,2
 63 420 63 420 67 420 c 0,3,4
 79 420 79 420 93.5 420.5 c 128,-1,5
 108 421 108 421 121 422 c 0,6,7
 136 423 136 423 151 425 c 1,8,-1
 158 460 l 2,9,10
 161 475 161 475 165 492.5 c 128,-1,11
 169 510 169 510 172 526 c 1,12,13
 205 527 205 527 237 528.5 c 128,-1,14
 269 530 269 530 301 535 c 1,15,16
 296 518 296 518 290.5 499 c 128,-1,17
 285 480 285 480 280 463 c 0,18,19
 275 444 275 444 270 425 c 1,20,21
 285 426 285 426 301 428 c 0,22,23
 314 430 314 430 328.5 431 c 128,-1,24
 343 432 343 432 354 434 c 1,25,26
 343 394 343 394 335.5 362 c 128,-1,27
 328 330 328 330 320 290 c 1,28,29
 309 290 309 290 295 290.5 c 128,-1,30
 281 291 281 291 267 291 c 0,31,32
 251 291 251 291 235 292 c 1,33,34
 234 275 234 275 231 257 c 0,35,36
 229 242 229 242 226 224 c 128,-1,37
 223 206 223 206 219 190 c 1,38,-1
 95 188 l 1,39,40
 100 204 100 204 105 222.5 c 128,-1,41
 110 241 110 241 113 256 c 2,42,-1
 120 291 l 1,43,-1
 35 291 l 1,44,45
 37 313 37 313 40 336 c 0,46,47
 42 356 42 356 45 378.5 c 128,-1,48
 48 401 48 401 53 421 c 1,0,1
4 141 m 1,49,50
 34 140 34 140 61 140 c 1,51,52
 84 139 84 139 109.5 139 c 128,-1,53
 135 139 135 139 154 139 c 0,54,55
 175 139 175 139 204.5 139 c 128,-1,56
 234 139 234 139 261 140 c 0,57,58
 293 141 293 141 326 142 c 1,59,-1
 318 42 l 1,60,61
 280 42 280 42 245 43 c 0,62,63
 215 43 215 43 182 43.5 c 128,-1,64
 149 44 149 44 125 44 c 0,65,66
 107 44 107 44 82.5 43.5 c 128,-1,67
 58 43 58 43 35 43 c 2,68,-1
 -19 43 l 1,69,-1
 4 141 l 1,49,50
EndSplineSet
EndChar

StartChar: tilde
Encoding: 732 732 158
Width: 373
Flags: W
HStem: 11 130<229.904 292.894> 81 148<74.2471 161.65>
LayerCount: 2
Fore
SplineSet
250 141 m 0,0,1
 265 141 265 141 279.5 152 c 128,-1,2
 294 163 294 163 307.5 178 c 128,-1,3
 321 193 321 193 333 208.5 c 128,-1,4
 345 224 345 224 356 233 c 1,5,6
 368 224 368 224 378 216 c 128,-1,7
 388 208 388 208 396 202 c 0,8,9
 405 195 405 195 411 188 c 1,10,11
 389 138 389 138 362 99 c 0,12,13
 350 82 350 82 336 66.5 c 128,-1,14
 322 51 322 51 305.5 38.5 c 128,-1,15
 289 26 289 26 271 18.5 c 128,-1,16
 253 11 253 11 233 11 c 0,17,18
 208 11 208 11 195 22 c 128,-1,19
 182 33 182 33 172 46 c 128,-1,20
 162 59 162 59 151 70 c 128,-1,21
 140 81 140 81 119 81 c 0,22,23
 104 81 104 81 89.5 72 c 128,-1,24
 75 63 75 63 62 51 c 128,-1,25
 49 39 49 39 37 25.5 c 128,-1,26
 25 12 25 12 14 3 c 1,27,28
 1 12 1 12 -8.5 20 c 128,-1,29
 -18 28 -18 28 -26 34 c 0,30,31
 -35 41 -35 41 -41 48 c 1,32,33
 -41 48 -41 48 -34.5 61.5 c 128,-1,34
 -28 75 -28 75 -17 95 c 128,-1,35
 -6 115 -6 115 10 138.5 c 128,-1,36
 26 162 26 162 45.5 182 c 128,-1,37
 65 202 65 202 87.5 215.5 c 128,-1,38
 110 229 110 229 136 229 c 0,39,40
 161 229 161 229 180 215 c 128,-1,41
 199 201 199 201 213 184.5 c 128,-1,42
 227 168 227 168 236 154.5 c 128,-1,43
 245 141 245 141 250 141 c 0,0,1
EndSplineSet
EndChar

StartChar: cedilla
Encoding: 184 184 165
Width: 373
Flags: W
HStem: -169 99<62.2343 154.069>
VStem: 167 98<-80.5 -5>
LayerCount: 2
Fore
SplineSet
61 -41 m 1,0,1
 87 -70 87 -70 115 -70 c 0,2,3
 137 -70 137 -70 152 -53.5 c 128,-1,4
 167 -37 167 -37 167 -11 c 0,5,6
 167 1 167 1 162 19 c 1,7,8
 180 17 180 17 193 15 c 0,9,10
 204 13 204 13 213.5 11.5 c 128,-1,11
 223 10 223 10 224 10 c 0,12,13
 265 -30 265 -30 265 -70 c 0,14,15
 265 -91 265 -91 254.5 -109 c 128,-1,16
 244 -127 244 -127 225.5 -140.5 c 128,-1,17
 207 -154 207 -154 182 -161.5 c 128,-1,18
 157 -169 157 -169 127 -169 c 0,19,20
 103 -169 103 -169 80 -160 c 128,-1,21
 57 -151 57 -151 41 -131 c 1,22,-1
 61 -41 l 1,0,1
EndSplineSet
EndChar

StartChar: trademark
Encoding: 8482 8482 168
Width: 1008
Flags: W
HStem: 658 88<76.7188 164> 734 20G<414.5 428>
DStem2: 137 531.5 291 534 0.254012 0.967201<-87.7446 123.406> 383 425 478.5 278.5 0.376197 0.92654<-117.876 125.801> 433 754 364 650.5 0.996876 0.0789779<-128.441 -26.0237>
LayerCount: 2
Fore
SplineSet
678 519 m 1,0,1
 700 565 700 565 723 606 c 0,2,3
 742 641 742 641 763.5 678.5 c 128,-1,4
 785 716 785 716 802 741 c 1,5,6
 853 749 853 749 905 755.5 c 128,-1,7
 957 762 957 762 1009 773 c 1,8,9
 994 741 994 741 981.5 703 c 128,-1,10
 969 665 969 665 958.5 624.5 c 128,-1,11
 948 584 948 584 940 542.5 c 128,-1,12
 932 501 932 501 926 462 c 0,13,14
 911 371 911 371 903 277 c 1,15,-1
 721 257 l 1,16,17
 721 261 721 261 727 288.5 c 128,-1,18
 733 316 733 316 742 352.5 c 128,-1,19
 751 389 751 389 760 427 c 128,-1,20
 769 465 769 465 775 490 c 1,21,-1
 766 490 l 1,22,-1
 664 259 l 1,23,24
 631 258 631 258 597.5 257.5 c 128,-1,25
 564 257 564 257 532 255 c 1,26,-1
 566 490 l 1,27,-1
 558 490 l 1,28,29
 556 482 556 482 549 462 c 128,-1,30
 542 442 542 442 532.5 417.5 c 128,-1,31
 523 393 523 393 513 366 c 128,-1,32
 503 339 503 339 494 316.5 c 128,-1,33
 485 294 485 294 478.5 278.5 c 128,-1,34
 472 263 472 263 471 262 c 2,35,-1
 307 245 l 1,36,37
 347 337 347 337 383 425 c 0,38,39
 398 462 398 462 414.5 502.5 c 128,-1,40
 431 543 431 543 446.5 583 c 128,-1,41
 462 623 462 623 475.5 660 c 128,-1,42
 489 697 489 697 499 728 c 1,43,44
 557 728 557 728 608 732 c 128,-1,45
 659 736 659 736 717 740 c 1,46,47
 712 714 712 714 704 676.5 c 128,-1,48
 696 639 696 639 688 604 c 0,49,50
 679 563 679 563 669 519 c 1,51,-1
 678 519 l 1,0,1
78 746 m 1,52,53
 127 743 127 743 180 743 c 0,54,55
 228 743 228 743 274 744.5 c 128,-1,56
 320 746 320 746 355 748 c 0,57,58
 396 751 396 751 433 754 c 1,59,-1
 424 718 l 2,60,61
 420 703 420 703 415.5 686 c 128,-1,62
 411 669 411 669 407 657 c 1,63,64
 386 652 386 652 364 650.5 c 128,-1,65
 342 649 342 649 321 646 c 1,66,67
 306 598 306 598 291 534 c 128,-1,68
 276 470 276 470 263 410 c 0,69,70
 248 340 248 340 234 268 c 1,71,-1
 61 249 l 1,72,73
 83 325 83 325 103 399 c 0,74,75
 112 430 112 430 120.5 464 c 128,-1,76
 129 498 129 498 137 531.5 c 128,-1,77
 145 565 145 565 152 595.5 c 128,-1,78
 159 626 159 626 164 652 c 1,79,80
 141 654 141 654 118.5 653.5 c 128,-1,81
 96 653 96 653 73 658 c 1,82,83
 74 669 74 669 74.5 683.5 c 128,-1,84
 75 698 75 698 76 712 c 0,85,86
 77 728 77 728 78 746 c 1,52,53
EndSplineSet
EndChar

StartChar: germandbls
Encoding: 223 223 169
Width: 445
Flags: W
HStem: -10 145<210.024 262.635> 1 21G<-34 -30> 637 123<234 350.821>
VStem: 212 143<334.875 435.014> 268 149<140.558 259.266> 352 140<583.814 644.5>
DStem2: 10.5 219 156 168 0.159987 0.987119<-182.192 450.4>
LayerCount: 2
Fore
SplineSet
105 760 m 1,0,1
 220 760 220 760 295 750 c 128,-1,2
 370 740 370 740 414 722.5 c 128,-1,3
 458 705 458 705 475 681.5 c 128,-1,4
 492 658 492 658 492 631 c 0,5,6
 492 580 492 580 472 545.5 c 128,-1,7
 452 511 452 511 427 485 c 128,-1,8
 402 459 402 459 380 438 c 128,-1,9
 358 417 358 417 355 394 c 1,10,-1
 355 392 l 2,11,12
 355 383 355 383 364.5 363 c 128,-1,13
 374 343 374 343 386 315 c 128,-1,14
 398 287 398 287 407.5 252.5 c 128,-1,15
 417 218 417 218 417 179 c 0,16,17
 417 141 417 141 409 107 c 128,-1,18
 401 73 401 73 382 47 c 128,-1,19
 363 21 363 21 332.5 5.5 c 128,-1,20
 302 -10 302 -10 256 -10 c 0,21,22
 230 -10 230 -10 207 2 c 128,-1,23
 184 14 184 14 164 41 c 1,24,-1
 194 190 l 1,25,26
 202 165 202 165 216 150 c 128,-1,27
 230 135 230 135 243 135 c 0,28,29
 254 135 254 135 261 145.5 c 128,-1,30
 268 156 268 156 268 180 c 0,31,32
 268 211 268 211 259 231 c 128,-1,33
 250 251 250 251 239.5 272 c 128,-1,34
 229 293 229 293 220.5 322 c 128,-1,35
 212 351 212 351 212 401 c 0,36,37
 212 443 212 443 234 477 c 128,-1,38
 256 511 256 511 282 537.5 c 128,-1,39
 308 564 308 564 330 583.5 c 128,-1,40
 352 603 352 603 352 615 c 0,41,42
 352 626 352 626 326 631.5 c 128,-1,43
 300 637 300 637 234 637 c 1,44,45
 224 579 224 579 210.5 500 c 128,-1,46
 197 421 197 421 183 336 c 128,-1,47
 169 251 169 251 156 168 c 128,-1,48
 143 85 143 85 134 20 c 1,49,50
 125 20 125 20 98 17.5 c 128,-1,51
 71 15 71 15 42 11.5 c 128,-1,52
 13 8 13 8 -10 5 c 128,-1,53
 -33 2 -33 2 -35 1 c 1,54,55
 -25 45 -25 45 -13 101 c 128,-1,56
 -1 157 -1 157 10.5 219 c 128,-1,57
 22 281 22 281 33.5 345 c 128,-1,58
 45 409 45 409 56 469 c 0,59,60
 81 610 81 610 105 760 c 1,0,1
EndSplineSet
EndChar

StartChar: bar
Encoding: 124 124 170
Width: 223
Flags: W
VStem: -29 305
DStem2: -7 82 156 104 0.172627 0.984987<-61.2199 307.688 324.34 511.276 570.113 693.512>
LayerCount: 2
Fore
SplineSet
276 776 m 1,0,1
 247 623 247 623 221 480 c 0,2,3
 210 419 210 419 198.5 353.5 c 128,-1,4
 187 288 187 288 176 225 c 128,-1,5
 165 162 165 162 156 104 c 128,-1,6
 147 46 147 46 140 0 c 1,7,8
 131 0 131 0 104 -2.5 c 128,-1,9
 77 -5 77 -5 48 -8.5 c 128,-1,10
 19 -12 19 -12 -4 -15 c 128,-1,11
 -27 -18 -27 -18 -29 -19 c 1,12,13
 -19 25 -19 25 -7 82 c 128,-1,14
 5 139 5 139 17.5 202.5 c 128,-1,15
 30 266 30 266 42.5 332.5 c 128,-1,16
 55 399 55 399 66 461 c 0,17,18
 92 607 92 607 119 764 c 1,19,-1
 276 776 l 1,0,1
EndSplineSet
EndChar

StartChar: dagger
Encoding: 8224 8224 171
Width: 284
Flags: W
HStem: 506 117<57 115.746> 510 123<251 318.711> 737 20G<164 276>
VStem: 28 316
DStem2: 52.5 202 171 218 0.198448 0.980111<-48.3463 310.555 460.84 552.367>
LayerCount: 2
Fore
SplineSet
57 623 m 1,0,1
 64 623 64 623 75 624 c 0,2,3
 85 625 85 625 101 625.5 c 128,-1,4
 117 626 117 626 140 628 c 1,5,6
 145 658 145 658 150 679.5 c 128,-1,7
 155 701 155 701 158 715 c 0,8,9
 162 732 162 732 164 743 c 1,10,-1
 278 757 l 1,11,12
 274 742 274 742 270 724 c 0,13,14
 266 708 266 708 261 684.5 c 128,-1,15
 256 661 256 661 251 632 c 1,16,17
 272 633 272 633 295 633 c 128,-1,18
 318 633 318 633 344 633 c 1,19,20
 342 620 342 620 339 609 c 0,21,22
 337 599 337 599 334.5 588.5 c 128,-1,23
 332 578 332 578 330 570 c 0,24,25
 326 556 326 556 322.5 545 c 128,-1,26
 319 534 319 534 317 526 c 1,27,28
 313 517 313 517 311 510 c 1,29,-1
 226 507 l 1,30,31
 217 458 217 458 207 408 c 128,-1,32
 197 358 197 358 188 310 c 128,-1,33
 179 262 179 262 171 218 c 128,-1,34
 163 174 163 174 157 138 c 1,35,36
 126 138 126 138 95.5 129.5 c 128,-1,37
 65 121 65 121 33 121 c 1,38,39
 42 156 42 156 52.5 202 c 128,-1,40
 63 248 63 248 74 298.5 c 128,-1,41
 85 349 85 349 95.5 402.5 c 128,-1,42
 106 456 106 456 116 506 c 1,43,-1
 28 506 l 1,44,-1
 57 623 l 1,0,1
EndSplineSet
EndChar

StartChar: registered
Encoding: 174 174 172
Width: 495
Flags: W
HStem: 130 80<121.551 279.618> 566 76<262 341.997> 693 80<256.485 427.526>
VStem: -3 86<278.406 470.494> 342 103<513.727 586.5> 465 76<428.959 649.734>
DStem2: 88 278 188 264 0.238738 0.971084<10.2786 152.405 230.505 326.568>
LayerCount: 2
Fore
SplineSet
369 773 m 0,0,1
 414 773 414 773 446.5 756.5 c 128,-1,2
 479 740 479 740 500 711 c 128,-1,3
 521 682 521 682 531 642.5 c 128,-1,4
 541 603 541 603 541 558 c 0,5,6
 541 460 541 460 507 381 c 128,-1,7
 473 302 473 302 421.5 246 c 128,-1,8
 370 190 370 190 308 160 c 128,-1,9
 246 130 246 130 190 130 c 0,10,11
 148 130 148 130 112.5 141 c 128,-1,12
 77 152 77 152 51.5 174.5 c 128,-1,13
 26 197 26 197 11.5 232.5 c 128,-1,14
 -3 268 -3 268 -3 317 c 256,15,16
 -3 366 -3 366 7 418.5 c 128,-1,17
 17 471 17 471 37 522 c 128,-1,18
 57 573 57 573 87.5 618.5 c 128,-1,19
 118 664 118 664 159.5 698.5 c 128,-1,20
 201 733 201 733 253 753 c 128,-1,21
 305 773 305 773 369 773 c 0,0,1
329 435 m 1,22,23
 340 406 340 406 352 370 c 128,-1,24
 364 334 364 334 372 308 c 1,25,26
 416 360 416 360 440.5 422.5 c 128,-1,27
 465 485 465 485 465 537 c 0,28,29
 465 571 465 571 459.5 599.5 c 128,-1,30
 454 628 454 628 443 649 c 128,-1,31
 432 670 432 670 415 681.5 c 128,-1,32
 398 693 398 693 374 693 c 0,33,34
 312 693 312 693 266.5 675 c 128,-1,35
 221 657 221 657 189 628 c 1,36,37
 224 635 224 635 263 638.5 c 128,-1,38
 302 642 302 642 338 642 c 0,39,40
 370 642 370 642 391 637 c 128,-1,41
 412 632 412 632 424 624 c 128,-1,42
 436 616 436 616 440.5 604.5 c 128,-1,43
 445 593 445 593 445 580 c 0,44,45
 445 535 445 535 412 495.5 c 128,-1,46
 379 456 379 456 329 435 c 1,22,23
273 250 m 1,47,48
 264 285 264 285 257 316 c 0,49,50
 251 342 251 342 245.5 368 c 128,-1,51
 240 394 240 394 239 405 c 1,52,-1
 222 402 l 1,53,54
 217 385 217 385 211.5 361.5 c 128,-1,55
 206 338 206 338 201 316 c 0,56,57
 195 290 195 290 188 264 c 1,58,-1
 106 247 l 1,59,60
 120 231 120 231 140.5 220.5 c 128,-1,61
 161 210 161 210 187 210 c 0,62,63
 227 210 227 210 262.5 224.5 c 128,-1,64
 298 239 298 239 329 265 c 1,65,-1
 273 250 l 1,47,48
88 278 m 1,66,67
 95 304 95 304 105 343.5 c 128,-1,68
 115 383 115 383 125.5 427.5 c 128,-1,69
 136 472 136 472 146 517.5 c 128,-1,70
 156 563 156 563 163 601 c 1,71,72
 139 571 139 571 123.5 536.5 c 128,-1,73
 108 502 108 502 99 466 c 128,-1,74
 90 430 90 430 86.5 395 c 128,-1,75
 83 360 83 360 83 330 c 0,76,77
 83 315 83 315 83 303 c 128,-1,78
 83 291 83 291 88 278 c 1,66,67
240 478 m 1,79,80
 251 479 251 479 268.5 485.5 c 128,-1,81
 286 492 286 492 302.5 501.5 c 128,-1,82
 319 511 319 511 330.5 523.5 c 128,-1,83
 342 536 342 536 342 550 c 0,84,85
 342 560 342 560 328.5 563 c 128,-1,86
 315 566 315 566 298 566 c 0,87,88
 287 566 287 566 278.5 565.5 c 128,-1,89
 270 565 270 565 262 565 c 1,90,-1
 240 478 l 1,79,80
EndSplineSet
EndChar

StartChar: copyright
Encoding: 169 169 173
Width: 538
Flags: W
HStem: 82 87<140.187 303.905> 199 111<213 287.585> 577 85<305.153 380.5> 687 86<285.174 464.873>
VStem: 4 92<212.219 443.137> 143 99<310.325 462.603> 506 82<407.545 637.248>
LayerCount: 2
Fore
SplineSet
404 773 m 0,0,1
 453 773 453 773 487.5 755.5 c 128,-1,2
 522 738 522 738 544.5 707 c 128,-1,3
 567 676 567 676 577.5 633.5 c 128,-1,4
 588 591 588 591 588 542 c 0,5,6
 588 437 588 437 551.5 352 c 128,-1,7
 515 267 515 267 459.5 207 c 128,-1,8
 404 147 404 147 337.5 114.5 c 128,-1,9
 271 82 271 82 211 82 c 0,10,11
 166 82 166 82 128 93.5 c 128,-1,12
 90 105 90 105 62.5 130 c 128,-1,13
 35 155 35 155 19.5 192.5 c 128,-1,14
 4 230 4 230 4 283 c 0,15,16
 4 335 4 335 14.5 392 c 128,-1,17
 25 449 25 449 47 503.5 c 128,-1,18
 69 558 69 558 102 607 c 128,-1,19
 135 656 135 656 179 693 c 128,-1,20
 223 730 223 730 279.5 751.5 c 128,-1,21
 336 773 336 773 404 773 c 0,0,1
208 169 m 0,22,23
 273 169 273 169 327.5 204.5 c 128,-1,24
 382 240 382 240 422 293.5 c 128,-1,25
 462 347 462 347 484 408 c 128,-1,26
 506 469 506 469 506 520 c 0,27,28
 506 593 506 593 482.5 640 c 128,-1,29
 459 687 459 687 409 687 c 0,30,31
 343 687 343 687 294.5 668.5 c 128,-1,32
 246 650 246 650 211 618.5 c 128,-1,33
 176 587 176 587 154 547 c 128,-1,34
 132 507 132 507 119 463.5 c 128,-1,35
 106 420 106 420 101 377 c 128,-1,36
 96 334 96 334 96 298 c 0,37,38
 96 287 96 287 96 278 c 128,-1,39
 96 269 96 269 97 261 c 0,40,41
 98 246 98 246 106.5 229.5 c 128,-1,42
 115 213 115 213 130 199.5 c 128,-1,43
 145 186 145 186 164.5 177.5 c 128,-1,44
 184 169 184 169 208 169 c 0,22,23
345 529 m 1,45,-1
 345 535 l 2,46,47
 345 546 345 546 343 561.5 c 128,-1,48
 341 577 341 577 335 577 c 0,49,50
 319 577 319 577 302.5 550.5 c 128,-1,51
 286 524 286 524 272.5 487 c 128,-1,52
 259 450 259 450 250.5 409.5 c 128,-1,53
 242 369 242 369 242 342 c 0,54,55
 242 310 242 310 254 310 c 0,56,57
 265 310 265 310 274.5 318 c 128,-1,58
 284 326 284 326 291.5 338 c 128,-1,59
 299 350 299 350 305 364 c 128,-1,60
 311 378 311 378 315 390 c 1,61,-1
 387 361 l 1,62,63
 357 280 357 280 315 239.5 c 128,-1,64
 273 199 273 199 232 199 c 0,65,66
 194 199 194 199 168.5 235 c 128,-1,67
 143 271 143 271 143 342 c 0,68,69
 143 400 143 400 159.5 457.5 c 128,-1,70
 176 515 176 515 206 560.5 c 128,-1,71
 236 606 236 606 276.5 634 c 128,-1,72
 317 662 317 662 365 662 c 0,73,74
 396 662 396 662 418 638.5 c 128,-1,75
 440 615 440 615 440 575 c 0,76,77
 440 570 440 570 440 566 c 128,-1,78
 440 562 440 562 439 557 c 1,79,-1
 345 529 l 1,45,-1
EndSplineSet
EndChar

StartChar: paragraph
Encoding: 182 182 174
Width: 368
Flags: W
HStem: -1 21G<47.5 150> 736 20G<250.5 295>
DStem2: 40 -1 150 14 0.207054 0.97833<37.4509 387.362> 196 23 303 34 0.206463 0.978454<32.8545 339.039>
LayerCount: 2
Fore
SplineSet
196 23 m 1,0,-1
 260 356 l 1,1,-1
 224 356 l 1,2,-1
 150 14 l 1,3,-1
 40 -1 l 1,4,5
 55 71 55 71 70 141 c 0,6,7
 83 201 83 201 96.5 265 c 128,-1,8
 110 329 110 329 120 377 c 1,9,10
 64 394 64 394 38 433 c 128,-1,11
 12 472 12 472 12 520 c 0,12,13
 12 561 12 561 30.5 603 c 128,-1,14
 49 645 49 645 84 679 c 128,-1,15
 119 713 119 713 169 734.5 c 128,-1,16
 219 756 219 756 282 756 c 0,17,18
 308 756 308 756 336.5 750.5 c 128,-1,19
 365 745 365 745 389 739 c 0,20,21
 416 732 416 732 443 723 c 1,22,23
 432 677 432 677 420 623 c 128,-1,24
 408 569 408 569 396 512 c 128,-1,25
 384 455 384 455 372.5 397.5 c 128,-1,26
 361 340 361 340 351 287 c 0,27,28
 326 162 326 162 303 34 c 1,29,-1
 196 23 l 1,0,-1
EndSplineSet
EndChar

StartChar: daggerdbl
Encoding: 8225 8225 176
Width: 284
Flags: W
HStem: 236 122<206 265> 506 119.5<66 124.746> 510 123<260 327.711> 737 20G<173 285>
DStem2: 52 140 158 121 0.196741 0.980455<2.22594 93.94 244.037 373.209 523.306 615.02>
LayerCount: 2
Fore
SplineSet
294 358 m 1,0,-1
 265 241 l 1,1,2
 258 241 258 241 247 240 c 0,3,4
 237 239 237 239 221 238 c 128,-1,5
 205 237 205 237 182 236 c 1,6,7
 176 206 176 206 171.5 184 c 128,-1,8
 167 162 167 162 164 148 c 0,9,10
 160 131 160 131 158 121 c 1,11,-1
 44 107 l 1,12,13
 48 122 48 122 52 140 c 0,14,15
 56 156 56 156 60.5 179 c 128,-1,16
 65 202 65 202 71 232 c 1,17,18
 50 231 50 231 27 231 c 128,-1,19
 4 231 4 231 -22 231 c 1,20,21
 -20 244 -20 244 -17 255 c 0,22,23
 -15 265 -15 265 -12.5 275.5 c 128,-1,24
 -10 286 -10 286 -8 294 c 0,25,26
 -4 308 -4 308 -1 319 c 128,-1,27
 2 330 2 330 5 338 c 0,28,29
 8 347 8 347 11 354 c 1,30,-1
 96 357 l 1,31,32
 97 363 97 363 101 381 c 0,33,34
 104 396 104 396 109.5 425.5 c 128,-1,35
 115 455 115 455 125 506 c 1,36,-1
 37 506 l 1,37,-1
 66 623 l 1,38,39
 73 623 73 623 84 624 c 0,40,41
 94 625 94 625 110 625.5 c 128,-1,42
 126 626 126 626 149 628 c 1,43,44
 154 658 154 658 159 679.5 c 128,-1,45
 164 701 164 701 167 715 c 0,46,47
 171 732 171 732 173 743 c 1,48,-1
 287 757 l 1,49,50
 283 742 283 742 279 724 c 0,51,52
 275 708 275 708 270 684.5 c 128,-1,53
 265 661 265 661 260 632 c 1,54,55
 281 633 281 633 304 633 c 128,-1,56
 327 633 327 633 353 633 c 1,57,58
 351 620 351 620 348 609 c 0,59,60
 346 599 346 599 343.5 588.5 c 128,-1,61
 341 578 341 578 339 570 c 0,62,63
 335 556 335 556 331.5 545 c 128,-1,64
 328 534 328 534 326 526 c 1,65,66
 322 517 322 517 320 510 c 1,67,-1
 235 507 l 1,68,69
 225 457 225 457 219.5 428 c 128,-1,70
 214 399 214 399 211 383 c 0,71,72
 207 365 207 365 206 358 c 1,73,-1
 294 358 l 1,0,-1
EndSplineSet
EndChar

StartChar: cent
Encoding: 162 162 177
Width: 404
Flags: W
VStem: -2 160<178.052 373.552>
LayerCount: 2
Fore
SplineSet
326 533 m 1,0,-1
 326 545 l 2,1,2
 326 554 326 554 325 565.5 c 128,-1,3
 324 577 324 577 322 587.5 c 128,-1,4
 320 598 320 598 317 605 c 128,-1,5
 314 612 314 612 309 612 c 0,6,7
 291 612 291 612 273.5 592 c 128,-1,8
 256 572 256 572 239 539 c 128,-1,9
 222 506 222 506 207.5 464.5 c 128,-1,10
 193 423 193 423 182 380.5 c 128,-1,11
 171 338 171 338 164.5 298 c 128,-1,12
 158 258 158 258 158 229 c 0,13,14
 158 205 158 205 162.5 191 c 128,-1,15
 167 177 167 177 178 177 c 0,16,17
 197 177 197 177 212.5 190 c 128,-1,18
 228 203 228 203 240 222.5 c 128,-1,19
 252 242 252 242 261.5 264.5 c 128,-1,20
 271 287 271 287 278 307 c 1,21,-1
 395 260 l 1,22,23
 361 167 361 167 317 108.5 c 128,-1,24
 273 50 273 50 225 22 c 1,25,26
 223 2 223 2 220.5 -22.5 c 128,-1,27
 218 -47 218 -47 213 -79 c 1,28,29
 200 -79 200 -79 187 -80 c 0,30,31
 176 -81 176 -81 163.5 -82 c 128,-1,32
 151 -83 151 -83 142 -84 c 0,33,34
 118 -87 118 -87 111.5 -87.5 c 128,-1,35
 105 -88 105 -88 104 -88 c 1,36,37
 111 -59 111 -59 114.5 -39.5 c 128,-1,38
 118 -20 118 -20 121 0 c 1,39,40
 68 10 68 10 33 66.5 c 128,-1,41
 -2 123 -2 123 -2 224 c 0,42,43
 -2 308 -2 308 19 391.5 c 128,-1,44
 40 475 40 475 77.5 545.5 c 128,-1,45
 115 616 115 616 168 667 c 128,-1,46
 221 718 221 718 285 738 c 1,47,48
 287 754 287 754 289 767.5 c 128,-1,49
 291 781 291 781 293 792 c 0,50,51
 295 804 295 804 297 814 c 1,52,-1
 394 816 l 1,53,54
 392 809 392 809 389 798 c 0,55,56
 387 789 387 789 384 776 c 128,-1,57
 381 763 381 763 378 747 c 1,58,59
 423 740 423 740 452 702.5 c 128,-1,60
 481 665 481 665 481 605 c 0,61,62
 481 599 481 599 481 592.5 c 128,-1,63
 481 586 481 586 480 579 c 1,64,-1
 326 533 l 1,0,-1
EndSplineSet
EndChar

StartChar: Eth
Encoding: 208 208 178
Width: 428
Flags: W
HStem: 2 21G<80 124.5> 623 125<229 283.562>
VStem: 316 154<372.261 589.112>
DStem2: -12 131 132 124 0.181676 0.983358<19.2779 211.987 346.2 529.128>
LayerCount: 2
Fore
SplineSet
26 446 m 1,0,1
 29 445 29 445 33 445 c 2,2,-1
 49 445 l 1,3,4
 63 521 63 521 75.5 593.5 c 128,-1,5
 88 666 88 666 96 725 c 1,6,7
 140 733 140 733 185 740.5 c 128,-1,8
 230 748 230 748 277 748 c 0,9,10
 330 748 330 748 367 729 c 128,-1,11
 404 710 404 710 427 676.5 c 128,-1,12
 450 643 450 643 460 598.5 c 128,-1,13
 470 554 470 554 470 503 c 0,14,15
 470 449 470 449 458 390.5 c 128,-1,16
 446 332 446 332 423.5 276.5 c 128,-1,17
 401 221 401 221 368.5 171 c 128,-1,18
 336 121 336 121 294.5 83.5 c 128,-1,19
 253 46 253 46 203 24 c 128,-1,20
 153 2 153 2 96 2 c 0,21,22
 64 2 64 2 32.5 11.5 c 128,-1,23
 1 21 1 21 -30 43 c 1,24,25
 -22 83 -22 83 -12 131 c 0,26,27
 -4 172 -4 172 7 225 c 128,-1,28
 18 278 18 278 29 339 c 1,29,30
 21 338 21 338 14.5 338 c 128,-1,31
 8 338 8 338 3 338 c 2,32,-1
 -8 338 l 1,33,-1
 26 446 l 1,0,1
132 124 m 1,34,35
 169 146 169 146 202 189.5 c 128,-1,36
 235 233 235 233 260.5 286.5 c 128,-1,37
 286 340 286 340 301 397 c 128,-1,38
 316 454 316 454 316 502 c 0,39,40
 316 527 316 527 311 549 c 128,-1,41
 306 571 306 571 295 587.5 c 128,-1,42
 284 604 284 604 267.5 613.5 c 128,-1,43
 251 623 251 623 229 623 c 1,44,45
 219 576 219 576 210.5 533 c 128,-1,46
 202 490 202 490 194 445 c 1,47,48
 205 445 205 445 215 445.5 c 128,-1,49
 225 446 225 446 233 446 c 0,50,51
 242 446 242 446 250 447 c 1,52,-1
 225 337 l 1,53,-1
 210 337 l 2,54,55
 203 337 203 337 194 337.5 c 128,-1,56
 185 338 185 338 175 338 c 1,57,58
 165 289 165 289 155 236.5 c 128,-1,59
 145 184 145 184 132 124 c 1,34,35
EndSplineSet
EndChar

StartChar: eth
Encoding: 240 240 179
Width: 428
Flags: W
HStem: 2 21G<80 124.5> 623 125<229 283.562>
VStem: 316 154<372.261 589.112>
DStem2: -12 131 132 124 0.181676 0.983358<19.2779 211.987 346.2 529.128>
LayerCount: 2
Fore
SplineSet
26 446 m 1,0,1
 29 445 29 445 33 445 c 2,2,-1
 49 445 l 1,3,4
 63 521 63 521 75.5 593.5 c 128,-1,5
 88 666 88 666 96 725 c 1,6,7
 140 733 140 733 185 740.5 c 128,-1,8
 230 748 230 748 277 748 c 0,9,10
 330 748 330 748 367 729 c 128,-1,11
 404 710 404 710 427 676.5 c 128,-1,12
 450 643 450 643 460 598.5 c 128,-1,13
 470 554 470 554 470 503 c 0,14,15
 470 449 470 449 458 390.5 c 128,-1,16
 446 332 446 332 423.5 276.5 c 128,-1,17
 401 221 401 221 368.5 171 c 128,-1,18
 336 121 336 121 294.5 83.5 c 128,-1,19
 253 46 253 46 203 24 c 128,-1,20
 153 2 153 2 96 2 c 0,21,22
 64 2 64 2 32.5 11.5 c 128,-1,23
 1 21 1 21 -30 43 c 1,24,25
 -22 83 -22 83 -12 131 c 0,26,27
 -4 172 -4 172 7 225 c 128,-1,28
 18 278 18 278 29 339 c 1,29,30
 21 338 21 338 14.5 338 c 128,-1,31
 8 338 8 338 3 338 c 2,32,-1
 -8 338 l 1,33,-1
 26 446 l 1,0,1
132 124 m 1,34,35
 169 146 169 146 202 189.5 c 128,-1,36
 235 233 235 233 260.5 286.5 c 128,-1,37
 286 340 286 340 301 397 c 128,-1,38
 316 454 316 454 316 502 c 0,39,40
 316 527 316 527 311 549 c 128,-1,41
 306 571 306 571 295 587.5 c 128,-1,42
 284 604 284 604 267.5 613.5 c 128,-1,43
 251 623 251 623 229 623 c 1,44,45
 219 576 219 576 210.5 533 c 128,-1,46
 202 490 202 490 194 445 c 1,47,48
 205 445 205 445 215 445.5 c 128,-1,49
 225 446 225 446 233 446 c 0,50,51
 242 446 242 446 250 447 c 1,52,-1
 225 337 l 1,53,-1
 210 337 l 2,54,55
 203 337 203 337 194 337.5 c 128,-1,56
 185 338 185 338 175 338 c 1,57,58
 165 289 165 289 155 236.5 c 128,-1,59
 145 184 145 184 132 124 c 1,34,35
EndSplineSet
EndChar

StartChar: Lslash
Encoding: 321 321 180
Width: 334
Flags: W
HStem: -2 21G<-16.5 -7> 33 114<161.422 268.49> 734 20G<140 286.5>
LayerCount: 2
Fore
SplineSet
281 32 m 1,0,1
 273 32 273 32 265.5 32.5 c 128,-1,2
 258 33 258 33 250 33 c 0,3,4
 218 33 218 33 182.5 31 c 128,-1,5
 147 29 147 29 111.5 24.5 c 128,-1,6
 76 20 76 20 41.5 13.5 c 128,-1,7
 7 7 7 7 -21 -2 c 1,8,9
 -12 69 -12 69 2.5 159 c 128,-1,10
 17 249 17 249 34 341 c 1,11,12
 25 337 25 337 17 334.5 c 128,-1,13
 9 332 9 332 4 330 c 0,14,15
 -3 327 -3 327 -8 325 c 1,16,-1
 3 452 l 1,17,18
 11 454 11 454 20 457 c 0,19,20
 28 459 28 459 37.5 462 c 128,-1,21
 47 465 47 465 58 469 c 1,22,23
 69 524 69 524 77.5 571.5 c 128,-1,24
 86 619 86 619 94 654 c 1,25,26
 102 695 102 695 110 730 c 1,27,-1
 290 754 l 1,28,29
 283 724 283 724 274 689 c 0,30,31
 266 659 266 659 257 618.5 c 128,-1,32
 248 578 248 578 237 531 c 1,33,34
 254 537 254 537 271.5 543.5 c 128,-1,35
 289 550 289 550 303 555 c 0,36,37
 320 561 320 561 335 568 c 1,38,-1
 338 445 l 1,39,-1
 209 402 l 1,40,41
 194 330 194 330 181 262.5 c 128,-1,42
 168 195 168 195 161 144 c 1,43,44
 186 146 186 146 215 146.5 c 128,-1,45
 244 147 244 147 267 147 c 1,46,47
 268 128 268 128 270 109 c 128,-1,48
 272 90 272 90 274.5 74.5 c 128,-1,49
 277 59 277 59 278.5 47.5 c 128,-1,50
 280 36 280 36 281 32 c 1,0,1
EndSplineSet
EndChar

StartChar: lslash
Encoding: 322 322 181
Width: 334
Flags: W
HStem: -2 21G<-16.5 -7> 33 114<161.422 268.49> 734 20G<140 286.5>
LayerCount: 2
Fore
SplineSet
281 32 m 1,0,1
 273 32 273 32 265.5 32.5 c 128,-1,2
 258 33 258 33 250 33 c 0,3,4
 218 33 218 33 182.5 31 c 128,-1,5
 147 29 147 29 111.5 24.5 c 128,-1,6
 76 20 76 20 41.5 13.5 c 128,-1,7
 7 7 7 7 -21 -2 c 1,8,9
 -12 69 -12 69 2.5 159 c 128,-1,10
 17 249 17 249 34 341 c 1,11,12
 25 337 25 337 17 334.5 c 128,-1,13
 9 332 9 332 4 330 c 0,14,15
 -3 327 -3 327 -8 325 c 1,16,-1
 3 452 l 1,17,18
 11 454 11 454 20 457 c 0,19,20
 28 459 28 459 37.5 462 c 128,-1,21
 47 465 47 465 58 469 c 1,22,23
 69 524 69 524 77.5 571.5 c 128,-1,24
 86 619 86 619 94 654 c 1,25,26
 102 695 102 695 110 730 c 1,27,-1
 290 754 l 1,28,29
 283 724 283 724 274 689 c 0,30,31
 266 659 266 659 257 618.5 c 128,-1,32
 248 578 248 578 237 531 c 1,33,34
 254 537 254 537 271.5 543.5 c 128,-1,35
 289 550 289 550 303 555 c 0,36,37
 320 561 320 561 335 568 c 1,38,-1
 338 445 l 1,39,-1
 209 402 l 1,40,41
 194 330 194 330 181 262.5 c 128,-1,42
 168 195 168 195 161 144 c 1,43,44
 186 146 186 146 215 146.5 c 128,-1,45
 244 147 244 147 267 147 c 1,46,47
 268 128 268 128 270 109 c 128,-1,48
 272 90 272 90 274.5 74.5 c 128,-1,49
 277 59 277 59 278.5 47.5 c 128,-1,50
 280 36 280 36 281 32 c 1,0,1
EndSplineSet
EndChar

StartChar: Thorn
Encoding: 222 222 186
Width: 368
Flags: W
HStem: -1 21G<-29.5 56.1429> 746 20G<264.882 266>
VStem: 279 142<362.832 522.972>
DStem2: -45 -1 137 70 0.188799 0.982016<68.2557 210.972 320.995 582.246 708.359 762.717>
LayerCount: 2
Fore
SplineSet
-45 -1 m 1,0,1
 -14 144 -14 144 13 282 c 0,2,3
 25 341 25 341 37 404 c 128,-1,4
 49 467 49 467 60.5 528 c 128,-1,5
 72 589 72 589 82 645.5 c 128,-1,6
 92 702 92 702 99 748 c 1,7,8
 142 753 142 753 178 757 c 0,9,10
 209 760 209 760 236 763 c 128,-1,11
 263 766 263 766 269 766 c 1,12,-1
 248 664 l 1,13,14
 295 664 295 664 328 648 c 128,-1,15
 361 632 361 632 381.5 605 c 128,-1,16
 402 578 402 578 411.5 542 c 128,-1,17
 421 506 421 506 421 466 c 0,18,19
 421 409 421 409 399.5 356.5 c 128,-1,20
 378 304 378 304 342.5 263.5 c 128,-1,21
 307 223 307 223 261.5 199 c 128,-1,22
 216 175 216 175 168 175 c 2,23,-1
 157 175 l 1,24,25
 149 140 149 140 144.5 114 c 128,-1,26
 140 88 140 88 137 70 c 0,27,28
 133 49 133 49 132 34 c 1,29,-1
 -45 -1 l 1,0,1
225 540 m 1,30,31
 213 472 213 472 202 411.5 c 128,-1,32
 191 351 191 351 178 283 c 1,33,34
 194 287 194 287 212 302 c 128,-1,35
 230 317 230 317 245 341 c 128,-1,36
 260 365 260 365 269.5 396.5 c 128,-1,37
 279 428 279 428 279 463 c 0,38,39
 279 501 279 501 262 520.5 c 128,-1,40
 245 540 245 540 225 540 c 1,30,31
EndSplineSet
EndChar

StartChar: thorn
Encoding: 254 254 187
Width: 368
Flags: W
HStem: -1 21G<-29.5 56.1429> 746 20G<264.882 266>
VStem: 279 142<362.832 522.972>
DStem2: -45 -1 137 70 0.188799 0.982016<68.2557 210.972 320.995 582.246 708.359 762.717>
LayerCount: 2
Fore
SplineSet
-45 -1 m 1,0,1
 -14 144 -14 144 13 282 c 0,2,3
 25 341 25 341 37 404 c 128,-1,4
 49 467 49 467 60.5 528 c 128,-1,5
 72 589 72 589 82 645.5 c 128,-1,6
 92 702 92 702 99 748 c 1,7,8
 142 753 142 753 178 757 c 0,9,10
 209 760 209 760 236 763 c 128,-1,11
 263 766 263 766 269 766 c 1,12,-1
 248 664 l 1,13,14
 295 664 295 664 328 648 c 128,-1,15
 361 632 361 632 381.5 605 c 128,-1,16
 402 578 402 578 411.5 542 c 128,-1,17
 421 506 421 506 421 466 c 0,18,19
 421 409 421 409 399.5 356.5 c 128,-1,20
 378 304 378 304 342.5 263.5 c 128,-1,21
 307 223 307 223 261.5 199 c 128,-1,22
 216 175 216 175 168 175 c 2,23,-1
 157 175 l 1,24,25
 149 140 149 140 144.5 114 c 128,-1,26
 140 88 140 88 137 70 c 0,27,28
 133 49 133 49 132 34 c 1,29,-1
 -45 -1 l 1,0,1
225 540 m 1,30,31
 213 472 213 472 202 411.5 c 128,-1,32
 191 351 191 351 178 283 c 1,33,34
 194 287 194 287 212 302 c 128,-1,35
 230 317 230 317 245 341 c 128,-1,36
 260 365 260 365 269.5 396.5 c 128,-1,37
 279 428 279 428 279 463 c 0,38,39
 279 501 279 501 262 520.5 c 128,-1,40
 245 540 245 540 225 540 c 1,30,31
EndSplineSet
EndChar

StartChar: onequarter
Encoding: 188 188 191
Width: 1344
Flags: W
DStem2: 96 161 271 195 0.182867 0.983138<55.1408 406.718> 239.5 90.5 351 -30 0.556936 0.830556<-37.9837 386.914 390.019 578.44 581.707 827.863> 669 285 795 224 0.398451 0.91719<-24.2454 249.989>
LayerCount: 2
Fore
SplineSet
1068 439 m 1,0,1
 1066 428 1066 428 1058 394.5 c 128,-1,2
 1050 361 1050 361 1041 323 c 128,-1,3
 1032 285 1032 285 1024 251.5 c 128,-1,4
 1016 218 1016 218 1014 206 c 1,5,-1
 1070 206 l 1,6,-1
 1029 83 l 1,7,-1
 978 83 l 1,8,-1
 969 -18 l 1,9,-1
 803 -43 l 1,10,-1
 823 81 l 1,11,-1
 651 70 l 1,12,-1
 606 140 l 1,13,14
 639 215 639 215 669 285 c 0,15,16
 682 315 682 315 695 346 c 128,-1,17
 708 377 708 377 721 406 c 128,-1,18
 734 435 734 435 745 461 c 128,-1,19
 756 487 756 487 765 506 c 1,20,21
 807 506 807 506 845 507.5 c 128,-1,22
 883 509 883 509 926 514 c 1,23,24
 888 443 888 443 856.5 371 c 128,-1,25
 825 299 825 299 795 224 c 0,26,27
 794 219 794 219 793 215 c 128,-1,28
 792 211 792 211 790 206 c 1,29,-1
 862 206 l 1,30,31
 863 211 863 211 866 223 c 128,-1,32
 869 235 869 235 873 251.5 c 128,-1,33
 877 268 877 268 881.5 287 c 128,-1,34
 886 306 886 306 891 325 c 0,35,36
 902 370 902 370 915 424 c 1,37,38
 943 427 943 427 970 430 c 0,39,40
 993 432 993 432 1020 434.5 c 128,-1,41
 1047 437 1047 437 1068 439 c 1,0,1
76 695 m 1,42,43
 99 700 99 700 139 706 c 0,44,45
 174 711 174 711 230.5 719 c 128,-1,46
 287 727 287 727 372 738 c 1,47,48
 349 623 349 623 324.5 482 c 128,-1,49
 300 341 300 341 271 195 c 1,50,51
 249 189 249 189 219 183 c 128,-1,52
 189 177 189 177 162 172 c 0,53,54
 129 166 129 166 96 161 c 1,55,56
 110 227 110 227 124 297 c 0,57,58
 136 356 136 356 150 426 c 128,-1,59
 164 496 164 496 175 560 c 1,60,61
 151 558 151 558 129 555 c 0,62,63
 110 553 110 553 90 550 c 128,-1,64
 70 547 70 547 56 545 c 1,65,66
 58 556 58 556 61.5 581 c 128,-1,67
 65 606 65 606 68 632 c 0,68,69
 72 662 72 662 76 695 c 1,42,43
868 741 m 1,70,71
 837 695 837 695 798.5 637.5 c 128,-1,72
 760 580 760 580 718 517.5 c 128,-1,73
 676 455 676 455 632.5 390 c 128,-1,74
 589 325 589 325 548 264 c 0,75,76
 452 121 452 121 351 -30 c 1,77,-1
 181 10 l 1,78,79
 203 40 203 40 239.5 90.5 c 128,-1,80
 276 141 276 141 320.5 204.5 c 128,-1,81
 365 268 365 268 415 341 c 128,-1,82
 465 414 465 414 515.5 489 c 128,-1,83
 566 564 566 564 613.5 637 c 128,-1,84
 661 710 661 710 700 774 c 1,85,86
 709 768 709 768 730 762.5 c 128,-1,87
 751 757 751 757 776 753 c 128,-1,88
 801 749 801 749 826 746 c 128,-1,89
 851 743 851 743 868 741 c 1,70,71
EndSplineSet
EndChar

StartChar: threequarters
Encoding: 190 190 192
Width: 1468
Flags: W
HStem: 146 130<162.5 287.167> 622 120<126 268.904> 625 123<128.435 306>
VStem: 306 145<294.641 375.804>
DStem2: 336.5 90.5 448 -30 0.556936 0.830556<-37.9837 386.914 390.019 578.44 581.707 827.863> 749 285 875 224 0.398451 0.91719<-24.2454 249.989>
LayerCount: 2
Fore
SplineSet
1148 439 m 1,0,1
 1146 428 1146 428 1138 394.5 c 128,-1,2
 1130 361 1130 361 1121 323 c 128,-1,3
 1112 285 1112 285 1104 251.5 c 128,-1,4
 1096 218 1096 218 1094 206 c 1,5,-1
 1150 206 l 1,6,-1
 1109 83 l 1,7,-1
 1058 83 l 1,8,-1
 1049 -18 l 1,9,-1
 883 -43 l 1,10,-1
 903 81 l 1,11,-1
 731 70 l 1,12,-1
 686 140 l 1,13,14
 719 215 719 215 749 285 c 0,15,16
 762 315 762 315 775 346 c 128,-1,17
 788 377 788 377 801 406 c 128,-1,18
 814 435 814 435 825 461 c 128,-1,19
 836 487 836 487 845 506 c 1,20,21
 887 506 887 506 925 507.5 c 128,-1,22
 963 509 963 509 1006 514 c 1,23,24
 968 443 968 443 936.5 371 c 128,-1,25
 905 299 905 299 875 224 c 0,26,27
 874 219 874 219 873 215 c 128,-1,28
 872 211 872 211 870 206 c 1,29,-1
 942 206 l 1,30,31
 943 211 943 211 946 223 c 128,-1,32
 949 235 949 235 953 251.5 c 128,-1,33
 957 268 957 268 961.5 287 c 128,-1,34
 966 306 966 306 971 325 c 0,35,36
 982 370 982 370 995 424 c 1,37,38
 1023 427 1023 427 1050 430 c 0,39,40
 1073 432 1073 432 1100 434.5 c 128,-1,41
 1127 437 1127 437 1148 439 c 1,0,1
222 306 m 1,42,43
 222 290 222 290 228.5 283 c 128,-1,44
 235 276 235 276 245 276 c 0,45,46
 254 276 254 276 265 281.5 c 128,-1,47
 276 287 276 287 285 296 c 128,-1,48
 294 305 294 305 300 316.5 c 128,-1,49
 306 328 306 328 306 340 c 0,50,51
 306 360 306 360 284 376 c 128,-1,52
 262 392 262 392 213 392 c 0,53,54
 176 392 176 392 140.5 388 c 128,-1,55
 105 384 105 384 82 382 c 1,56,-1
 98 502 l 1,57,58
 132 520 132 520 168.5 541.5 c 128,-1,59
 205 563 205 563 236 582 c 0,60,61
 272 604 272 604 306 625 c 1,62,-1
 115 622 l 1,63,-1
 126 742 l 1,64,65
 204 745 204 745 271 748 c 0,66,67
 299 749 299 749 328.5 750 c 128,-1,68
 358 751 358 751 383.5 752 c 128,-1,69
 409 753 409 753 430 753.5 c 128,-1,70
 451 754 451 754 463 754 c 1,71,-1
 441 582 l 1,72,-1
 285 496 l 1,73,74
 330 489 330 489 361.5 475.5 c 128,-1,75
 393 462 393 462 413 444 c 128,-1,76
 433 426 433 426 442 404 c 128,-1,77
 451 382 451 382 451 359 c 0,78,79
 451 322 451 322 430 284 c 128,-1,80
 409 246 409 246 373.5 215.5 c 128,-1,81
 338 185 338 185 291.5 165.5 c 128,-1,82
 245 146 245 146 194 146 c 0,83,84
 131 146 131 146 90.5 171.5 c 128,-1,85
 50 197 50 197 50 257 c 0,86,87
 50 278 50 278 58 298 c 1,88,-1
 222 306 l 1,42,43
965 741 m 1,89,90
 934 695 934 695 895.5 637.5 c 128,-1,91
 857 580 857 580 815 517.5 c 128,-1,92
 773 455 773 455 729.5 390 c 128,-1,93
 686 325 686 325 645 264 c 0,94,95
 549 121 549 121 448 -30 c 1,96,-1
 278 10 l 1,97,98
 300 40 300 40 336.5 90.5 c 128,-1,99
 373 141 373 141 417.5 204.5 c 128,-1,100
 462 268 462 268 512 341 c 128,-1,101
 562 414 562 414 612.5 489 c 128,-1,102
 663 564 663 564 710.5 637 c 128,-1,103
 758 710 758 710 797 774 c 1,104,105
 806 768 806 768 827 762.5 c 128,-1,106
 848 757 848 757 873 753 c 128,-1,107
 898 749 898 749 923 746 c 128,-1,108
 948 743 948 743 965 741 c 1,89,90
EndSplineSet
EndChar

StartChar: uni00B9
Encoding: 185 185 193
Width: 346
Flags: W
VStem: 56 316
DStem2: 96 161 271 195 0.182867 0.983138<55.1408 406.718>
LayerCount: 2
Fore
SplineSet
76 695 m 1,0,1
 99 700 99 700 139 706 c 0,2,3
 174 711 174 711 230.5 719 c 128,-1,4
 287 727 287 727 372 738 c 1,5,6
 349 623 349 623 324.5 482 c 128,-1,7
 300 341 300 341 271 195 c 1,8,9
 249 189 249 189 219 183 c 128,-1,10
 189 177 189 177 162 172 c 0,11,12
 129 166 129 166 96 161 c 1,13,14
 110 227 110 227 124 297 c 0,15,16
 136 356 136 356 150 426 c 128,-1,17
 164 496 164 496 175 560 c 1,18,19
 151 558 151 558 129 555 c 0,20,21
 110 553 110 553 90 550 c 128,-1,22
 70 547 70 547 56 545 c 1,23,24
 58 556 58 556 61.5 581 c 128,-1,25
 65 606 65 606 68 632 c 0,26,27
 72 662 72 662 76 695 c 1,0,1
EndSplineSet
EndChar

StartChar: uni00B3
Encoding: 179 179 194
Width: 470
Flags: W
HStem: 146 130<162.5 287.167> 622 120<126 268.904> 625 123<128.435 306>
VStem: 306 145<294.641 375.804>
LayerCount: 2
Fore
SplineSet
222 306 m 1,0,1
 222 290 222 290 228.5 283 c 128,-1,2
 235 276 235 276 245 276 c 0,3,4
 254 276 254 276 265 281.5 c 128,-1,5
 276 287 276 287 285 296 c 128,-1,6
 294 305 294 305 300 316.5 c 128,-1,7
 306 328 306 328 306 340 c 0,8,9
 306 360 306 360 284 376 c 128,-1,10
 262 392 262 392 213 392 c 0,11,12
 176 392 176 392 140.5 388 c 128,-1,13
 105 384 105 384 82 382 c 1,14,-1
 98 502 l 1,15,16
 132 520 132 520 168.5 541.5 c 128,-1,17
 205 563 205 563 236 582 c 0,18,19
 272 604 272 604 306 625 c 1,20,-1
 115 622 l 1,21,-1
 126 742 l 1,22,23
 204 745 204 745 271 748 c 0,24,25
 299 749 299 749 328.5 750 c 128,-1,26
 358 751 358 751 383.5 752 c 128,-1,27
 409 753 409 753 430 753.5 c 128,-1,28
 451 754 451 754 463 754 c 1,29,-1
 441 582 l 1,30,-1
 285 496 l 1,31,32
 330 489 330 489 361.5 475.5 c 128,-1,33
 393 462 393 462 413 444 c 128,-1,34
 433 426 433 426 442 404 c 128,-1,35
 451 382 451 382 451 359 c 0,36,37
 451 322 451 322 430 284 c 128,-1,38
 409 246 409 246 373.5 215.5 c 128,-1,39
 338 185 338 185 291.5 165.5 c 128,-1,40
 245 146 245 146 194 146 c 0,41,42
 131 146 131 146 90.5 171.5 c 128,-1,43
 50 197 50 197 50 257 c 0,44,45
 50 278 50 278 58 298 c 1,46,-1
 222 306 l 1,0,1
EndSplineSet
EndChar

StartChar: uni00B2
Encoding: 178 178 195
Width: 482
Flags: W
HStem: 198.5 110.5<196 391> 203 114<324 391> 612 134<234.187 314.253>
VStem: 70 152<537.031 599.834> 323 175<527.748 603.186>
LayerCount: 2
Fore
SplineSet
70 549 m 0,0,1
 70 596 70 596 91 632.5 c 128,-1,2
 112 669 112 669 146 694.5 c 128,-1,3
 180 720 180 720 222.5 733 c 128,-1,4
 265 746 265 746 307 746 c 0,5,6
 344 746 344 746 379 736.5 c 128,-1,7
 414 727 414 727 440 707.5 c 128,-1,8
 466 688 466 688 482 658.5 c 128,-1,9
 498 629 498 629 498 588 c 0,10,11
 498 549 498 549 475 512 c 128,-1,12
 452 475 452 475 411.5 440.5 c 128,-1,13
 371 406 371 406 315.5 373 c 128,-1,14
 260 340 260 340 196 309 c 1,15,16
 218 309 218 309 253.5 310 c 128,-1,17
 289 311 289 311 324 313 c 0,18,19
 364 315 364 315 408 317 c 1,20,-1
 391 203 l 1,21,22
 371 202 371 202 344.5 201.5 c 128,-1,23
 318 201 318 201 287.5 200 c 128,-1,24
 257 199 257 199 225 198.5 c 128,-1,25
 193 198 193 198 163 197 c 0,26,27
 92 195 92 195 14 193 c 1,28,-1
 31 293 l 2,29,30
 35 317 35 317 58 342 c 128,-1,31
 81 367 81 367 113.5 392 c 128,-1,32
 146 417 146 417 183 441.5 c 128,-1,33
 220 466 220 466 251 488 c 128,-1,34
 282 510 282 510 302.5 529 c 128,-1,35
 323 548 323 548 323 563 c 0,36,37
 323 586 323 586 311.5 599 c 128,-1,38
 300 612 300 612 283 612 c 0,39,40
 265 612 265 612 253.5 606 c 128,-1,41
 242 600 242 600 235 591 c 128,-1,42
 228 582 228 582 225 570.5 c 128,-1,43
 222 559 222 559 222 549 c 2,44,-1
 222 540 l 2,45,46
 222 538 222 538 223 537 c 1,47,48
 200 535 200 535 174 533 c 0,49,50
 152 531 152 531 125 528.5 c 128,-1,51
 98 526 98 526 72 524 c 1,52,53
 71 530 71 530 70.5 536.5 c 128,-1,54
 70 543 70 543 70 549 c 0,0,1
EndSplineSet
EndChar

StartChar: multiply
Encoding: 215 215 196
Width: 406
Flags: W
LayerCount: 2
Fore
SplineSet
220 637 m 1,0,1
 226 604 226 604 236.5 565 c 128,-1,2
 247 526 247 526 254 492 c 1,3,4
 274 527 274 527 295 559.5 c 128,-1,5
 316 592 316 592 338 626 c 1,6,-1
 487 596 l 1,7,8
 460 566 460 566 430.5 528 c 128,-1,9
 401 490 401 490 375 455 c 0,10,11
 345 415 345 415 317 373 c 1,12,13
 329 336 329 336 342 301 c 0,14,15
 353 271 353 271 365.5 237 c 128,-1,16
 378 203 378 203 389 177 c 1,17,18
 387 176 387 176 375 173 c 128,-1,19
 363 170 363 170 344.5 165 c 128,-1,20
 326 160 326 160 304 153.5 c 128,-1,21
 282 147 282 147 261 141 c 128,-1,22
 240 135 240 135 221.5 129.5 c 128,-1,23
 203 124 203 124 193 120 c 1,24,25
 187 143 187 143 183 165 c 0,26,27
 179 183 179 183 175 202.5 c 128,-1,28
 171 222 171 222 169 234 c 1,29,30
 161 221 161 221 148 202.5 c 128,-1,31
 135 184 135 184 122 167 c 0,32,33
 107 147 107 147 90 124 c 1,34,-1
 -84 139 l 1,35,36
 -58 169 -58 169 -24.5 210 c 128,-1,37
 9 251 9 251 40 288 c 0,38,39
 76 331 76 331 113 376 c 1,40,41
 103 410 103 410 93 444 c 0,42,43
 85 473 85 473 75 506.5 c 128,-1,44
 65 540 65 540 56 569 c 1,45,-1
 220 637 l 1,0,1
EndSplineSet
EndChar

StartChar: Euro
Encoding: 8364 8364 197
Width: 495
Flags: W
HStem: 1 161<191.63 283.781> 241 103<6.71423 33 188 262.407> 384 98<245 291.676> 555 198<292.361 395>
LayerCount: 2
Fore
SplineSet
91 483 m 1,0,1
 115 538 115 538 146.5 587 c 128,-1,2
 178 636 178 636 215 673 c 128,-1,3
 252 710 252 710 294 731.5 c 128,-1,4
 336 753 336 753 381 753 c 0,5,6
 409 753 409 753 430 737 c 128,-1,7
 451 721 451 721 465.5 693 c 128,-1,8
 480 665 480 665 488.5 626.5 c 128,-1,9
 497 588 497 588 499 544 c 1,10,-1
 380 497 l 1,11,12
 376 523 376 523 367 539 c 128,-1,13
 358 555 358 555 341 555 c 0,14,15
 315 555 315 555 290.5 534.5 c 128,-1,16
 266 514 266 514 245 482 c 1,17,-1
 308 482 l 1,18,19
 304 465 304 465 300 447 c 0,20,21
 297 432 297 432 293.5 415 c 128,-1,22
 290 398 290 398 287 385 c 1,23,24
 276 384 276 384 267 384 c 128,-1,25
 258 384 258 384 250 384 c 2,26,-1
 200 384 l 1,27,28
 196 373 196 373 193.5 363.5 c 128,-1,29
 191 354 191 354 188 344 c 1,30,31
 211 344 211 344 232.5 344 c 128,-1,32
 254 344 254 344 276 343 c 1,33,34
 273 329 273 329 270 312 c 128,-1,35
 267 295 267 295 265 280 c 0,36,37
 262 262 262 262 260 244 c 1,38,-1
 176 243 l 1,39,40
 178 207 178 207 191 184.5 c 128,-1,41
 204 162 204 162 233 162 c 0,42,43
 255 162 255 162 274.5 176.5 c 128,-1,44
 294 191 294 191 310 215 c 1,45,-1
 398 135 l 1,46,47
 362 75 362 75 315.5 38 c 128,-1,48
 269 1 269 1 209 1 c 0,49,50
 162 1 162 1 128.5 18.5 c 128,-1,51
 95 36 95 36 74 66 c 128,-1,52
 53 96 53 96 43 136.5 c 128,-1,53
 33 177 33 177 33 224 c 2,54,-1
 33 241 l 1,55,-1
 -16 241 l 1,56,57
 -10 261 -10 261 -5 279 c 0,58,59
 0 295 0 295 4.5 312.5 c 128,-1,60
 9 330 9 330 11 344 c 1,61,-1
 46 344 l 1,62,-1
 56 384 l 1,63,-1
 23 384 l 2,64,65
 16 384 16 384 10 385 c 1,66,67
 15 403 15 403 20 421 c 0,68,69
 25 436 25 436 29 453.5 c 128,-1,70
 33 471 33 471 38 486 c 1,71,-1
 91 483 l 1,0,1
EndSplineSet
EndChar

StartChar: quoteleft
Encoding: 8216 8216 198
Width: 247
Flags: W
HStem: 472 336
VStem: 58 268
LayerCount: 2
Fore
SplineSet
226 489 m 1,0,-1
 58 472 l 1,1,2
 72 527 72 527 86 583 c 0,3,4
 98 631 98 631 111.5 688 c 128,-1,5
 125 745 125 745 137 797 c 1,6,7
 143 796 143 796 154 795.5 c 128,-1,8
 165 795 165 795 176.5 794.5 c 128,-1,9
 188 794 188 794 199 794 c 128,-1,10
 210 794 210 794 216 794 c 0,11,12
 230 794 230 794 249 796 c 128,-1,13
 268 798 268 798 285 801 c 0,14,15
 305 804 305 804 326 808 c 1,16,-1
 226 489 l 1,0,-1
EndSplineSet
EndChar

StartChar: currency
Encoding: 164 164 199
Width: 495
Flags: W
HStem: 282 102<215.479 315.257> 611 95<264.273 369.442>
VStem: 94 107<400.449 527.144> 381 92<463.134 597.179>
DStem2: 49 318 101 259 0.709698 0.704506<0 68.2065 513.597 572.561>
LayerCount: 2
Fore
SplineSet
341 706 m 0,0,1
 389 706 389 706 421 682 c 1,2,-1
 459 721 l 1,3,4
 469 707 469 707 485 691.5 c 128,-1,5
 501 676 501 676 511 666 c 1,6,-1
 464 621 l 1,7,8
 473 588 473 588 473 555 c 0,9,10
 473 506 473 506 455.5 457.5 c 128,-1,11
 438 409 438 409 406 367 c 1,12,13
 420 347 420 347 429 333.5 c 128,-1,14
 438 320 438 320 444 312 c 0,15,16
 451 302 451 302 455 298 c 1,17,-1
 390 252 l 1,18,19
 388 253 388 253 384 261 c 1,20,21
 379 268 379 268 371 281 c 128,-1,22
 363 294 363 294 347 320 c 1,23,24
 321 302 321 302 294.5 292 c 128,-1,25
 268 282 268 282 243 282 c 0,26,27
 184 282 184 282 149 305 c 1,28,29
 134 291 134 291 124.5 282 c 128,-1,30
 115 273 115 273 110 268 c 2,31,-1
 101 259 l 1,32,-1
 49 318 l 1,33,34
 54 323 54 323 62 330 c 0,35,36
 69 336 69 336 78.5 344.5 c 128,-1,37
 88 353 88 353 102 366 c 1,38,39
 99 378 99 378 96.5 391.5 c 128,-1,40
 94 405 94 405 94 420 c 0,41,42
 94 468 94 468 113 519 c 128,-1,43
 132 570 132 570 166 612 c 1,44,-1
 117 684 l 1,45,46
 131 692 131 692 150 703 c 128,-1,47
 169 714 169 714 182 725 c 1,48,49
 190 711 190 711 195 703 c 128,-1,50
 200 695 200 695 203.5 688.5 c 128,-1,51
 207 682 207 682 211 675.5 c 128,-1,52
 215 669 215 669 221 660 c 1,53,54
 247 681 247 681 278 693.5 c 128,-1,55
 309 706 309 706 341 706 c 0,0,1
261 384 m 0,56,57
 286 384 286 384 307.5 400 c 128,-1,58
 329 416 329 416 345.5 440.5 c 128,-1,59
 362 465 362 465 371.5 493.5 c 128,-1,60
 381 522 381 522 381 547 c 0,61,62
 381 574 381 574 368.5 592.5 c 128,-1,63
 356 611 356 611 329 611 c 0,64,65
 298 611 298 611 274.5 596 c 128,-1,66
 251 581 251 581 234.5 557.5 c 128,-1,67
 218 534 218 534 209.5 506.5 c 128,-1,68
 201 479 201 479 201 455 c 0,69,70
 201 425 201 425 215.5 404.5 c 128,-1,71
 230 384 230 384 261 384 c 0,56,57
EndSplineSet
EndChar

StartChar: section
Encoding: 167 167 200
Width: 445
Flags: W
HStem: -18 131<59.4593 168.944> 665 113<273.824 351.255>
VStem: 19 160<362.299 440.834> 126 141<592.578 656.214> 177 162<120.838 195.174> 262 170<357.34 448.855>
LayerCount: 2
Fore
SplineSet
358 614 m 1,0,1
 358 643 358 643 346 654 c 128,-1,2
 334 665 334 665 319 665 c 0,3,4
 300 665 300 665 283.5 652.5 c 128,-1,5
 267 640 267 640 267 623 c 0,6,7
 267 611 267 611 279 600.5 c 128,-1,8
 291 590 291 590 309.5 578.5 c 128,-1,9
 328 567 328 567 349.5 553.5 c 128,-1,10
 371 540 371 540 389.5 522 c 128,-1,11
 408 504 408 504 420 480.5 c 128,-1,12
 432 457 432 457 432 425 c 0,13,14
 432 372 432 372 397.5 333 c 128,-1,15
 363 294 363 294 312 268 c 1,16,17
 326 238 326 238 332.5 210.5 c 128,-1,18
 339 183 339 183 339 158 c 0,19,20
 339 117 339 117 322.5 84 c 128,-1,21
 306 51 306 51 278 28.5 c 128,-1,22
 250 6 250 6 213 -6 c 128,-1,23
 176 -18 176 -18 135 -18 c 0,24,25
 96 -18 96 -18 55.5 -3.5 c 128,-1,26
 15 11 15 11 -25 43 c 1,27,-1
 21 165 l 1,28,29
 43 142 43 142 75 127.5 c 128,-1,30
 107 113 107 113 136 113 c 0,31,32
 152 113 152 113 164.5 123.5 c 128,-1,33
 177 134 177 134 177 151 c 0,34,35
 177 172 177 172 152.5 197.5 c 128,-1,36
 128 223 128 223 98 251.5 c 128,-1,37
 68 280 68 280 43.5 311 c 128,-1,38
 19 342 19 342 19 373 c 0,39,40
 19 424 19 424 53 466 c 128,-1,41
 87 508 87 508 159 528 c 1,42,43
 126 577 126 577 126 621 c 0,44,45
 126 658 126 658 146.5 687 c 128,-1,46
 167 716 167 716 199 736 c 128,-1,47
 231 756 231 756 270.5 767 c 128,-1,48
 310 778 310 778 349 778 c 0,49,50
 378 778 378 778 403.5 771.5 c 128,-1,51
 429 765 429 765 448.5 751 c 128,-1,52
 468 737 468 737 479.5 715.5 c 128,-1,53
 491 694 491 694 491 664 c 0,54,55
 491 654 491 654 489 644 c 128,-1,56
 487 634 487 634 486 623 c 1,57,-1
 358 614 l 1,0,1
179 396 m 0,58,59
 179 382 179 382 191 371 c 128,-1,60
 203 360 203 360 222 348 c 1,61,62
 239 353 239 353 250.5 368.5 c 128,-1,63
 262 384 262 384 262 412 c 0,64,65
 262 423 262 423 254 433.5 c 128,-1,66
 246 444 246 444 232 456 c 1,67,68
 215 454 215 454 197 437.5 c 128,-1,69
 179 421 179 421 179 396 c 0,58,59
EndSplineSet
EndChar

StartChar: degree
Encoding: 176 176 201
Width: 294
Flags: W
HStem: 520 71<165.356 255.981> 707 58<166.893 259.261>
VStem: 82 71<604.892 692.104> 272 58<608.297 693.873>
LayerCount: 2
Fore
SplineSet
206 591 m 0,0,1
 239 591 239 591 255.5 611 c 128,-1,2
 272 631 272 631 272 654 c 0,3,4
 272 675 272 675 257 691 c 128,-1,5
 242 707 242 707 212 707 c 0,6,7
 183 707 183 707 168 689 c 128,-1,8
 153 671 153 671 153 648 c 0,9,10
 153 627 153 627 166.5 609 c 128,-1,11
 180 591 180 591 206 591 c 0,0,1
193 520 m 0,12,13
 166 520 166 520 145 530 c 128,-1,14
 124 540 124 540 110 557 c 128,-1,15
 96 574 96 574 89 595.5 c 128,-1,16
 82 617 82 617 82 640 c 256,17,18
 82 663 82 663 89.5 685.5 c 128,-1,19
 97 708 97 708 112.5 725.5 c 128,-1,20
 128 743 128 743 152 754 c 128,-1,21
 176 765 176 765 208 765 c 0,22,23
 239 765 239 765 262 755.5 c 128,-1,24
 285 746 285 746 300 730.5 c 128,-1,25
 315 715 315 715 322.5 694 c 128,-1,26
 330 673 330 673 330 651 c 0,27,28
 330 627 330 627 321 603.5 c 128,-1,29
 312 580 312 580 294.5 561.5 c 128,-1,30
 277 543 277 543 251.5 531.5 c 128,-1,31
 226 520 226 520 193 520 c 0,12,13
EndSplineSet
EndChar

StartChar: bullet
Encoding: 8226 8226 202
Width: 495
Flags: W
VStem: 106 301<315.949 407.961>
LayerCount: 2
Fore
SplineSet
407 419 m 0,0,1
 407 383 407 383 395 343.5 c 128,-1,2
 383 304 383 304 357.5 271 c 128,-1,3
 332 238 332 238 292.5 216.5 c 128,-1,4
 253 195 253 195 199 195 c 0,5,6
 153 195 153 195 129.5 225 c 128,-1,7
 106 255 106 255 106 294 c 0,8,9
 106 331 106 331 117.5 375.5 c 128,-1,10
 129 420 129 420 154 458 c 128,-1,11
 179 496 179 496 218.5 522 c 128,-1,12
 258 548 258 548 314 548 c 0,13,14
 342 548 342 548 360 535.5 c 128,-1,15
 378 523 378 523 388.5 504 c 128,-1,16
 399 485 399 485 403 462 c 128,-1,17
 407 439 407 439 407 419 c 0,0,1
EndSplineSet
EndChar

StartChar: braceleft
Encoding: 123 123 203
Width: 356
Flags: W
HStem: 729 20G<274 309.815>
VStem: 108 122<185.3 313.711>
LayerCount: 2
Fore
SplineSet
241 7 m 1,0,1
 213 21 213 21 188.5 41 c 128,-1,2
 164 61 164 61 146 86 c 128,-1,3
 128 111 128 111 118 142 c 128,-1,4
 108 173 108 173 108 210 c 0,5,6
 108 232 108 232 106 254.5 c 128,-1,7
 104 277 104 277 96.5 295.5 c 128,-1,8
 89 314 89 314 72.5 326.5 c 128,-1,9
 56 339 56 339 28 342 c 1,10,-1
 46 460 l 1,11,-1
 54 460 l 2,12,13
 90 460 90 460 107 475.5 c 128,-1,14
 124 491 124 491 133 516 c 128,-1,15
 142 541 142 541 148.5 572.5 c 128,-1,16
 155 604 155 604 170.5 636 c 128,-1,17
 186 668 186 668 216 697.5 c 128,-1,18
 246 727 246 727 302 749 c 1,19,-1
 361 598 l 1,20,21
 325 595 325 595 305.5 580.5 c 128,-1,22
 286 566 286 566 275 546 c 128,-1,23
 264 526 264 526 258 502.5 c 128,-1,24
 252 479 252 479 243.5 457.5 c 128,-1,25
 235 436 235 436 219.5 418.5 c 128,-1,26
 204 401 204 401 174 393 c 1,27,28
 193 386 193 386 204 373.5 c 128,-1,29
 215 361 215 361 221 344.5 c 128,-1,30
 227 328 227 328 228.5 309 c 128,-1,31
 230 290 230 290 230 272 c 2,32,-1
 230 236 l 2,33,34
 230 223 230 223 236 210.5 c 128,-1,35
 242 198 242 198 251 187 c 128,-1,36
 260 176 260 176 271.5 168 c 128,-1,37
 283 160 283 160 295 156 c 1,38,-1
 241 7 l 1,0,1
EndSplineSet
EndChar

StartChar: braceright
Encoding: 125 125 204
Width: 356
Flags: W
HStem: 729 20G<162.959 195.5>
VStem: 157 123<460.099 605.391>
DStem2: 126 236 240 200 0.208901 0.977937<-67.8631 105.847>
LayerCount: 2
Fore
SplineSet
19 146 m 1,0,1
 35 150 35 150 52.5 155.5 c 128,-1,2
 70 161 70 161 85.5 171 c 128,-1,3
 101 181 101 181 112 196.5 c 128,-1,4
 123 212 123 212 126 236 c 0,5,6
 128 255 128 255 133 277.5 c 128,-1,7
 138 300 138 300 147 321 c 128,-1,8
 156 342 156 342 170.5 358.5 c 128,-1,9
 185 375 185 375 206 383 c 1,10,11
 181 393 181 393 171 414 c 128,-1,12
 161 435 161 435 158.5 460.5 c 128,-1,13
 156 486 156 486 157 514 c 128,-1,14
 158 542 158 542 153 566 c 128,-1,15
 148 590 148 590 133.5 607 c 128,-1,16
 119 624 119 624 87 628 c 1,17,-1
 178 749 l 1,18,19
 213 733 213 733 233.5 713 c 128,-1,20
 254 693 254 693 264.5 670.5 c 128,-1,21
 275 648 275 648 278 624.5 c 128,-1,22
 281 601 281 601 281 578 c 0,23,24
 281 564 281 564 280.5 551 c 128,-1,25
 280 538 280 538 280 526 c 0,26,27
 280 509 280 509 282 495.5 c 128,-1,28
 284 482 284 482 291 471.5 c 128,-1,29
 298 461 298 461 311 455.5 c 128,-1,30
 324 450 324 450 345 450 c 2,31,-1
 353 450 l 1,32,-1
 338 332 l 1,33,34
 314 329 314 329 297 318 c 128,-1,35
 280 307 280 307 268.5 290 c 128,-1,36
 257 273 257 273 250.5 250 c 128,-1,37
 244 227 244 227 240 200 c 0,38,39
 234 164 234 164 215.5 131.5 c 128,-1,40
 197 99 197 99 169.5 73.5 c 128,-1,41
 142 48 142 48 106.5 30.5 c 128,-1,42
 71 13 71 13 31 7 c 1,43,-1
 19 146 l 1,0,1
EndSplineSet
EndChar

StartChar: brokenbar
Encoding: 166 166 205
Width: 223
Flags: W
VStem: -29 305
DStem2: 2 123.5 163 147 0.172627 0.984987<-102.9 175.78 362.653 651.082>
LayerCount: 2
Fore
SplineSet
193 320 m 1,0,1
 177 231 177 231 163 147 c 128,-1,2
 149 63 149 63 140 0 c 1,3,4
 131 0 131 0 104 -2.5 c 128,-1,5
 77 -5 77 -5 48 -8.5 c 128,-1,6
 19 -12 19 -12 -4 -15 c 128,-1,7
 -27 -18 -27 -18 -29 -19 c 1,8,9
 -15 41 -15 41 2 123.5 c 128,-1,10
 19 206 19 206 36 296 c 1,11,-1
 193 320 l 1,0,1
62 436 m 1,12,13
 74 503 74 503 84 562.5 c 128,-1,14
 94 622 94 622 102 667 c 0,15,16
 111 720 111 720 119 764 c 1,17,-1
 276 776 l 1,18,19
 268 733 268 733 258 681 c 0,20,21
 250 636 250 636 239.5 578 c 128,-1,22
 229 520 229 520 217 454 c 1,23,-1
 62 436 l 1,12,13
EndSplineSet
EndChar

StartChar: dotlessi
Encoding: 305 305 206
Width: 223
Flags: W
HStem: 1 21G<-21 -17>
VStem: -22 287
DStem2: -1 99 162.5 121.5 0.161295 0.986906<-59.2924 281.397 303.966 483.848 520.738 627.005>
LayerCount: 2
Fore
SplineSet
265 742 m 1,0,1
 241 605 241 605 219 473 c 0,2,3
 210 417 210 417 200 356.5 c 128,-1,4
 190 296 190 296 180.5 236.5 c 128,-1,5
 171 177 171 177 162.5 121.5 c 128,-1,6
 154 66 154 66 147 20 c 1,7,8
 138 20 138 20 111 17.5 c 128,-1,9
 84 15 84 15 55 11.5 c 128,-1,10
 26 8 26 8 3 5 c 128,-1,11
 -20 2 -20 2 -22 1 c 1,12,13
 -12 45 -12 45 -1 99 c 128,-1,14
 10 153 10 153 21 211.5 c 128,-1,15
 32 270 32 270 42.5 330.5 c 128,-1,16
 53 391 53 391 62 447 c 0,17,18
 84 579 84 579 105 717 c 1,19,-1
 265 742 l 1,0,1
EndSplineSet
EndChar

StartChar: fraction
Encoding: 8260 8260 207
Width: 198
Flags: W
HStem: 733 20G<255.5 279.5>
DStem2: -185.5 69.5 -74 -51 0.556936 0.830556<-37.9837 386.914 390.019 578.44 581.707 827.863>
LayerCount: 2
Fore
SplineSet
443 720 m 1,0,1
 412 674 412 674 373.5 616.5 c 128,-1,2
 335 559 335 559 293 496.5 c 128,-1,3
 251 434 251 434 207.5 369 c 128,-1,4
 164 304 164 304 123 243 c 0,5,6
 27 100 27 100 -74 -51 c 1,7,-1
 -244 -11 l 1,8,9
 -222 19 -222 19 -185.5 69.5 c 128,-1,10
 -149 120 -149 120 -104.5 183.5 c 128,-1,11
 -60 247 -60 247 -10 320 c 128,-1,12
 40 393 40 393 90.5 468 c 128,-1,13
 141 543 141 543 188.5 616 c 128,-1,14
 236 689 236 689 275 753 c 1,15,16
 284 747 284 747 305 741.5 c 128,-1,17
 326 736 326 736 351 732 c 128,-1,18
 376 728 376 728 401 725 c 128,-1,19
 426 722 426 722 443 720 c 1,0,1
EndSplineSet
EndChar

StartChar: divide
Encoding: 247 247 208
Width: 240
Flags: W
HStem: 34.5 180.5<30.6216 150> 260 137<-20 272> 435 161<96.0078 217>
DStem2: 4 34 150 36 0.16838 0.985722<21.8547 186.33 430.457 573.927>
LayerCount: 2
Fore
SplineSet
180 214 m 1,0,1
 175 188 175 188 171.5 167 c 128,-1,2
 168 146 168 146 164.5 125 c 128,-1,3
 161 104 161 104 157.5 82.5 c 128,-1,4
 154 61 154 61 150 36 c 1,5,6
 130 35 130 35 105.5 34.5 c 128,-1,7
 81 34 81 34 58 34 c 2,8,-1
 4 34 l 1,9,10
 10 64 10 64 15 95 c 0,11,12
 20 121 20 121 24.5 152.5 c 128,-1,13
 29 184 29 184 34 213 c 1,14,15
 57 214 57 214 79 214.5 c 128,-1,16
 101 215 101 215 124 215 c 0,17,18
 138 215 138 215 152 215 c 128,-1,19
 166 215 166 215 180 214 c 1,0,1
249 600 m 1,20,21
 242 576 242 576 237 550 c 0,22,23
 232 527 232 527 227 498 c 128,-1,24
 222 469 222 469 217 439 c 1,25,26
 184 437 184 437 150 436 c 128,-1,27
 116 435 116 435 74 435 c 1,28,29
 78 463 78 463 81 481.5 c 128,-1,30
 84 500 84 500 86.5 516.5 c 128,-1,31
 89 533 89 533 92 551 c 128,-1,32
 95 569 95 569 100 596 c 1,33,34
 119 596 119 596 144.5 596.5 c 128,-1,35
 170 597 170 597 193 598 c 0,36,37
 220 599 220 599 249 600 c 1,20,21
-20 397 m 1,38,39
 9 396 9 396 37 395 c 0,40,41
 61 394 61 394 87 394 c 128,-1,42
 113 394 113 394 132 394 c 0,43,44
 154 394 154 394 182.5 394 c 128,-1,45
 211 394 211 394 237 395 c 0,46,47
 267 396 267 396 298 397 c 1,48,-1
 272 258 l 1,49,50
 234 258 234 258 198 259 c 0,51,52
 167 260 167 260 133.5 260.5 c 128,-1,53
 100 261 100 261 76 261 c 0,54,55
 58 261 58 261 36 260.5 c 128,-1,56
 14 260 14 260 -5 260 c 0,57,58
 -28 259 -28 259 -50 259 c 1,59,-1
 -20 397 l 1,38,39
EndSplineSet
EndChar

